M48
; DRILL file {KiCad 7.0.11} date Thu May 30 18:23:34 2024
; FORMAT={2:4/ absolute / inch / suppress leading zeros}
; #@! TF.CreationDate,2024-05-30T18:23:34+10:00
; #@! TF.GenerationSoftware,Kicad,Pcbnew,7.0.11
; #@! TF.FileFunction,NonPlated,1,2,NPTH
FMAT,2
INCH,TZ
; #@! TA.AperFunction,NonPlated,NPTH,ComponentDrill
T1C0.0197
; #@! TA.AperFunction,NonPlated,NPTH,ComponentDrill
T2C0.1614
%
G90
G05
T1
X20646Y-20079
X20646Y-20866
X20646Y-30315
X20646Y-31102
X20646Y-32520
X20646Y-33307
X20646Y-42756
X20646Y-43543
X20646Y-44961
X20646Y-45748
X20646Y-48189
X20646Y-48976
X20945Y-20079
X20945Y-20866
X20945Y-30315
X20945Y-31102
X20945Y-32520
X20945Y-33307
X20945Y-42756
X20945Y-43543
X20945Y-44961
X20945Y-45748
X20945Y-48189
X20945Y-48976
X21244Y-20079
X21244Y-20866
X21244Y-30315
X21244Y-31102
X21244Y-32520
X21244Y-33307
X21244Y-42756
X21244Y-43543
X21244Y-44961
X21244Y-45748
X21244Y-48189
X21244Y-48976
X23167Y-44961
X23167Y-45354
X23167Y-48583
X23167Y-48976
X23323Y-20079
X23323Y-20472
X23323Y-23622
X23323Y-24016
X23323Y-27165
X23323Y-27559
X23323Y-30709
X23323Y-31102
X23323Y-32520
X23323Y-32913
X23323Y-36063
X23323Y-36457
X23323Y-39606
X23323Y-40000
X23323Y-43150
X23323Y-43543
X23466Y-44961
X23466Y-45354
X23466Y-48583
X23466Y-48976
X23622Y-20079
X23622Y-20472
X23622Y-23622
X23622Y-24016
X23622Y-27165
X23622Y-27559
X23622Y-30709
X23622Y-31102
X23622Y-32520
X23622Y-32913
X23622Y-36063
X23622Y-36457
X23622Y-39606
X23622Y-40000
X23622Y-43150
X23622Y-43543
X23766Y-44961
X23766Y-45354
X23766Y-48583
X23766Y-48976
X23921Y-20079
X23921Y-20472
X23921Y-23622
X23921Y-24016
X23921Y-27165
X23921Y-27559
X23921Y-30709
X23921Y-31102
X23921Y-32520
X23921Y-32913
X23921Y-36063
X23921Y-36457
X23921Y-39606
X23921Y-40000
X23921Y-43150
X23921Y-43543
X25041Y-46669
X25041Y-46969
X25041Y-47268
X25435Y-46669
X25435Y-46969
X25435Y-47268
X26709Y-44959
X26709Y-45352
X26709Y-48581
X26709Y-48975
X27009Y-44959
X27009Y-45352
X27009Y-48581
X27009Y-48975
X27063Y-20079
X27063Y-20472
X27063Y-23622
X27063Y-24016
X27063Y-27165
X27063Y-27559
X27063Y-30709
X27063Y-31102
X27063Y-32520
X27063Y-32913
X27063Y-36063
X27063Y-36457
X27063Y-39606
X27063Y-40000
X27063Y-43150
X27063Y-43543
X27308Y-44959
X27308Y-45352
X27308Y-48581
X27308Y-48975
X27362Y-20079
X27362Y-20472
X27362Y-23622
X27362Y-24016
X27362Y-27165
X27362Y-27559
X27362Y-30709
X27362Y-31102
X27362Y-32520
X27362Y-32913
X27362Y-36063
X27362Y-36457
X27362Y-39606
X27362Y-40000
X27362Y-43150
X27362Y-43543
X27661Y-20079
X27661Y-20472
X27661Y-23622
X27661Y-24016
X27661Y-27165
X27661Y-27559
X27661Y-30709
X27661Y-31102
X27661Y-32520
X27661Y-32913
X27661Y-36063
X27661Y-36457
X27661Y-39606
X27661Y-40000
X27661Y-43150
X27661Y-43543
X29228Y-44961
X29228Y-45748
X29228Y-48189
X29228Y-48976
X29528Y-44961
X29528Y-45748
X29528Y-48189
X29528Y-48976
X29827Y-44961
X29827Y-45748
X29827Y-48189
X29827Y-48976
X30803Y-20079
X30803Y-20472
X30803Y-23622
X30803Y-24016
X30803Y-27165
X30803Y-27559
X30803Y-30709
X30803Y-31102
X30803Y-32520
X30803Y-32913
X30803Y-36063
X30803Y-36457
X30803Y-39606
X30803Y-40000
X30803Y-43150
X30803Y-43543
X31102Y-20079
X31102Y-20472
X31102Y-23622
X31102Y-24016
X31102Y-27165
X31102Y-27559
X31102Y-30709
X31102Y-31102
X31102Y-32520
X31102Y-32913
X31102Y-36063
X31102Y-36457
X31102Y-39606
X31102Y-40000
X31102Y-43150
X31102Y-43543
X31402Y-20079
X31402Y-20472
X31402Y-23622
X31402Y-24016
X31402Y-27165
X31402Y-27559
X31402Y-30709
X31402Y-31102
X31402Y-32520
X31402Y-32913
X31402Y-36063
X31402Y-36457
X31402Y-39606
X31402Y-40000
X31402Y-43150
X31402Y-43543
X31750Y-44961
X31750Y-45354
X31750Y-48583
X31750Y-48976
X32049Y-44961
X32049Y-45354
X32049Y-48583
X32049Y-48976
X32348Y-44961
X32348Y-45354
X32348Y-48583
X32348Y-48976
X33480Y-20079
X33480Y-20866
X33480Y-30315
X33480Y-31102
X33480Y-32520
X33480Y-33307
X33480Y-42756
X33480Y-43543
X33624Y-46669
X33624Y-46969
X33624Y-47268
X33780Y-20079
X33780Y-20866
X33780Y-30315
X33780Y-31102
X33780Y-32520
X33780Y-33307
X33780Y-42756
X33780Y-43543
X34018Y-46669
X34018Y-46969
X34018Y-47268
X34079Y-20079
X34079Y-20866
X34079Y-30315
X34079Y-31102
X34079Y-32520
X34079Y-33307
X34079Y-42756
X34079Y-43543
X35292Y-44959
X35292Y-45352
X35292Y-48581
X35292Y-48975
X35591Y-44959
X35591Y-45352
X35591Y-48581
X35591Y-48975
X35891Y-44959
X35891Y-45352
X35891Y-48581
X35891Y-48975
X36157Y-20079
X36157Y-20472
X36157Y-23622
X36157Y-24016
X36157Y-27165
X36157Y-27559
X36157Y-30709
X36157Y-31102
X36157Y-32520
X36157Y-32913
X36157Y-36063
X36157Y-36457
X36157Y-39606
X36157Y-40000
X36157Y-43150
X36157Y-43543
X36457Y-20079
X36457Y-20472
X36457Y-23622
X36457Y-24016
X36457Y-27165
X36457Y-27559
X36457Y-30709
X36457Y-31102
X36457Y-32520
X36457Y-32913
X36457Y-36063
X36457Y-36457
X36457Y-39606
X36457Y-40000
X36457Y-43150
X36457Y-43543
X36756Y-20079
X36756Y-20472
X36756Y-23622
X36756Y-24016
X36756Y-27165
X36756Y-27559
X36756Y-30709
X36756Y-31102
X36756Y-32520
X36756Y-32913
X36756Y-36063
X36756Y-36457
X36756Y-39606
X36756Y-40000
X36756Y-43150
X36756Y-43543
X37811Y-44961
X37811Y-45748
X37811Y-48189
X37811Y-48976
X38110Y-44961
X38110Y-45748
X38110Y-48189
X38110Y-48976
X38409Y-44961
X38409Y-45748
X38409Y-48189
X38409Y-48976
X39898Y-20079
X39898Y-20472
X39898Y-23622
X39898Y-24016
X39898Y-27165
X39898Y-27559
X39898Y-30709
X39898Y-31102
X39898Y-32520
X39898Y-32913
X39898Y-36063
X39898Y-36457
X39898Y-39606
X39898Y-40000
X39898Y-43150
X39898Y-43543
X40197Y-20079
X40197Y-20472
X40197Y-23622
X40197Y-24016
X40197Y-27165
X40197Y-27559
X40197Y-30709
X40197Y-31102
X40197Y-32520
X40197Y-32913
X40197Y-36063
X40197Y-36457
X40197Y-39606
X40197Y-40000
X40197Y-43150
X40197Y-43543
X40332Y-44961
X40332Y-45354
X40332Y-48583
X40332Y-48976
X40496Y-20079
X40496Y-20472
X40496Y-23622
X40496Y-24016
X40496Y-27165
X40496Y-27559
X40496Y-30709
X40496Y-31102
X40496Y-32520
X40496Y-32913
X40496Y-36063
X40496Y-36457
X40496Y-39606
X40496Y-40000
X40496Y-43150
X40496Y-43543
X40632Y-44961
X40632Y-45354
X40632Y-48583
X40632Y-48976
X40931Y-44961
X40931Y-45354
X40931Y-48583
X40931Y-48976
X42207Y-46669
X42207Y-46969
X42207Y-47268
X42600Y-46669
X42600Y-46969
X42600Y-47268
X43638Y-20079
X43638Y-20472
X43638Y-23622
X43638Y-24016
X43638Y-27165
X43638Y-27559
X43638Y-30709
X43638Y-31102
X43638Y-32520
X43638Y-32913
X43638Y-36063
X43638Y-36457
X43638Y-39606
X43638Y-40000
X43638Y-43150
X43638Y-43543
X43875Y-44959
X43875Y-45352
X43875Y-48581
X43875Y-48975
X43937Y-20079
X43937Y-20472
X43937Y-23622
X43937Y-24016
X43937Y-27165
X43937Y-27559
X43937Y-30709
X43937Y-31102
X43937Y-32520
X43937Y-32913
X43937Y-36063
X43937Y-36457
X43937Y-39606
X43937Y-40000
X43937Y-43150
X43937Y-43543
X44174Y-44959
X44174Y-45352
X44174Y-48581
X44174Y-48975
X44236Y-20079
X44236Y-20472
X44236Y-23622
X44236Y-24016
X44236Y-27165
X44236Y-27559
X44236Y-30709
X44236Y-31102
X44236Y-32520
X44236Y-32913
X44236Y-36063
X44236Y-36457
X44236Y-39606
X44236Y-40000
X44236Y-43150
X44236Y-43543
X44473Y-44959
X44473Y-45352
X44473Y-48581
X44473Y-48975
X46315Y-20079
X46315Y-20866
X46315Y-30315
X46315Y-31102
X46315Y-32520
X46315Y-33307
X46315Y-42756
X46315Y-43543
X46394Y-44961
X46394Y-45748
X46394Y-48189
X46394Y-48976
X46614Y-20079
X46614Y-20866
X46614Y-30315
X46614Y-31102
X46614Y-32520
X46614Y-33307
X46614Y-42756
X46614Y-43543
X46693Y-44961
X46693Y-45748
X46693Y-48189
X46693Y-48976
X46913Y-20079
X46913Y-20866
X46913Y-30315
X46913Y-31102
X46913Y-32520
X46913Y-33307
X46913Y-42756
X46913Y-43543
X46992Y-44961
X46992Y-45748
X46992Y-48189
X46992Y-48976
X48915Y-44961
X48915Y-45354
X48915Y-48583
X48915Y-48976
X48992Y-20079
X48992Y-20472
X48992Y-23622
X48992Y-24016
X48992Y-27165
X48992Y-27559
X48992Y-30709
X48992Y-31102
X48992Y-32520
X48992Y-32913
X48992Y-36063
X48992Y-36457
X48992Y-39606
X48992Y-40000
X48992Y-43150
X48992Y-43543
X49214Y-44961
X49214Y-45354
X49214Y-48583
X49214Y-48976
X49291Y-20079
X49291Y-20472
X49291Y-23622
X49291Y-24016
X49291Y-27165
X49291Y-27559
X49291Y-30709
X49291Y-31102
X49291Y-32520
X49291Y-32913
X49291Y-36063
X49291Y-36457
X49291Y-39606
X49291Y-40000
X49291Y-43150
X49291Y-43543
X49514Y-44961
X49514Y-45354
X49514Y-48583
X49514Y-48976
X49591Y-20079
X49591Y-20472
X49591Y-23622
X49591Y-24016
X49591Y-27165
X49591Y-27559
X49591Y-30709
X49591Y-31102
X49591Y-32520
X49591Y-32913
X49591Y-36063
X49591Y-36457
X49591Y-39606
X49591Y-40000
X49591Y-43150
X49591Y-43543
X50789Y-46669
X50789Y-46969
X50789Y-47268
X51183Y-46669
X51183Y-46969
X51183Y-47268
X52458Y-44959
X52458Y-45352
X52458Y-48581
X52458Y-48975
X52732Y-20079
X52732Y-20472
X52732Y-23622
X52732Y-24016
X52732Y-27165
X52732Y-27559
X52732Y-30709
X52732Y-31102
X52732Y-32520
X52732Y-32913
X52732Y-36063
X52732Y-36457
X52732Y-39606
X52732Y-40000
X52732Y-43150
X52732Y-43543
X52757Y-44959
X52757Y-45352
X52757Y-48581
X52757Y-48975
X53031Y-20079
X53031Y-20472
X53031Y-23622
X53031Y-24016
X53031Y-27165
X53031Y-27559
X53031Y-30709
X53031Y-31102
X53031Y-32520
X53031Y-32913
X53031Y-36063
X53031Y-36457
X53031Y-39606
X53031Y-40000
X53031Y-43150
X53031Y-43543
X53056Y-44959
X53056Y-45352
X53056Y-48581
X53056Y-48975
X53331Y-20079
X53331Y-20472
X53331Y-23622
X53331Y-24016
X53331Y-27165
X53331Y-27559
X53331Y-30709
X53331Y-31102
X53331Y-32520
X53331Y-32913
X53331Y-36063
X53331Y-36457
X53331Y-39606
X53331Y-40000
X53331Y-43150
X53331Y-43543
X54976Y-44961
X54976Y-45748
X54976Y-48189
X54976Y-48976
X55276Y-44961
X55276Y-45748
X55276Y-48189
X55276Y-48976
X55575Y-44961
X55575Y-45748
X55575Y-48189
X55575Y-48976
X56472Y-20079
X56472Y-20472
X56472Y-23622
X56472Y-24016
X56472Y-27165
X56472Y-27559
X56472Y-30709
X56472Y-31102
X56472Y-32520
X56472Y-32913
X56472Y-36063
X56472Y-36457
X56472Y-39606
X56472Y-40000
X56472Y-43150
X56472Y-43543
X56772Y-20079
X56772Y-20472
X56772Y-23622
X56772Y-24016
X56772Y-27165
X56772Y-27559
X56772Y-30709
X56772Y-31102
X56772Y-32520
X56772Y-32913
X56772Y-36063
X56772Y-36457
X56772Y-39606
X56772Y-40000
X56772Y-43150
X56772Y-43543
X57071Y-20079
X57071Y-20472
X57071Y-23622
X57071Y-24016
X57071Y-27165
X57071Y-27559
X57071Y-30709
X57071Y-31102
X57071Y-32520
X57071Y-32913
X57071Y-36063
X57071Y-36457
X57071Y-39606
X57071Y-40000
X57071Y-43150
X57071Y-43543
X59150Y-20079
X59150Y-20866
X59150Y-30315
X59150Y-31102
X59150Y-32520
X59150Y-33307
X59150Y-42756
X59150Y-43543
X59150Y-44961
X59150Y-45748
X59150Y-48189
X59150Y-48976
X59449Y-20079
X59449Y-20866
X59449Y-30315
X59449Y-31102
X59449Y-32520
X59449Y-33307
X59449Y-42756
X59449Y-43543
X59449Y-44961
X59449Y-45748
X59449Y-48189
X59449Y-48976
X59748Y-20079
X59748Y-20866
X59748Y-30315
X59748Y-31102
X59748Y-32520
X59748Y-33307
X59748Y-42756
X59748Y-43543
X59748Y-44961
X59748Y-45748
X59748Y-48189
X59748Y-48976
T2
X23466Y-46969
X27009Y-46967
X32049Y-46969
X35591Y-46967
X40632Y-46969
X44174Y-46967
X49214Y-46969
X52757Y-46967
M30
