G04 #@! TF.GenerationSoftware,KiCad,Pcbnew,7.0.11*
G04 #@! TF.CreationDate,2024-05-30T18:22:34+10:00*
G04 #@! TF.ProjectId,PercPlugPanel_v1.02,50657263-506c-4756-9750-616e656c5f76,rev?*
G04 #@! TF.SameCoordinates,Original*
G04 #@! TF.FileFunction,Copper,L2,Bot*
G04 #@! TF.FilePolarity,Positive*
%FSLAX46Y46*%
G04 Gerber Fmt 4.6, Leading zero omitted, Abs format (unit mm)*
G04 Created by KiCad (PCBNEW 7.0.11) date 2024-05-30 18:22:34*
%MOMM*%
%LPD*%
G01*
G04 APERTURE LIST*
G04 #@! TA.AperFunction,ComponentPad*
%ADD10C,1.270000*%
G04 #@! TD*
G04 #@! TA.AperFunction,ComponentPad*
%ADD11C,0.254000*%
G04 #@! TD*
G04 #@! TA.AperFunction,SMDPad,CuDef*
%ADD12R,0.406400X2.540000*%
G04 #@! TD*
G04 #@! TA.AperFunction,Conductor*
%ADD13C,0.152400*%
G04 #@! TD*
G04 APERTURE END LIST*
D10*
X87548890Y-120222297D03*
X88638705Y-121722297D03*
X90402058Y-122295247D03*
X92165411Y-121722297D03*
X93255226Y-120222297D03*
X93255226Y-118368197D03*
X92165411Y-116868197D03*
X90402058Y-116295247D03*
X88638705Y-116868197D03*
X87548890Y-118368197D03*
X62457689Y-118372947D03*
X61367874Y-116872947D03*
X59604521Y-116299997D03*
X57841168Y-116872947D03*
X56751353Y-118372947D03*
X56751353Y-120227047D03*
X57841168Y-121727047D03*
X59604521Y-122299997D03*
X61367874Y-121727047D03*
X62457689Y-120227047D03*
D11*
X67441404Y-62168882D03*
X68059929Y-63017910D03*
X66000000Y-66082268D03*
X68059929Y-66982090D03*
X67442610Y-67831996D03*
X71557103Y-67831118D03*
X70940071Y-66982090D03*
X73000000Y-66080846D03*
X70940071Y-63017910D03*
X71555896Y-62168004D03*
X142141404Y-71168882D03*
X142759929Y-72017910D03*
X140700000Y-75082268D03*
X142759929Y-75982090D03*
X142142610Y-76831996D03*
X146257103Y-76831118D03*
X145640071Y-75982090D03*
X147700000Y-75080846D03*
X145640071Y-72017910D03*
X146255896Y-71168004D03*
X57941405Y-84768882D03*
X58559930Y-85617910D03*
X56500001Y-88682268D03*
X58559930Y-89582090D03*
X57942611Y-90431996D03*
X62057104Y-90431118D03*
X61440072Y-89582090D03*
X63500001Y-88680846D03*
X61440072Y-85617910D03*
X62055897Y-84768004D03*
X100041404Y-93768882D03*
X100659929Y-94617910D03*
X98600000Y-97682268D03*
X100659929Y-98582090D03*
X100042610Y-99431996D03*
X104157103Y-99431118D03*
X103540071Y-98582090D03*
X105600000Y-97680846D03*
X103540071Y-94617910D03*
X104155896Y-93768004D03*
X123141405Y-84768882D03*
X123759930Y-85617910D03*
X121700001Y-88682268D03*
X123759930Y-89582090D03*
X123142611Y-90431996D03*
X127257104Y-90431118D03*
X126640072Y-89582090D03*
X128700001Y-88680846D03*
X126640072Y-85617910D03*
X127255897Y-84768004D03*
X76941404Y-84768882D03*
X77559929Y-85617910D03*
X75500000Y-88682268D03*
X77559929Y-89582090D03*
X76942610Y-90431996D03*
X81057103Y-90431118D03*
X80440071Y-89582090D03*
X82500000Y-88680846D03*
X80440071Y-85617910D03*
X81055896Y-84768004D03*
X100041404Y-84768882D03*
X100659929Y-85617910D03*
X98600000Y-88682268D03*
X100659929Y-89582090D03*
X100042610Y-90431996D03*
X104157103Y-90431118D03*
X103540071Y-89582090D03*
X105600000Y-88680846D03*
X103540071Y-85617910D03*
X104155896Y-84768004D03*
X132641404Y-71168882D03*
X133259929Y-72017910D03*
X131200000Y-75082268D03*
X133259929Y-75982090D03*
X132642610Y-76831996D03*
X136757103Y-76831118D03*
X136140071Y-75982090D03*
X138200000Y-75080846D03*
X136140071Y-72017910D03*
X136755896Y-71168004D03*
X76941404Y-93768882D03*
X77559929Y-94617910D03*
X75500000Y-97682268D03*
X77559929Y-98582090D03*
X76942610Y-99431996D03*
X81057103Y-99431118D03*
X80440071Y-98582090D03*
X82500000Y-97680846D03*
X80440071Y-94617910D03*
X81055896Y-93768004D03*
D10*
X127857689Y-118372947D03*
X126767874Y-116872947D03*
X125004521Y-116299997D03*
X123241168Y-116872947D03*
X122151353Y-118372947D03*
X122151353Y-120227047D03*
X123241168Y-121727047D03*
X125004521Y-122299997D03*
X126767874Y-121727047D03*
X127857689Y-120227047D03*
D11*
X142141404Y-53168882D03*
X142759929Y-54017910D03*
X140700000Y-57082268D03*
X142759929Y-57982090D03*
X142142610Y-58831996D03*
X146257103Y-58831118D03*
X145640071Y-57982090D03*
X147700000Y-57080846D03*
X145640071Y-54017910D03*
X146255896Y-53168004D03*
X123141405Y-53168882D03*
X123759930Y-54017910D03*
X121700001Y-57082268D03*
X123759930Y-57982090D03*
X123142611Y-58831996D03*
X127257104Y-58831118D03*
X126640072Y-57982090D03*
X128700001Y-57080846D03*
X126640072Y-54017910D03*
X127255897Y-53168004D03*
X123141405Y-62168882D03*
X123759930Y-63017910D03*
X121700001Y-66082268D03*
X123759930Y-66982090D03*
X123142611Y-67831996D03*
X127257104Y-67831118D03*
X126640072Y-66982090D03*
X128700001Y-66080846D03*
X126640072Y-63017910D03*
X127255897Y-62168004D03*
X90541405Y-93768882D03*
X91159930Y-94617910D03*
X89100001Y-97682268D03*
X91159930Y-98582090D03*
X90542611Y-99431996D03*
X94657104Y-99431118D03*
X94040072Y-98582090D03*
X96100001Y-97680846D03*
X94040072Y-94617910D03*
X94655897Y-93768004D03*
X132641404Y-93768882D03*
X133259929Y-94617910D03*
X131200000Y-97682268D03*
X133259929Y-98582090D03*
X132642610Y-99431996D03*
X136757103Y-99431118D03*
X136140071Y-98582090D03*
X138200000Y-97680846D03*
X136140071Y-94617910D03*
X136755896Y-93768004D03*
X142141404Y-102768882D03*
X142759929Y-103617910D03*
X140700000Y-106682268D03*
X142759929Y-107582090D03*
X142142610Y-108431996D03*
X146257103Y-108431118D03*
X145640071Y-107582090D03*
X147700000Y-106680846D03*
X145640071Y-103617910D03*
X146255896Y-102768004D03*
X132641404Y-62168882D03*
X133259929Y-63017910D03*
X131200000Y-66082268D03*
X133259929Y-66982090D03*
X132642610Y-67831996D03*
X136757103Y-67831118D03*
X136140071Y-66982090D03*
X138200000Y-66080846D03*
X136140071Y-63017910D03*
X136755896Y-62168004D03*
D10*
X106057689Y-118372947D03*
X104967874Y-116872947D03*
X103204521Y-116299997D03*
X101441168Y-116872947D03*
X100351353Y-118372947D03*
X100351353Y-120227047D03*
X101441168Y-121727047D03*
X103204521Y-122299997D03*
X104967874Y-121727047D03*
X106057689Y-120227047D03*
D11*
X123141405Y-71168882D03*
X123759930Y-72017910D03*
X121700001Y-75082268D03*
X123759930Y-75982090D03*
X123142611Y-76831996D03*
X127257104Y-76831118D03*
X126640072Y-75982090D03*
X128700001Y-75080846D03*
X126640072Y-72017910D03*
X127255897Y-71168004D03*
X132641404Y-102768882D03*
X133259929Y-103617910D03*
X131200000Y-106682268D03*
X133259929Y-107582090D03*
X132642610Y-108431996D03*
X136757103Y-108431118D03*
X136140071Y-107582090D03*
X138200000Y-106680846D03*
X136140071Y-103617910D03*
X136755896Y-102768004D03*
X109541404Y-62168882D03*
X110159929Y-63017910D03*
X108100000Y-66082268D03*
X110159929Y-66982090D03*
X109542610Y-67831996D03*
X113657103Y-67831118D03*
X113040071Y-66982090D03*
X115100000Y-66080846D03*
X113040071Y-63017910D03*
X113655896Y-62168004D03*
X90541405Y-102768882D03*
X91159930Y-103617910D03*
X89100001Y-106682268D03*
X91159930Y-107582090D03*
X90542611Y-108431996D03*
X94657104Y-108431118D03*
X94040072Y-107582090D03*
X96100001Y-106680846D03*
X94040072Y-103617910D03*
X94655897Y-102768004D03*
D10*
X131148890Y-120222297D03*
X132238705Y-121722297D03*
X134002058Y-122295247D03*
X135765411Y-121722297D03*
X136855226Y-120222297D03*
X136855226Y-118368197D03*
X135765411Y-116868197D03*
X134002058Y-116295247D03*
X132238705Y-116868197D03*
X131148890Y-118368197D03*
D11*
X109541404Y-53168882D03*
X110159929Y-54017910D03*
X108100000Y-57082268D03*
X110159929Y-57982090D03*
X109542610Y-58831996D03*
X113657103Y-58831118D03*
X113040071Y-57982090D03*
X115100000Y-57080846D03*
X113040071Y-54017910D03*
X113655896Y-53168004D03*
X90541405Y-71168882D03*
X91159930Y-72017910D03*
X89100001Y-75082268D03*
X91159930Y-75982090D03*
X90542611Y-76831996D03*
X94657104Y-76831118D03*
X94040072Y-75982090D03*
X96100001Y-75080846D03*
X94040072Y-72017910D03*
X94655897Y-71168004D03*
X67441404Y-84768882D03*
X68059929Y-85617910D03*
X66000000Y-88682268D03*
X68059929Y-89582090D03*
X67442610Y-90431996D03*
X71557103Y-90431118D03*
X70940071Y-89582090D03*
X73000000Y-88680846D03*
X70940071Y-85617910D03*
X71555896Y-84768004D03*
X57941405Y-71168882D03*
X58559930Y-72017910D03*
X56500001Y-75082268D03*
X58559930Y-75982090D03*
X57942611Y-76831996D03*
X62057104Y-76831118D03*
X61440072Y-75982090D03*
X63500001Y-75080846D03*
X61440072Y-72017910D03*
X62055897Y-71168004D03*
X100041404Y-102768882D03*
X100659929Y-103617910D03*
X98600000Y-106682268D03*
X100659929Y-107582090D03*
X100042610Y-108431996D03*
X104157103Y-108431118D03*
X103540071Y-107582090D03*
X105600000Y-106680846D03*
X103540071Y-103617910D03*
X104155896Y-102768004D03*
X132641404Y-53168882D03*
X133259929Y-54017910D03*
X131200000Y-57082268D03*
X133259929Y-57982090D03*
X132642610Y-58831996D03*
X136757103Y-58831118D03*
X136140071Y-57982090D03*
X138200000Y-57080846D03*
X136140071Y-54017910D03*
X136755896Y-53168004D03*
D10*
X84257689Y-118372947D03*
X83167874Y-116872947D03*
X81404521Y-116299997D03*
X79641168Y-116872947D03*
X78551353Y-118372947D03*
X78551353Y-120227047D03*
X79641168Y-121727047D03*
X81404521Y-122299997D03*
X83167874Y-121727047D03*
X84257689Y-120227047D03*
D11*
X123141405Y-102768882D03*
X123759930Y-103617910D03*
X121700001Y-106682268D03*
X123759930Y-107582090D03*
X123142611Y-108431996D03*
X127257104Y-108431118D03*
X126640072Y-107582090D03*
X128700001Y-106680846D03*
X126640072Y-103617910D03*
X127255897Y-102768004D03*
X57941405Y-53168882D03*
X58559930Y-54017910D03*
X56500001Y-57082268D03*
X58559930Y-57982090D03*
X57942611Y-58831996D03*
X62057104Y-58831118D03*
X61440072Y-57982090D03*
X63500001Y-57080846D03*
X61440072Y-54017910D03*
X62055897Y-53168004D03*
X90541405Y-53168882D03*
X91159930Y-54017910D03*
X89100001Y-57082268D03*
X91159930Y-57982090D03*
X90542611Y-58831996D03*
X94657104Y-58831118D03*
X94040072Y-57982090D03*
X96100001Y-57080846D03*
X94040072Y-54017910D03*
X94655897Y-53168004D03*
X76941404Y-102768882D03*
X77559929Y-103617910D03*
X75500000Y-106682268D03*
X77559929Y-107582090D03*
X76942610Y-108431996D03*
X81057103Y-108431118D03*
X80440071Y-107582090D03*
X82500000Y-106680846D03*
X80440071Y-103617910D03*
X81055896Y-102768004D03*
X67441404Y-93768882D03*
X68059929Y-94617910D03*
X66000000Y-97682268D03*
X68059929Y-98582090D03*
X67442610Y-99431996D03*
X71557103Y-99431118D03*
X70940071Y-98582090D03*
X73000000Y-97680846D03*
X70940071Y-94617910D03*
X71555896Y-93768004D03*
X57941405Y-102768882D03*
X58559930Y-103617910D03*
X56500001Y-106682268D03*
X58559930Y-107582090D03*
X57942611Y-108431996D03*
X62057104Y-108431118D03*
X61440072Y-107582090D03*
X63500001Y-106680846D03*
X61440072Y-103617910D03*
X62055897Y-102768004D03*
X142141404Y-93768882D03*
X142759929Y-94617910D03*
X140700000Y-97682268D03*
X142759929Y-98582090D03*
X142142610Y-99431996D03*
X146257103Y-99431118D03*
X145640071Y-98582090D03*
X147700000Y-97680846D03*
X145640071Y-94617910D03*
X146255896Y-93768004D03*
X76941404Y-71168882D03*
X77559929Y-72017910D03*
X75500000Y-75082268D03*
X77559929Y-75982090D03*
X76942610Y-76831996D03*
X81057103Y-76831118D03*
X80440071Y-75982090D03*
X82500000Y-75080846D03*
X80440071Y-72017910D03*
X81055896Y-71168004D03*
X123141405Y-93768882D03*
X123759930Y-94617910D03*
X121700001Y-97682268D03*
X123759930Y-98582090D03*
X123142611Y-99431996D03*
X127257104Y-99431118D03*
X126640072Y-98582090D03*
X128700001Y-97680846D03*
X126640072Y-94617910D03*
X127255897Y-93768004D03*
X67441404Y-102768882D03*
X68059929Y-103617910D03*
X66000000Y-106682268D03*
X68059929Y-107582090D03*
X67442610Y-108431996D03*
X71557103Y-108431118D03*
X70940071Y-107582090D03*
X73000000Y-106680846D03*
X70940071Y-103617910D03*
X71555896Y-102768004D03*
X109541404Y-93768882D03*
X110159929Y-94617910D03*
X108100000Y-97682268D03*
X110159929Y-98582090D03*
X109542610Y-99431996D03*
X113657103Y-99431118D03*
X113040071Y-98582090D03*
X115100000Y-97680846D03*
X113040071Y-94617910D03*
X113655896Y-93768004D03*
X132641404Y-84768882D03*
X133259929Y-85617910D03*
X131200000Y-88682268D03*
X133259929Y-89582090D03*
X132642610Y-90431996D03*
X136757103Y-90431118D03*
X136140071Y-89582090D03*
X138200000Y-88680846D03*
X136140071Y-85617910D03*
X136755896Y-84768004D03*
X57941405Y-62168882D03*
X58559930Y-63017910D03*
X56500001Y-66082268D03*
X58559930Y-66982090D03*
X57942611Y-67831996D03*
X62057104Y-67831118D03*
X61440072Y-66982090D03*
X63500001Y-66080846D03*
X61440072Y-63017910D03*
X62055897Y-62168004D03*
X67441404Y-53168882D03*
X68059929Y-54017910D03*
X66000000Y-57082268D03*
X68059929Y-57982090D03*
X67442610Y-58831996D03*
X71557103Y-58831118D03*
X70940071Y-57982090D03*
X73000000Y-57080846D03*
X70940071Y-54017910D03*
X71555896Y-53168004D03*
X57941405Y-93768882D03*
X58559930Y-94617910D03*
X56500001Y-97682268D03*
X58559930Y-98582090D03*
X57942611Y-99431996D03*
X62057104Y-99431118D03*
X61440072Y-98582090D03*
X63500001Y-97680846D03*
X61440072Y-94617910D03*
X62055897Y-93768004D03*
D10*
X65748890Y-120222297D03*
X66838705Y-121722297D03*
X68602058Y-122295247D03*
X70365411Y-121722297D03*
X71455226Y-120222297D03*
X71455226Y-118368197D03*
X70365411Y-116868197D03*
X68602058Y-116295247D03*
X66838705Y-116868197D03*
X65748890Y-118368197D03*
D11*
X142141404Y-84768882D03*
X142759929Y-85617910D03*
X140700000Y-88682268D03*
X142759929Y-89582090D03*
X142142610Y-90431996D03*
X146257103Y-90431118D03*
X145640071Y-89582090D03*
X147700000Y-88680846D03*
X145640071Y-85617910D03*
X146255896Y-84768004D03*
X109541404Y-84768882D03*
X110159929Y-85617910D03*
X108100000Y-88682268D03*
X110159929Y-89582090D03*
X109542610Y-90431996D03*
X113657103Y-90431118D03*
X113040071Y-89582090D03*
X115100000Y-88680846D03*
X113040071Y-85617910D03*
X113655896Y-84768004D03*
X142141404Y-62168882D03*
X142759929Y-63017910D03*
X140700000Y-66082268D03*
X142759929Y-66982090D03*
X142142610Y-67831996D03*
X146257103Y-67831118D03*
X145640071Y-66982090D03*
X147700000Y-66080846D03*
X145640071Y-63017910D03*
X146255896Y-62168004D03*
X76941404Y-62168882D03*
X77559929Y-63017910D03*
X75500000Y-66082268D03*
X77559929Y-66982090D03*
X76942610Y-67831996D03*
X81057103Y-67831118D03*
X80440071Y-66982090D03*
X82500000Y-66080846D03*
X80440071Y-63017910D03*
X81055896Y-62168004D03*
X100041404Y-71168882D03*
X100659929Y-72017910D03*
X98600000Y-75082268D03*
X100659929Y-75982090D03*
X100042610Y-76831996D03*
X104157103Y-76831118D03*
X103540071Y-75982090D03*
X105600000Y-75080846D03*
X103540071Y-72017910D03*
X104155896Y-71168004D03*
X109541404Y-102768882D03*
X110159929Y-103617910D03*
X108100000Y-106682268D03*
X110159929Y-107582090D03*
X109542610Y-108431996D03*
X113657103Y-108431118D03*
X113040071Y-107582090D03*
X115100000Y-106680846D03*
X113040071Y-103617910D03*
X113655896Y-102768004D03*
X90541405Y-62168882D03*
X91159930Y-63017910D03*
X89100001Y-66082268D03*
X91159930Y-66982090D03*
X90542611Y-67831996D03*
X94657104Y-67831118D03*
X94040072Y-66982090D03*
X96100001Y-66080846D03*
X94040072Y-63017910D03*
X94655897Y-62168004D03*
D10*
X109348890Y-120222297D03*
X110438705Y-121722297D03*
X112202058Y-122295247D03*
X113965411Y-121722297D03*
X115055226Y-120222297D03*
X115055226Y-118368197D03*
X113965411Y-116868197D03*
X112202058Y-116295247D03*
X110438705Y-116868197D03*
X109348890Y-118368197D03*
D11*
X76941404Y-53168882D03*
X77559929Y-54017910D03*
X75500000Y-57082268D03*
X77559929Y-57982090D03*
X76942610Y-58831996D03*
X81057103Y-58831118D03*
X80440071Y-57982090D03*
X82500000Y-57080846D03*
X80440071Y-54017910D03*
X81055896Y-53168004D03*
X90541405Y-84768882D03*
X91159930Y-85617910D03*
X89100001Y-88682268D03*
X91159930Y-89582090D03*
X90542611Y-90431996D03*
X94657104Y-90431118D03*
X94040072Y-89582090D03*
X96100001Y-88680846D03*
X94040072Y-85617910D03*
X94655897Y-84768004D03*
X109541404Y-71168882D03*
X110159929Y-72017910D03*
X108100000Y-75082268D03*
X110159929Y-75982090D03*
X109542610Y-76831996D03*
X113657103Y-76831118D03*
X113040071Y-75982090D03*
X115100000Y-75080846D03*
X113040071Y-72017910D03*
X113655896Y-71168004D03*
X100041404Y-62168882D03*
X100659929Y-63017910D03*
X98600000Y-66082268D03*
X100659929Y-66982090D03*
X100042610Y-67831996D03*
X104157103Y-67831118D03*
X103540071Y-66982090D03*
X105600000Y-66080846D03*
X103540071Y-63017910D03*
X104155896Y-62168004D03*
X100041404Y-53168882D03*
X100659929Y-54017910D03*
X98600000Y-57082268D03*
X100659929Y-57982090D03*
X100042610Y-58831996D03*
X104157103Y-58831118D03*
X103540071Y-57982090D03*
X105600000Y-57080846D03*
X103540071Y-54017910D03*
X104155896Y-53168004D03*
X67441404Y-71168882D03*
X68059929Y-72017910D03*
X66000000Y-75082268D03*
X68059929Y-75982090D03*
X67442610Y-76831996D03*
X71557103Y-76831118D03*
X70940071Y-75982090D03*
X73000000Y-75080846D03*
X70940071Y-72017910D03*
X71555896Y-71168004D03*
D12*
X99220000Y-87600000D03*
X99860000Y-87600000D03*
X100500000Y-87600000D03*
X101140000Y-87600000D03*
X101780000Y-87600000D03*
X102420000Y-87600000D03*
X103060000Y-87600000D03*
X103700000Y-87600000D03*
X104340000Y-87600000D03*
X104980000Y-87600000D03*
X66620000Y-105600000D03*
X67260000Y-105600000D03*
X67900000Y-105600000D03*
X68540000Y-105600000D03*
X69180000Y-105600000D03*
X69820000Y-105600000D03*
X70460000Y-105600000D03*
X71100000Y-105600000D03*
X71740000Y-105600000D03*
X72380000Y-105600000D03*
X141320000Y-74000000D03*
X141960000Y-74000000D03*
X142600000Y-74000000D03*
X143240000Y-74000000D03*
X143880000Y-74000000D03*
X144520000Y-74000000D03*
X145160000Y-74000000D03*
X145800000Y-74000000D03*
X146440000Y-74000000D03*
X147080000Y-74000000D03*
X76120000Y-65000000D03*
X76760000Y-65000000D03*
X77400000Y-65000000D03*
X78040000Y-65000000D03*
X78680000Y-65000000D03*
X79320000Y-65000000D03*
X79960000Y-65000000D03*
X80600000Y-65000000D03*
X81240000Y-65000000D03*
X81880000Y-65000000D03*
X141320000Y-96600000D03*
X141960000Y-96600000D03*
X142600000Y-96600000D03*
X143240000Y-96600000D03*
X143880000Y-96600000D03*
X144520000Y-96600000D03*
X145160000Y-96600000D03*
X145800000Y-96600000D03*
X146440000Y-96600000D03*
X147080000Y-96600000D03*
X89720001Y-65000000D03*
X90360001Y-65000000D03*
X91000001Y-65000000D03*
X91640001Y-65000000D03*
X92280001Y-65000000D03*
X92920001Y-65000000D03*
X93560001Y-65000000D03*
X94200001Y-65000000D03*
X94840001Y-65000000D03*
X95480001Y-65000000D03*
X108720000Y-96600000D03*
X109360000Y-96600000D03*
X110000000Y-96600000D03*
X110640000Y-96600000D03*
X111280000Y-96600000D03*
X111920000Y-96600000D03*
X112560000Y-96600000D03*
X113200000Y-96600000D03*
X113840000Y-96600000D03*
X114480000Y-96600000D03*
X122320001Y-65000000D03*
X122960001Y-65000000D03*
X123600001Y-65000000D03*
X124240001Y-65000000D03*
X124880001Y-65000000D03*
X125520001Y-65000000D03*
X126160001Y-65000000D03*
X126800001Y-65000000D03*
X127440001Y-65000000D03*
X128080001Y-65000000D03*
X76120000Y-74000000D03*
X76760000Y-74000000D03*
X77400000Y-74000000D03*
X78040000Y-74000000D03*
X78680000Y-74000000D03*
X79320000Y-74000000D03*
X79960000Y-74000000D03*
X80600000Y-74000000D03*
X81240000Y-74000000D03*
X81880000Y-74000000D03*
X131820000Y-96600000D03*
X132460000Y-96600000D03*
X133100000Y-96600000D03*
X133740000Y-96600000D03*
X134380000Y-96600000D03*
X135020000Y-96600000D03*
X135660000Y-96600000D03*
X136300000Y-96600000D03*
X136940000Y-96600000D03*
X137580000Y-96600000D03*
X89720001Y-74000000D03*
X90360001Y-74000000D03*
X91000001Y-74000000D03*
X91640001Y-74000000D03*
X92280001Y-74000000D03*
X92920001Y-74000000D03*
X93560001Y-74000000D03*
X94200001Y-74000000D03*
X94840001Y-74000000D03*
X95480001Y-74000000D03*
X76120000Y-56000000D03*
X76760000Y-56000000D03*
X77400000Y-56000000D03*
X78040000Y-56000000D03*
X78680000Y-56000000D03*
X79320000Y-56000000D03*
X79960000Y-56000000D03*
X80600000Y-56000000D03*
X81240000Y-56000000D03*
X81880000Y-56000000D03*
X122320001Y-96600000D03*
X122960001Y-96600000D03*
X123600001Y-96600000D03*
X124240001Y-96600000D03*
X124880001Y-96600000D03*
X125520001Y-96600000D03*
X126160001Y-96600000D03*
X126800001Y-96600000D03*
X127440001Y-96600000D03*
X128080001Y-96600000D03*
X131820000Y-74000000D03*
X132460000Y-74000000D03*
X133100000Y-74000000D03*
X133740000Y-74000000D03*
X134380000Y-74000000D03*
X135020000Y-74000000D03*
X135660000Y-74000000D03*
X136300000Y-74000000D03*
X136940000Y-74000000D03*
X137580000Y-74000000D03*
X108720000Y-105600000D03*
X109360000Y-105600000D03*
X110000000Y-105600000D03*
X110640000Y-105600000D03*
X111280000Y-105600000D03*
X111920000Y-105600000D03*
X112560000Y-105600000D03*
X113200000Y-105600000D03*
X113840000Y-105600000D03*
X114480000Y-105600000D03*
X122320001Y-87600000D03*
X122960001Y-87600000D03*
X123600001Y-87600000D03*
X124240001Y-87600000D03*
X124880001Y-87600000D03*
X125520001Y-87600000D03*
X126160001Y-87600000D03*
X126800001Y-87600000D03*
X127440001Y-87600000D03*
X128080001Y-87600000D03*
X131820000Y-87600000D03*
X132460000Y-87600000D03*
X133100000Y-87600000D03*
X133740000Y-87600000D03*
X134380000Y-87600000D03*
X135020000Y-87600000D03*
X135660000Y-87600000D03*
X136300000Y-87600000D03*
X136940000Y-87600000D03*
X137580000Y-87600000D03*
X66620000Y-96600000D03*
X67260000Y-96600000D03*
X67900000Y-96600000D03*
X68540000Y-96600000D03*
X69180000Y-96600000D03*
X69820000Y-96600000D03*
X70460000Y-96600000D03*
X71100000Y-96600000D03*
X71740000Y-96600000D03*
X72380000Y-96600000D03*
X89720001Y-105600000D03*
X90360001Y-105600000D03*
X91000001Y-105600000D03*
X91640001Y-105600000D03*
X92280001Y-105600000D03*
X92920001Y-105600000D03*
X93560001Y-105600000D03*
X94200001Y-105600000D03*
X94840001Y-105600000D03*
X95480001Y-105600000D03*
X122320001Y-56000000D03*
X122960001Y-56000000D03*
X123600001Y-56000000D03*
X124240001Y-56000000D03*
X124880001Y-56000000D03*
X125520001Y-56000000D03*
X126160001Y-56000000D03*
X126800001Y-56000000D03*
X127440001Y-56000000D03*
X128080001Y-56000000D03*
X76120000Y-87600000D03*
X76760000Y-87600000D03*
X77400000Y-87600000D03*
X78040000Y-87600000D03*
X78680000Y-87600000D03*
X79320000Y-87600000D03*
X79960000Y-87600000D03*
X80600000Y-87600000D03*
X81240000Y-87600000D03*
X81880000Y-87600000D03*
X141320000Y-56000000D03*
X141960000Y-56000000D03*
X142600000Y-56000000D03*
X143240000Y-56000000D03*
X143880000Y-56000000D03*
X144520000Y-56000000D03*
X145160000Y-56000000D03*
X145800000Y-56000000D03*
X146440000Y-56000000D03*
X147080000Y-56000000D03*
X108720000Y-74000000D03*
X109360000Y-74000000D03*
X110000000Y-74000000D03*
X110640000Y-74000000D03*
X111280000Y-74000000D03*
X111920000Y-74000000D03*
X112560000Y-74000000D03*
X113200000Y-74000000D03*
X113840000Y-74000000D03*
X114480000Y-74000000D03*
X99220000Y-96600000D03*
X99860000Y-96600000D03*
X100500000Y-96600000D03*
X101140000Y-96600000D03*
X101780000Y-96600000D03*
X102420000Y-96600000D03*
X103060000Y-96600000D03*
X103700000Y-96600000D03*
X104340000Y-96600000D03*
X104980000Y-96600000D03*
X76120000Y-96600000D03*
X76760000Y-96600000D03*
X77400000Y-96600000D03*
X78040000Y-96600000D03*
X78680000Y-96600000D03*
X79320000Y-96600000D03*
X79960000Y-96600000D03*
X80600000Y-96600000D03*
X81240000Y-96600000D03*
X81880000Y-96600000D03*
X108720000Y-87600000D03*
X109360000Y-87600000D03*
X110000000Y-87600000D03*
X110640000Y-87600000D03*
X111280000Y-87600000D03*
X111920000Y-87600000D03*
X112560000Y-87600000D03*
X113200000Y-87600000D03*
X113840000Y-87600000D03*
X114480000Y-87600000D03*
X66620000Y-87600000D03*
X67260000Y-87600000D03*
X67900000Y-87600000D03*
X68540000Y-87600000D03*
X69180000Y-87600000D03*
X69820000Y-87600000D03*
X70460000Y-87600000D03*
X71100000Y-87600000D03*
X71740000Y-87600000D03*
X72380000Y-87600000D03*
X141320000Y-105600000D03*
X141960000Y-105600000D03*
X142600000Y-105600000D03*
X143240000Y-105600000D03*
X143880000Y-105600000D03*
X144520000Y-105600000D03*
X145160000Y-105600000D03*
X145800000Y-105600000D03*
X146440000Y-105600000D03*
X147080000Y-105600000D03*
X141320000Y-65000000D03*
X141960000Y-65000000D03*
X142600000Y-65000000D03*
X143240000Y-65000000D03*
X143880000Y-65000000D03*
X144520000Y-65000000D03*
X145160000Y-65000000D03*
X145800000Y-65000000D03*
X146440000Y-65000000D03*
X147080000Y-65000000D03*
X89720001Y-87600000D03*
X90360001Y-87600000D03*
X91000001Y-87600000D03*
X91640001Y-87600000D03*
X92280001Y-87600000D03*
X92920001Y-87600000D03*
X93560001Y-87600000D03*
X94200001Y-87600000D03*
X94840001Y-87600000D03*
X95480001Y-87600000D03*
X57120001Y-65000000D03*
X57760001Y-65000000D03*
X58400001Y-65000000D03*
X59040001Y-65000000D03*
X59680001Y-65000000D03*
X60320001Y-65000000D03*
X60960001Y-65000000D03*
X61600001Y-65000000D03*
X62240001Y-65000000D03*
X62880001Y-65000000D03*
X89720001Y-96600000D03*
X90360001Y-96600000D03*
X91000001Y-96600000D03*
X91640001Y-96600000D03*
X92280001Y-96600000D03*
X92920001Y-96600000D03*
X93560001Y-96600000D03*
X94200001Y-96600000D03*
X94840001Y-96600000D03*
X95480001Y-96600000D03*
X131820000Y-65000000D03*
X132460000Y-65000000D03*
X133100000Y-65000000D03*
X133740000Y-65000000D03*
X134380000Y-65000000D03*
X135020000Y-65000000D03*
X135660000Y-65000000D03*
X136300000Y-65000000D03*
X136940000Y-65000000D03*
X137580000Y-65000000D03*
X57120001Y-56000000D03*
X57760001Y-56000000D03*
X58400001Y-56000000D03*
X59040001Y-56000000D03*
X59680001Y-56000000D03*
X60320001Y-56000000D03*
X60960001Y-56000000D03*
X61600001Y-56000000D03*
X62240001Y-56000000D03*
X62880001Y-56000000D03*
X57120001Y-87600000D03*
X57760001Y-87600000D03*
X58400001Y-87600000D03*
X59040001Y-87600000D03*
X59680001Y-87600000D03*
X60320001Y-87600000D03*
X60960001Y-87600000D03*
X61600001Y-87600000D03*
X62240001Y-87600000D03*
X62880001Y-87600000D03*
X99220000Y-65000000D03*
X99860000Y-65000000D03*
X100500000Y-65000000D03*
X101140000Y-65000000D03*
X101780000Y-65000000D03*
X102420000Y-65000000D03*
X103060000Y-65000000D03*
X103700000Y-65000000D03*
X104340000Y-65000000D03*
X104980000Y-65000000D03*
X131820000Y-56000000D03*
X132460000Y-56000000D03*
X133100000Y-56000000D03*
X133740000Y-56000000D03*
X134380000Y-56000000D03*
X135020000Y-56000000D03*
X135660000Y-56000000D03*
X136300000Y-56000000D03*
X136940000Y-56000000D03*
X137580000Y-56000000D03*
X99220000Y-56000000D03*
X99860000Y-56000000D03*
X100500000Y-56000000D03*
X101140000Y-56000000D03*
X101780000Y-56000000D03*
X102420000Y-56000000D03*
X103060000Y-56000000D03*
X103700000Y-56000000D03*
X104340000Y-56000000D03*
X104980000Y-56000000D03*
X76120000Y-105600000D03*
X76760000Y-105600000D03*
X77400000Y-105600000D03*
X78040000Y-105600000D03*
X78680000Y-105600000D03*
X79320000Y-105600000D03*
X79960000Y-105600000D03*
X80600000Y-105600000D03*
X81240000Y-105600000D03*
X81880000Y-105600000D03*
X108720000Y-56000000D03*
X109360000Y-56000000D03*
X110000000Y-56000000D03*
X110640000Y-56000000D03*
X111280000Y-56000000D03*
X111920000Y-56000000D03*
X112560000Y-56000000D03*
X113200000Y-56000000D03*
X113840000Y-56000000D03*
X114480000Y-56000000D03*
X122320001Y-74000000D03*
X122960001Y-74000000D03*
X123600001Y-74000000D03*
X124240001Y-74000000D03*
X124880001Y-74000000D03*
X125520001Y-74000000D03*
X126160001Y-74000000D03*
X126800001Y-74000000D03*
X127440001Y-74000000D03*
X128080001Y-74000000D03*
X122320001Y-105600000D03*
X122960001Y-105600000D03*
X123600001Y-105600000D03*
X124240001Y-105600000D03*
X124880001Y-105600000D03*
X125520001Y-105600000D03*
X126160001Y-105600000D03*
X126800001Y-105600000D03*
X127440001Y-105600000D03*
X128080001Y-105600000D03*
X66620000Y-65000000D03*
X67260000Y-65000000D03*
X67900000Y-65000000D03*
X68540000Y-65000000D03*
X69180000Y-65000000D03*
X69820000Y-65000000D03*
X70460000Y-65000000D03*
X71100000Y-65000000D03*
X71740000Y-65000000D03*
X72380000Y-65000000D03*
X57120001Y-74000000D03*
X57760001Y-74000000D03*
X58400001Y-74000000D03*
X59040001Y-74000000D03*
X59680001Y-74000000D03*
X60320001Y-74000000D03*
X60960001Y-74000000D03*
X61600001Y-74000000D03*
X62240001Y-74000000D03*
X62880001Y-74000000D03*
X141320000Y-87600000D03*
X141960000Y-87600000D03*
X142600000Y-87600000D03*
X143240000Y-87600000D03*
X143880000Y-87600000D03*
X144520000Y-87600000D03*
X145160000Y-87600000D03*
X145800000Y-87600000D03*
X146440000Y-87600000D03*
X147080000Y-87600000D03*
X89720001Y-56000000D03*
X90360001Y-56000000D03*
X91000001Y-56000000D03*
X91640001Y-56000000D03*
X92280001Y-56000000D03*
X92920001Y-56000000D03*
X93560001Y-56000000D03*
X94200001Y-56000000D03*
X94840001Y-56000000D03*
X95480001Y-56000000D03*
X57120001Y-105600000D03*
X57760001Y-105600000D03*
X58400001Y-105600000D03*
X59040001Y-105600000D03*
X59680001Y-105600000D03*
X60320001Y-105600000D03*
X60960001Y-105600000D03*
X61600001Y-105600000D03*
X62240001Y-105600000D03*
X62880001Y-105600000D03*
X66620000Y-56000000D03*
X67260000Y-56000000D03*
X67900000Y-56000000D03*
X68540000Y-56000000D03*
X69180000Y-56000000D03*
X69820000Y-56000000D03*
X70460000Y-56000000D03*
X71100000Y-56000000D03*
X71740000Y-56000000D03*
X72380000Y-56000000D03*
X131820000Y-105600000D03*
X132460000Y-105600000D03*
X133100000Y-105600000D03*
X133740000Y-105600000D03*
X134380000Y-105600000D03*
X135020000Y-105600000D03*
X135660000Y-105600000D03*
X136300000Y-105600000D03*
X136940000Y-105600000D03*
X137580000Y-105600000D03*
X99220000Y-105600000D03*
X99860000Y-105600000D03*
X100500000Y-105600000D03*
X101140000Y-105600000D03*
X101780000Y-105600000D03*
X102420000Y-105600000D03*
X103060000Y-105600000D03*
X103700000Y-105600000D03*
X104340000Y-105600000D03*
X104980000Y-105600000D03*
X57120001Y-96600000D03*
X57760001Y-96600000D03*
X58400001Y-96600000D03*
X59040001Y-96600000D03*
X59680001Y-96600000D03*
X60320001Y-96600000D03*
X60960001Y-96600000D03*
X61600001Y-96600000D03*
X62240001Y-96600000D03*
X62880001Y-96600000D03*
X99220000Y-74000000D03*
X99860000Y-74000000D03*
X100500000Y-74000000D03*
X101140000Y-74000000D03*
X101780000Y-74000000D03*
X102420000Y-74000000D03*
X103060000Y-74000000D03*
X103700000Y-74000000D03*
X104340000Y-74000000D03*
X104980000Y-74000000D03*
X66620000Y-74000000D03*
X67260000Y-74000000D03*
X67900000Y-74000000D03*
X68540000Y-74000000D03*
X69180000Y-74000000D03*
X69820000Y-74000000D03*
X70460000Y-74000000D03*
X71100000Y-74000000D03*
X71740000Y-74000000D03*
X72380000Y-74000000D03*
X108720000Y-65000000D03*
X109360000Y-65000000D03*
X110000000Y-65000000D03*
X110640000Y-65000000D03*
X111280000Y-65000000D03*
X111920000Y-65000000D03*
X112560000Y-65000000D03*
X113200000Y-65000000D03*
X113840000Y-65000000D03*
X114480000Y-65000000D03*
D13*
X109541403Y-71168881D02*
X108720000Y-71990284D01*
X76120000Y-94590284D02*
X76120000Y-96600000D01*
X90541404Y-71168881D02*
X89720001Y-71990284D01*
X123141404Y-71168881D02*
X122320001Y-71990284D01*
X131820000Y-53990284D02*
X131820000Y-56000000D01*
X122320001Y-71990284D02*
X122320001Y-74000000D01*
X57941404Y-102768881D02*
X57120001Y-103590284D01*
X76941403Y-102768881D02*
X76120000Y-103590284D01*
X67441403Y-102768881D02*
X66620000Y-103590284D01*
X122320001Y-62990284D02*
X122320001Y-65000000D01*
X131820000Y-103590284D02*
X131820000Y-105600000D01*
X141320000Y-53990284D02*
X141320000Y-56000000D01*
X109541403Y-93768881D02*
X108720000Y-94590284D01*
X99220000Y-62990284D02*
X99220000Y-65000000D01*
X76941403Y-93768881D02*
X76120000Y-94590284D01*
X122320001Y-85590284D02*
X122320001Y-87600000D01*
X123141404Y-93768881D02*
X122320001Y-94590284D01*
X142141403Y-53168881D02*
X141320000Y-53990284D01*
X76120000Y-62990284D02*
X76120000Y-65000000D01*
X141320000Y-103590284D02*
X141320000Y-105600000D01*
X141320000Y-94590284D02*
X141320000Y-96600000D01*
X100041403Y-62168881D02*
X99220000Y-62990284D01*
X109541403Y-84768881D02*
X108720000Y-85590284D01*
X66620000Y-94590284D02*
X66620000Y-96600000D01*
X123141404Y-102768881D02*
X122320001Y-103590284D01*
X89720001Y-71990284D02*
X89720001Y-74000000D01*
X142141403Y-62168881D02*
X141320000Y-62990284D01*
X100041403Y-102768881D02*
X99220000Y-103590284D01*
X100041403Y-53168881D02*
X99220000Y-53990284D01*
X89720001Y-85590284D02*
X89720001Y-87600000D01*
X99220000Y-53990284D02*
X99220000Y-56000000D01*
X123141404Y-53168881D02*
X122320001Y-53990284D01*
X57120001Y-62990284D02*
X57120001Y-65000000D01*
X66620000Y-103590284D02*
X66620000Y-105600000D01*
X57941404Y-62168881D02*
X57120001Y-62990284D01*
X131820000Y-71990284D02*
X131820000Y-74000000D01*
X108720000Y-71990284D02*
X108720000Y-74000000D01*
X89720001Y-53990284D02*
X89720001Y-56000000D01*
X76120000Y-85590284D02*
X76120000Y-87600000D01*
X132641403Y-102768881D02*
X131820000Y-103590284D01*
X57941404Y-93768881D02*
X57120001Y-94590284D01*
X122320001Y-53990284D02*
X122320001Y-56000000D01*
X89720001Y-103590284D02*
X89720001Y-105600000D01*
X99220000Y-85590284D02*
X99220000Y-87600000D01*
X57941404Y-84768881D02*
X57120001Y-85590284D01*
X123141404Y-84768881D02*
X122320001Y-85590284D01*
X100041403Y-93768881D02*
X99220000Y-94590284D01*
X99220000Y-103590284D02*
X99220000Y-105600000D01*
X90541404Y-84768881D02*
X89720001Y-85590284D01*
X57120001Y-71990284D02*
X57120001Y-74000000D01*
X57120001Y-53990284D02*
X57120001Y-56000000D01*
X67441403Y-71168881D02*
X66620000Y-71990284D01*
X109541403Y-53168881D02*
X108720000Y-53990284D01*
X142141403Y-84768881D02*
X141320000Y-85590284D01*
X131820000Y-62990284D02*
X131820000Y-65000000D01*
X132641403Y-93768881D02*
X131820000Y-94590284D01*
X123141404Y-62168881D02*
X122320001Y-62990284D01*
X132641403Y-84768881D02*
X131820000Y-85590284D01*
X108720000Y-103590284D02*
X108720000Y-105600000D01*
X142141403Y-102768881D02*
X141320000Y-103590284D01*
X90541404Y-93768881D02*
X89720001Y-94590284D01*
X76120000Y-71990284D02*
X76120000Y-74000000D01*
X99220000Y-94590284D02*
X99220000Y-96600000D01*
X57120001Y-94590284D02*
X57120001Y-96600000D01*
X141320000Y-62990284D02*
X141320000Y-65000000D01*
X122320001Y-103590284D02*
X122320001Y-105600000D01*
X90541404Y-53168881D02*
X89720001Y-53990284D01*
X57941404Y-71168881D02*
X57120001Y-71990284D01*
X122320001Y-94590284D02*
X122320001Y-96600000D01*
X131820000Y-94590284D02*
X131820000Y-96600000D01*
X90541404Y-62168881D02*
X89720001Y-62990284D01*
X67441403Y-84768881D02*
X66620000Y-85590284D01*
X132641403Y-53168881D02*
X131820000Y-53990284D01*
X66620000Y-53990284D02*
X66620000Y-56000000D01*
X57941404Y-53168881D02*
X57120001Y-53990284D01*
X90541404Y-102768881D02*
X89720001Y-103590284D01*
X99220000Y-71990284D02*
X99220000Y-74000000D01*
X142141403Y-93768881D02*
X141320000Y-94590284D01*
X141320000Y-85590284D02*
X141320000Y-87600000D01*
X76120000Y-103590284D02*
X76120000Y-105600000D01*
X67441403Y-53168881D02*
X66620000Y-53990284D01*
X57120001Y-103590284D02*
X57120001Y-105600000D01*
X76941403Y-84768881D02*
X76120000Y-85590284D01*
X142141403Y-71168881D02*
X141320000Y-71990284D01*
X100041403Y-84768881D02*
X99220000Y-85590284D01*
X108720000Y-85590284D02*
X108720000Y-87600000D01*
X109541403Y-102768881D02*
X108720000Y-103590284D01*
X67441403Y-93768881D02*
X66620000Y-94590284D01*
X108720000Y-94590284D02*
X108720000Y-96600000D01*
X76941403Y-71168881D02*
X76120000Y-71990284D01*
X66620000Y-62990284D02*
X66620000Y-65000000D01*
X66620000Y-71990284D02*
X66620000Y-74000000D01*
X108720000Y-53990284D02*
X108720000Y-56000000D01*
X76941403Y-62168881D02*
X76120000Y-62990284D01*
X108720000Y-62990284D02*
X108720000Y-65000000D01*
X76120000Y-53990284D02*
X76120000Y-56000000D01*
X57120001Y-85590284D02*
X57120001Y-87600000D01*
X141320000Y-71990284D02*
X141320000Y-74000000D01*
X132641403Y-62168881D02*
X131820000Y-62990284D01*
X131820000Y-85590284D02*
X131820000Y-87600000D01*
X132641403Y-71168881D02*
X131820000Y-71990284D01*
X100041403Y-71168881D02*
X99220000Y-71990284D01*
X66620000Y-85590284D02*
X66620000Y-87600000D01*
X89720001Y-62990284D02*
X89720001Y-65000000D01*
X109541403Y-62168881D02*
X108720000Y-62990284D01*
X76941403Y-53168881D02*
X76120000Y-53990284D01*
X67441403Y-62168881D02*
X66620000Y-62990284D01*
X89720001Y-94590284D02*
X89720001Y-96600000D01*
X99860000Y-95030000D02*
X99860000Y-96600000D01*
X132460000Y-95030000D02*
X132460000Y-96600000D01*
X100659928Y-54017909D02*
X100272090Y-54017909D01*
X133259928Y-63017909D02*
X132872090Y-63017909D01*
X58172091Y-103617909D02*
X57760001Y-104030000D01*
X109360000Y-95030000D02*
X109360000Y-96600000D01*
X57760001Y-95030000D02*
X57760001Y-96600000D01*
X141960000Y-104030000D02*
X141960000Y-105600000D01*
X90772091Y-54017909D02*
X90360001Y-54430000D01*
X76760000Y-95030000D02*
X76760000Y-96600000D01*
X57760001Y-86030000D02*
X57760001Y-87600000D01*
X68059928Y-72017909D02*
X67672090Y-72017909D01*
X67672090Y-103617909D02*
X67260000Y-104030000D01*
X90772091Y-63017909D02*
X90360001Y-63430000D01*
X67260000Y-72430000D02*
X67260000Y-74000000D01*
X76760000Y-86030000D02*
X76760000Y-87600000D01*
X77559928Y-103617909D02*
X77172090Y-103617909D01*
X123372091Y-94617909D02*
X122960001Y-95030000D01*
X123759929Y-63017909D02*
X123372091Y-63017909D01*
X100659928Y-72017909D02*
X100272090Y-72017909D01*
X90772091Y-103617909D02*
X90360001Y-104030000D01*
X141960000Y-72430000D02*
X141960000Y-74000000D01*
X90360001Y-72430000D02*
X90360001Y-74000000D01*
X68059928Y-54017909D02*
X67672090Y-54017909D01*
X77172090Y-85617909D02*
X76760000Y-86030000D01*
X142372090Y-63017909D02*
X141960000Y-63430000D01*
X91159929Y-94617909D02*
X90772091Y-94617909D01*
X142759928Y-85617909D02*
X142372090Y-85617909D01*
X132460000Y-86030000D02*
X132460000Y-87600000D01*
X122960001Y-54430000D02*
X122960001Y-56000000D01*
X99860000Y-104030000D02*
X99860000Y-105600000D01*
X100272090Y-54017909D02*
X99860000Y-54430000D01*
X91159929Y-85617909D02*
X90772091Y-85617909D01*
X58172091Y-72017909D02*
X57760001Y-72430000D01*
X58559929Y-103617909D02*
X58172091Y-103617909D01*
X67260000Y-95030000D02*
X67260000Y-96600000D01*
X100659928Y-85617909D02*
X100272090Y-85617909D01*
X122960001Y-104030000D02*
X122960001Y-105600000D01*
X123759929Y-54017909D02*
X123372091Y-54017909D01*
X123372091Y-72017909D02*
X122960001Y-72430000D01*
X68059928Y-94617909D02*
X67672090Y-94617909D01*
X77559928Y-54017909D02*
X77172090Y-54017909D01*
X109360000Y-104030000D02*
X109360000Y-105600000D01*
X58172091Y-63017909D02*
X57760001Y-63430000D01*
X109360000Y-63430000D02*
X109360000Y-65000000D01*
X90772091Y-94617909D02*
X90360001Y-95030000D01*
X100272090Y-63017909D02*
X99860000Y-63430000D01*
X109772090Y-72017909D02*
X109360000Y-72430000D01*
X76760000Y-104030000D02*
X76760000Y-105600000D01*
X110159928Y-54017909D02*
X109772090Y-54017909D01*
X109360000Y-86030000D02*
X109360000Y-87600000D01*
X133259928Y-85617909D02*
X132872090Y-85617909D01*
X91159929Y-63017909D02*
X90772091Y-63017909D01*
X109360000Y-72430000D02*
X109360000Y-74000000D01*
X109772090Y-63017909D02*
X109360000Y-63430000D01*
X122960001Y-86030000D02*
X122960001Y-87600000D01*
X91159929Y-54017909D02*
X90772091Y-54017909D01*
X110159928Y-72017909D02*
X109772090Y-72017909D01*
X133259928Y-72017909D02*
X132872090Y-72017909D01*
X90360001Y-104030000D02*
X90360001Y-105600000D01*
X122960001Y-72430000D02*
X122960001Y-74000000D01*
X133259928Y-94617909D02*
X132872090Y-94617909D01*
X122960001Y-63430000D02*
X122960001Y-65000000D01*
X90360001Y-86030000D02*
X90360001Y-87600000D01*
X142759928Y-54017909D02*
X142372090Y-54017909D01*
X132460000Y-104030000D02*
X132460000Y-105600000D01*
X58559929Y-72017909D02*
X58172091Y-72017909D01*
X76760000Y-72430000D02*
X76760000Y-74000000D01*
X123372091Y-103617909D02*
X122960001Y-104030000D01*
X67260000Y-54430000D02*
X67260000Y-56000000D01*
X77559928Y-63017909D02*
X77172090Y-63017909D01*
X76760000Y-63430000D02*
X76760000Y-65000000D01*
X58559929Y-85617909D02*
X58172091Y-85617909D01*
X67260000Y-104030000D02*
X67260000Y-105600000D01*
X100272090Y-72017909D02*
X99860000Y-72430000D01*
X99860000Y-54430000D02*
X99860000Y-56000000D01*
X132872090Y-94617909D02*
X132460000Y-95030000D01*
X77172090Y-54017909D02*
X76760000Y-54430000D01*
X68059928Y-85617909D02*
X67672090Y-85617909D01*
X58559929Y-94617909D02*
X58172091Y-94617909D01*
X90360001Y-54430000D02*
X90360001Y-56000000D01*
X142372090Y-54017909D02*
X141960000Y-54430000D01*
X77172090Y-94617909D02*
X76760000Y-95030000D01*
X123759929Y-85617909D02*
X123372091Y-85617909D01*
X68059928Y-63017909D02*
X67672090Y-63017909D01*
X68059928Y-103617909D02*
X67672090Y-103617909D01*
X67672090Y-63017909D02*
X67260000Y-63430000D01*
X90772091Y-85617909D02*
X90360001Y-86030000D01*
X123372091Y-85617909D02*
X122960001Y-86030000D01*
X67672090Y-54017909D02*
X67260000Y-54430000D01*
X77559928Y-72017909D02*
X77172090Y-72017909D01*
X123372091Y-63017909D02*
X122960001Y-63430000D01*
X100272090Y-85617909D02*
X99860000Y-86030000D01*
X123759929Y-72017909D02*
X123372091Y-72017909D01*
X100272090Y-103617909D02*
X99860000Y-104030000D01*
X58559929Y-63017909D02*
X58172091Y-63017909D01*
X91159929Y-103617909D02*
X90772091Y-103617909D01*
X90360001Y-95030000D02*
X90360001Y-96600000D01*
X132872090Y-103617909D02*
X132460000Y-104030000D01*
X132460000Y-72430000D02*
X132460000Y-74000000D01*
X57760001Y-72430000D02*
X57760001Y-74000000D01*
X109772090Y-54017909D02*
X109360000Y-54430000D01*
X67260000Y-86030000D02*
X67260000Y-87600000D01*
X109772090Y-94617909D02*
X109360000Y-95030000D01*
X123759929Y-94617909D02*
X123372091Y-94617909D01*
X110159928Y-85617909D02*
X109772090Y-85617909D01*
X132460000Y-63430000D02*
X132460000Y-65000000D01*
X132872090Y-72017909D02*
X132460000Y-72430000D01*
X132460000Y-54430000D02*
X132460000Y-56000000D01*
X123372091Y-54017909D02*
X122960001Y-54430000D01*
X58172091Y-85617909D02*
X57760001Y-86030000D01*
X142759928Y-72017909D02*
X142372090Y-72017909D01*
X141960000Y-95030000D02*
X141960000Y-96600000D01*
X110159928Y-103617909D02*
X109772090Y-103617909D01*
X58172091Y-94617909D02*
X57760001Y-95030000D01*
X99860000Y-72430000D02*
X99860000Y-74000000D01*
X133259928Y-54017909D02*
X132872090Y-54017909D01*
X132872090Y-54017909D02*
X132460000Y-54430000D01*
X99860000Y-63430000D02*
X99860000Y-65000000D01*
X123759929Y-103617909D02*
X123372091Y-103617909D01*
X99860000Y-86030000D02*
X99860000Y-87600000D01*
X100659928Y-94617909D02*
X100272090Y-94617909D01*
X77172090Y-72017909D02*
X76760000Y-72430000D01*
X142372090Y-94617909D02*
X141960000Y-95030000D01*
X109360000Y-54430000D02*
X109360000Y-56000000D01*
X142372090Y-85617909D02*
X141960000Y-86030000D01*
X141960000Y-86030000D02*
X141960000Y-87600000D01*
X57760001Y-63430000D02*
X57760001Y-65000000D01*
X109772090Y-103617909D02*
X109360000Y-104030000D01*
X67260000Y-63430000D02*
X67260000Y-65000000D01*
X141960000Y-54430000D02*
X141960000Y-56000000D01*
X77559928Y-85617909D02*
X77172090Y-85617909D01*
X109772090Y-85617909D02*
X109360000Y-86030000D01*
X77559928Y-94617909D02*
X77172090Y-94617909D01*
X110159928Y-63017909D02*
X109772090Y-63017909D01*
X100272090Y-94617909D02*
X99860000Y-95030000D01*
X142372090Y-72017909D02*
X141960000Y-72430000D01*
X142372090Y-103617909D02*
X141960000Y-104030000D01*
X90360001Y-63430000D02*
X90360001Y-65000000D01*
X57760001Y-54430000D02*
X57760001Y-56000000D01*
X100659928Y-63017909D02*
X100272090Y-63017909D01*
X67672090Y-85617909D02*
X67260000Y-86030000D01*
X141960000Y-63430000D02*
X141960000Y-65000000D01*
X133259928Y-103617909D02*
X132872090Y-103617909D01*
X76760000Y-54430000D02*
X76760000Y-56000000D01*
X67672090Y-94617909D02*
X67260000Y-95030000D01*
X142759928Y-94617909D02*
X142372090Y-94617909D01*
X91159929Y-72017909D02*
X90772091Y-72017909D01*
X142759928Y-63017909D02*
X142372090Y-63017909D01*
X58559929Y-54017909D02*
X58172091Y-54017909D01*
X132872090Y-85617909D02*
X132460000Y-86030000D01*
X77172090Y-103617909D02*
X76760000Y-104030000D01*
X100659928Y-103617909D02*
X100272090Y-103617909D01*
X90772091Y-72017909D02*
X90360001Y-72430000D01*
X58172091Y-54017909D02*
X57760001Y-54430000D01*
X57760001Y-104030000D02*
X57760001Y-105600000D01*
X132872090Y-63017909D02*
X132460000Y-63430000D01*
X77172090Y-63017909D02*
X76760000Y-63430000D01*
X122960001Y-95030000D02*
X122960001Y-96600000D01*
X110159928Y-94617909D02*
X109772090Y-94617909D01*
X67672090Y-72017909D02*
X67260000Y-72430000D01*
X142759928Y-103617909D02*
X142372090Y-103617909D01*
X67900000Y-57524000D02*
X67900000Y-56000000D01*
X100500000Y-107124000D02*
X100500000Y-105600000D01*
X108100000Y-106682268D02*
X108270787Y-107124000D01*
X98600000Y-66082268D02*
X98770787Y-66524000D01*
X56500001Y-97682268D02*
X56670788Y-98124000D01*
X121870788Y-98124000D02*
X123600001Y-98124000D01*
X100500000Y-98124000D02*
X100500000Y-96600000D01*
X89270788Y-107124000D02*
X91000001Y-107124000D01*
X75670787Y-98124000D02*
X77400000Y-98124000D01*
X98600000Y-88682268D02*
X98770787Y-89124000D01*
X140700000Y-66082268D02*
X140870787Y-66524000D01*
X110000000Y-66524000D02*
X110000000Y-65000000D01*
X77400000Y-66524000D02*
X77400000Y-65000000D01*
X75500000Y-88682268D02*
X75670787Y-89124000D01*
X66000000Y-57082268D02*
X66170787Y-57524000D01*
X108100000Y-75082268D02*
X108270787Y-75524000D01*
X56500001Y-75082268D02*
X56670788Y-75524000D01*
X58400001Y-75524000D02*
X58400001Y-74000000D01*
X89100001Y-106682268D02*
X89270788Y-107124000D01*
X133100000Y-57524000D02*
X133100000Y-56000000D01*
X121700001Y-106682268D02*
X121870788Y-107124000D01*
X140870787Y-89124000D02*
X142600000Y-89124000D01*
X100500000Y-89124000D02*
X100500000Y-87600000D01*
X121700001Y-97682268D02*
X121870788Y-98124000D01*
X108100000Y-97682268D02*
X108270787Y-98124000D01*
X121870788Y-57524000D02*
X123600001Y-57524000D01*
X89100001Y-88682268D02*
X89270788Y-89124000D01*
X131370787Y-75524000D02*
X133100000Y-75524000D01*
X142600000Y-57524000D02*
X142600000Y-56000000D01*
X58400001Y-107124000D02*
X58400001Y-105600000D01*
X75500000Y-57082268D02*
X75670787Y-57524000D01*
X89100001Y-75082268D02*
X89270788Y-75524000D01*
X131370787Y-66524000D02*
X133100000Y-66524000D01*
X123600001Y-98124000D02*
X123600001Y-96600000D01*
X108270787Y-75524000D02*
X110000000Y-75524000D01*
X140870787Y-98124000D02*
X142600000Y-98124000D01*
X56500001Y-88682268D02*
X56670788Y-89124000D01*
X89270788Y-57524000D02*
X91000001Y-57524000D01*
X75500000Y-75082268D02*
X75670787Y-75524000D01*
X77400000Y-89124000D02*
X77400000Y-87600000D01*
X123600001Y-107124000D02*
X123600001Y-105600000D01*
X121870788Y-66524000D02*
X123600001Y-66524000D01*
X66000000Y-75082268D02*
X66170787Y-75524000D01*
X140870787Y-57524000D02*
X142600000Y-57524000D01*
X108270787Y-89124000D02*
X110000000Y-89124000D01*
X66000000Y-88682268D02*
X66170787Y-89124000D01*
X91000001Y-107124000D02*
X91000001Y-105600000D01*
X133100000Y-89124000D02*
X133100000Y-87600000D01*
X66170787Y-75524000D02*
X67900000Y-75524000D01*
X142600000Y-75524000D02*
X142600000Y-74000000D01*
X66000000Y-106682268D02*
X66170787Y-107124000D01*
X77400000Y-107124000D02*
X77400000Y-105600000D01*
X142600000Y-66524000D02*
X142600000Y-65000000D01*
X108270787Y-66524000D02*
X110000000Y-66524000D01*
X98770787Y-107124000D02*
X100500000Y-107124000D01*
X98770787Y-75524000D02*
X100500000Y-75524000D01*
X140700000Y-75082268D02*
X140870787Y-75524000D01*
X77400000Y-98124000D02*
X77400000Y-96600000D01*
X77400000Y-75524000D02*
X77400000Y-74000000D01*
X131200000Y-57082268D02*
X131370787Y-57524000D01*
X66170787Y-107124000D02*
X67900000Y-107124000D01*
X56500001Y-57082268D02*
X56670788Y-57524000D01*
X75500000Y-106682268D02*
X75670787Y-107124000D01*
X66170787Y-98124000D02*
X67900000Y-98124000D01*
X58400001Y-66524000D02*
X58400001Y-65000000D01*
X110000000Y-107124000D02*
X110000000Y-105600000D01*
X142600000Y-98124000D02*
X142600000Y-96600000D01*
X77400000Y-57524000D02*
X77400000Y-56000000D01*
X75670787Y-89124000D02*
X77400000Y-89124000D01*
X66170787Y-66524000D02*
X67900000Y-66524000D01*
X131200000Y-66082268D02*
X131370787Y-66524000D01*
X75670787Y-57524000D02*
X77400000Y-57524000D01*
X100500000Y-75524000D02*
X100500000Y-74000000D01*
X56500001Y-66082268D02*
X56670788Y-66524000D01*
X123600001Y-57524000D02*
X123600001Y-56000000D01*
X67900000Y-75524000D02*
X67900000Y-74000000D01*
X100500000Y-57524000D02*
X100500000Y-56000000D01*
X56670788Y-89124000D02*
X58400001Y-89124000D01*
X91000001Y-98124000D02*
X91000001Y-96600000D01*
X108100000Y-88682268D02*
X108270787Y-89124000D01*
X108270787Y-107124000D02*
X110000000Y-107124000D01*
X131200000Y-88682268D02*
X131370787Y-89124000D01*
X89270788Y-75524000D02*
X91000001Y-75524000D01*
X140870787Y-107124000D02*
X142600000Y-107124000D01*
X133100000Y-75524000D02*
X133100000Y-74000000D01*
X121700001Y-88682268D02*
X121870788Y-89124000D01*
X121700001Y-66082268D02*
X121870788Y-66524000D01*
X58400001Y-57524000D02*
X58400001Y-56000000D01*
X56670788Y-57524000D02*
X58400001Y-57524000D01*
X110000000Y-75524000D02*
X110000000Y-74000000D01*
X121870788Y-75524000D02*
X123600001Y-75524000D01*
X89100001Y-66082268D02*
X89270788Y-66524000D01*
X75670787Y-66524000D02*
X77400000Y-66524000D01*
X66170787Y-57524000D02*
X67900000Y-57524000D01*
X121700001Y-57082268D02*
X121870788Y-57524000D01*
X131200000Y-106682268D02*
X131370787Y-107124000D01*
X91000001Y-57524000D02*
X91000001Y-56000000D01*
X67900000Y-66524000D02*
X67900000Y-65000000D01*
X98600000Y-75082268D02*
X98770787Y-75524000D01*
X56670788Y-75524000D02*
X58400001Y-75524000D01*
X89100001Y-57082268D02*
X89270788Y-57524000D01*
X56500001Y-106682268D02*
X56670788Y-107124000D01*
X56670788Y-98124000D02*
X58400001Y-98124000D01*
X67900000Y-107124000D02*
X67900000Y-105600000D01*
X123600001Y-89124000D02*
X123600001Y-87600000D01*
X110000000Y-98124000D02*
X110000000Y-96600000D01*
X131200000Y-75082268D02*
X131370787Y-75524000D01*
X75500000Y-66082268D02*
X75670787Y-66524000D01*
X66000000Y-66082268D02*
X66170787Y-66524000D01*
X91000001Y-89124000D02*
X91000001Y-87600000D01*
X66170787Y-89124000D02*
X67900000Y-89124000D01*
X142600000Y-89124000D02*
X142600000Y-87600000D01*
X91000001Y-66524000D02*
X91000001Y-65000000D01*
X56670788Y-66524000D02*
X58400001Y-66524000D01*
X140870787Y-75524000D02*
X142600000Y-75524000D01*
X108100000Y-66082268D02*
X108270787Y-66524000D01*
X140700000Y-97682268D02*
X140870787Y-98124000D01*
X58400001Y-89124000D02*
X58400001Y-87600000D01*
X131370787Y-57524000D02*
X133100000Y-57524000D01*
X121870788Y-89124000D02*
X123600001Y-89124000D01*
X140700000Y-57082268D02*
X140870787Y-57524000D01*
X66000000Y-97682268D02*
X66170787Y-98124000D01*
X56670788Y-107124000D02*
X58400001Y-107124000D01*
X140700000Y-106682268D02*
X140870787Y-107124000D01*
X98770787Y-89124000D02*
X100500000Y-89124000D01*
X123600001Y-75524000D02*
X123600001Y-74000000D01*
X89100001Y-97682268D02*
X89270788Y-98124000D01*
X140700000Y-88682268D02*
X140870787Y-89124000D01*
X100500000Y-66524000D02*
X100500000Y-65000000D01*
X67900000Y-98124000D02*
X67900000Y-96600000D01*
X89270788Y-98124000D02*
X91000001Y-98124000D01*
X67900000Y-89124000D02*
X67900000Y-87600000D01*
X98600000Y-57082268D02*
X98770787Y-57524000D01*
X91000001Y-75524000D02*
X91000001Y-74000000D01*
X98600000Y-106682268D02*
X98770787Y-107124000D01*
X98770787Y-57524000D02*
X100500000Y-57524000D01*
X89270788Y-66524000D02*
X91000001Y-66524000D01*
X131370787Y-98124000D02*
X133100000Y-98124000D01*
X131370787Y-107124000D02*
X133100000Y-107124000D01*
X75500000Y-97682268D02*
X75670787Y-98124000D01*
X108100000Y-57082268D02*
X108270787Y-57524000D01*
X121870788Y-107124000D02*
X123600001Y-107124000D01*
X108270787Y-57524000D02*
X110000000Y-57524000D01*
X108270787Y-98124000D02*
X110000000Y-98124000D01*
X89270788Y-89124000D02*
X91000001Y-89124000D01*
X133100000Y-107124000D02*
X133100000Y-105600000D01*
X131200000Y-97682268D02*
X131370787Y-98124000D01*
X98770787Y-66524000D02*
X100500000Y-66524000D01*
X133100000Y-66524000D02*
X133100000Y-65000000D01*
X58400001Y-98124000D02*
X58400001Y-96600000D01*
X75670787Y-107124000D02*
X77400000Y-107124000D01*
X133100000Y-98124000D02*
X133100000Y-96600000D01*
X110000000Y-89124000D02*
X110000000Y-87600000D01*
X140870787Y-66524000D02*
X142600000Y-66524000D01*
X142600000Y-107124000D02*
X142600000Y-105600000D01*
X75670787Y-75524000D02*
X77400000Y-75524000D01*
X110000000Y-57524000D02*
X110000000Y-56000000D01*
X123600001Y-66524000D02*
X123600001Y-65000000D01*
X121700001Y-75082268D02*
X121870788Y-75524000D01*
X98600000Y-97682268D02*
X98770787Y-98124000D01*
X131370787Y-89124000D02*
X133100000Y-89124000D01*
X98770787Y-98124000D02*
X100500000Y-98124000D01*
X68540000Y-75982090D02*
X68540000Y-74000000D01*
X110159928Y-75982090D02*
X110640000Y-75982090D01*
X124240001Y-89582090D02*
X124240001Y-87600000D01*
X101140000Y-66982090D02*
X101140000Y-65000000D01*
X110640000Y-107582090D02*
X110640000Y-105600000D01*
X133259928Y-107582090D02*
X133740000Y-107582090D01*
X142759928Y-57982090D02*
X143240000Y-57982090D01*
X100659928Y-75982090D02*
X101140000Y-75982090D01*
X124240001Y-98582090D02*
X124240001Y-96600000D01*
X59040001Y-75982090D02*
X59040001Y-74000000D01*
X123759929Y-57982090D02*
X124240001Y-57982090D01*
X101140000Y-57982090D02*
X101140000Y-56000000D01*
X59040001Y-107582090D02*
X59040001Y-105600000D01*
X91640001Y-66982090D02*
X91640001Y-65000000D01*
X101140000Y-107582090D02*
X101140000Y-105600000D01*
X58559929Y-66982090D02*
X59040001Y-66982090D01*
X133259928Y-89582090D02*
X133740000Y-89582090D01*
X68059928Y-107582090D02*
X68540000Y-107582090D01*
X100659928Y-89582090D02*
X101140000Y-89582090D01*
X59040001Y-57982090D02*
X59040001Y-56000000D01*
X143240000Y-75982090D02*
X143240000Y-74000000D01*
X58559929Y-89582090D02*
X59040001Y-89582090D01*
X110640000Y-89582090D02*
X110640000Y-87600000D01*
X100659928Y-107582090D02*
X101140000Y-107582090D01*
X142759928Y-98582090D02*
X143240000Y-98582090D01*
X77559928Y-89582090D02*
X78040000Y-89582090D01*
X100659928Y-57982090D02*
X101140000Y-57982090D01*
X110159928Y-57982090D02*
X110640000Y-57982090D01*
X68059928Y-98582090D02*
X68540000Y-98582090D01*
X133740000Y-89582090D02*
X133740000Y-87600000D01*
X142759928Y-66982090D02*
X143240000Y-66982090D01*
X91159929Y-107582090D02*
X91640001Y-107582090D01*
X68540000Y-107582090D02*
X68540000Y-105600000D01*
X142759928Y-107582090D02*
X143240000Y-107582090D01*
X58559929Y-57982090D02*
X59040001Y-57982090D01*
X143240000Y-66982090D02*
X143240000Y-65000000D01*
X123759929Y-89582090D02*
X124240001Y-89582090D01*
X143240000Y-57982090D02*
X143240000Y-56000000D01*
X78040000Y-66982090D02*
X78040000Y-65000000D01*
X133740000Y-66982090D02*
X133740000Y-65000000D01*
X101140000Y-89582090D02*
X101140000Y-87600000D01*
X143240000Y-107582090D02*
X143240000Y-105600000D01*
X77559928Y-57982090D02*
X78040000Y-57982090D01*
X110159928Y-89582090D02*
X110640000Y-89582090D01*
X110640000Y-75982090D02*
X110640000Y-74000000D01*
X78040000Y-57982090D02*
X78040000Y-56000000D01*
X123759929Y-75982090D02*
X124240001Y-75982090D01*
X91640001Y-98582090D02*
X91640001Y-96600000D01*
X124240001Y-66982090D02*
X124240001Y-65000000D01*
X78040000Y-98582090D02*
X78040000Y-96600000D01*
X91159929Y-89582090D02*
X91640001Y-89582090D01*
X77559928Y-75982090D02*
X78040000Y-75982090D01*
X100659928Y-66982090D02*
X101140000Y-66982090D01*
X133259928Y-66982090D02*
X133740000Y-66982090D01*
X58559929Y-107582090D02*
X59040001Y-107582090D01*
X110159928Y-66982090D02*
X110640000Y-66982090D01*
X68059928Y-75982090D02*
X68540000Y-75982090D01*
X59040001Y-66982090D02*
X59040001Y-65000000D01*
X133259928Y-75982090D02*
X133740000Y-75982090D01*
X110159928Y-107582090D02*
X110640000Y-107582090D01*
X133740000Y-75982090D02*
X133740000Y-74000000D01*
X101140000Y-98582090D02*
X101140000Y-96600000D01*
X91159929Y-98582090D02*
X91640001Y-98582090D01*
X78040000Y-107582090D02*
X78040000Y-105600000D01*
X77559928Y-107582090D02*
X78040000Y-107582090D01*
X133259928Y-98582090D02*
X133740000Y-98582090D01*
X68540000Y-89582090D02*
X68540000Y-87600000D01*
X124240001Y-107582090D02*
X124240001Y-105600000D01*
X68540000Y-98582090D02*
X68540000Y-96600000D01*
X77559928Y-66982090D02*
X78040000Y-66982090D01*
X133740000Y-98582090D02*
X133740000Y-96600000D01*
X123759929Y-66982090D02*
X124240001Y-66982090D01*
X100659928Y-98582090D02*
X101140000Y-98582090D01*
X68059928Y-66982090D02*
X68540000Y-66982090D01*
X91640001Y-57982090D02*
X91640001Y-56000000D01*
X68059928Y-89582090D02*
X68540000Y-89582090D01*
X91159929Y-57982090D02*
X91640001Y-57982090D01*
X110159928Y-98582090D02*
X110640000Y-98582090D01*
X59040001Y-98582090D02*
X59040001Y-96600000D01*
X123759929Y-98582090D02*
X124240001Y-98582090D01*
X133740000Y-57982090D02*
X133740000Y-56000000D01*
X142759928Y-75982090D02*
X143240000Y-75982090D01*
X143240000Y-89582090D02*
X143240000Y-87600000D01*
X110640000Y-66982090D02*
X110640000Y-65000000D01*
X58559929Y-75982090D02*
X59040001Y-75982090D01*
X91159929Y-75982090D02*
X91640001Y-75982090D01*
X133740000Y-107582090D02*
X133740000Y-105600000D01*
X68059928Y-57982090D02*
X68540000Y-57982090D01*
X68540000Y-66982090D02*
X68540000Y-65000000D01*
X133259928Y-57982090D02*
X133740000Y-57982090D01*
X124240001Y-75982090D02*
X124240001Y-74000000D01*
X91159929Y-66982090D02*
X91640001Y-66982090D01*
X142759928Y-89582090D02*
X143240000Y-89582090D01*
X77559928Y-98582090D02*
X78040000Y-98582090D01*
X68540000Y-57982090D02*
X68540000Y-56000000D01*
X91640001Y-89582090D02*
X91640001Y-87600000D01*
X110640000Y-98582090D02*
X110640000Y-96600000D01*
X91640001Y-107582090D02*
X91640001Y-105600000D01*
X59040001Y-89582090D02*
X59040001Y-87600000D01*
X101140000Y-75982090D02*
X101140000Y-74000000D01*
X91640001Y-75982090D02*
X91640001Y-74000000D01*
X78040000Y-89582090D02*
X78040000Y-87600000D01*
X78040000Y-75982090D02*
X78040000Y-74000000D01*
X123759929Y-107582090D02*
X124240001Y-107582090D01*
X143240000Y-98582090D02*
X143240000Y-96600000D01*
X58559929Y-98582090D02*
X59040001Y-98582090D01*
X110640000Y-57982090D02*
X110640000Y-56000000D01*
X124240001Y-57982090D02*
X124240001Y-56000000D01*
X57942610Y-90431996D02*
X59680001Y-90431996D01*
X134380000Y-90431996D02*
X134380000Y-87600000D01*
X100042609Y-58831996D02*
X101780000Y-58831996D01*
X92280001Y-90431996D02*
X92280001Y-87600000D01*
X69180000Y-99431996D02*
X69180000Y-96600000D01*
X57942610Y-76831996D02*
X59680001Y-76831996D01*
X132642609Y-67831996D02*
X134380000Y-67831996D01*
X142142609Y-90431996D02*
X143880000Y-90431996D01*
X67442609Y-108431996D02*
X69180000Y-108431996D01*
X134380000Y-58831996D02*
X134380000Y-56000000D01*
X59680001Y-99431996D02*
X59680001Y-96600000D01*
X92280001Y-58831996D02*
X92280001Y-56000000D01*
X134380000Y-99431996D02*
X134380000Y-96600000D01*
X90542610Y-76831996D02*
X92280001Y-76831996D01*
X69180000Y-108431996D02*
X69180000Y-105600000D01*
X92280001Y-67831996D02*
X92280001Y-65000000D01*
X124880001Y-99431996D02*
X124880001Y-96600000D01*
X100042609Y-67831996D02*
X101780000Y-67831996D01*
X143880000Y-67831996D02*
X143880000Y-65000000D01*
X69180000Y-76831996D02*
X69180000Y-74000000D01*
X132642609Y-90431996D02*
X134380000Y-90431996D01*
X67442609Y-67831996D02*
X69180000Y-67831996D01*
X101780000Y-90431996D02*
X101780000Y-87600000D01*
X59680001Y-76831996D02*
X59680001Y-74000000D01*
X69180000Y-58831996D02*
X69180000Y-56000000D01*
X124880001Y-58831996D02*
X124880001Y-56000000D01*
X109542609Y-99431996D02*
X111280000Y-99431996D01*
X90542610Y-99431996D02*
X92280001Y-99431996D01*
X92280001Y-76831996D02*
X92280001Y-74000000D01*
X123142610Y-76831996D02*
X124880001Y-76831996D01*
X69180000Y-67831996D02*
X69180000Y-65000000D01*
X109542609Y-76831996D02*
X111280000Y-76831996D01*
X59680001Y-90431996D02*
X59680001Y-87600000D01*
X124880001Y-108431996D02*
X124880001Y-105600000D01*
X57942610Y-58831996D02*
X59680001Y-58831996D01*
X67442609Y-90431996D02*
X69180000Y-90431996D01*
X134380000Y-108431996D02*
X134380000Y-105600000D01*
X111280000Y-99431996D02*
X111280000Y-96600000D01*
X57942610Y-108431996D02*
X59680001Y-108431996D01*
X142142609Y-99431996D02*
X143880000Y-99431996D01*
X111280000Y-58831996D02*
X111280000Y-56000000D01*
X109542609Y-108431996D02*
X111280000Y-108431996D01*
X92280001Y-108431996D02*
X92280001Y-105600000D01*
X100042609Y-76831996D02*
X101780000Y-76831996D01*
X109542609Y-58831996D02*
X111280000Y-58831996D01*
X124880001Y-90431996D02*
X124880001Y-87600000D01*
X143880000Y-76831996D02*
X143880000Y-74000000D01*
X78680000Y-67831996D02*
X78680000Y-65000000D01*
X109542609Y-90431996D02*
X111280000Y-90431996D01*
X76942609Y-99431996D02*
X78680000Y-99431996D01*
X76942609Y-90431996D02*
X78680000Y-90431996D01*
X143880000Y-99431996D02*
X143880000Y-96600000D01*
X69180000Y-90431996D02*
X69180000Y-87600000D01*
X101780000Y-99431996D02*
X101780000Y-96600000D01*
X59680001Y-67831996D02*
X59680001Y-65000000D01*
X134380000Y-67831996D02*
X134380000Y-65000000D01*
X132642609Y-108431996D02*
X134380000Y-108431996D01*
X67442609Y-58831996D02*
X69180000Y-58831996D01*
X100042609Y-108431996D02*
X101780000Y-108431996D01*
X143880000Y-90431996D02*
X143880000Y-87600000D01*
X100042609Y-90431996D02*
X101780000Y-90431996D01*
X100042609Y-99431996D02*
X101780000Y-99431996D01*
X76942609Y-67831996D02*
X78680000Y-67831996D01*
X143880000Y-108431996D02*
X143880000Y-105600000D01*
X90542610Y-108431996D02*
X92280001Y-108431996D01*
X78680000Y-90431996D02*
X78680000Y-87600000D01*
X123142610Y-58831996D02*
X124880001Y-58831996D01*
X111280000Y-108431996D02*
X111280000Y-105600000D01*
X76942609Y-76831996D02*
X78680000Y-76831996D01*
X59680001Y-58831996D02*
X59680001Y-56000000D01*
X111280000Y-76831996D02*
X111280000Y-74000000D01*
X76942609Y-58831996D02*
X78680000Y-58831996D01*
X90542610Y-90431996D02*
X92280001Y-90431996D01*
X67442609Y-99431996D02*
X69180000Y-99431996D01*
X101780000Y-58831996D02*
X101780000Y-56000000D01*
X67442609Y-76831996D02*
X69180000Y-76831996D01*
X123142610Y-67831996D02*
X124880001Y-67831996D01*
X111280000Y-90431996D02*
X111280000Y-87600000D01*
X76942609Y-108431996D02*
X78680000Y-108431996D01*
X90542610Y-58831996D02*
X92280001Y-58831996D01*
X143880000Y-58831996D02*
X143880000Y-56000000D01*
X142142609Y-58831996D02*
X143880000Y-58831996D01*
X132642609Y-76831996D02*
X134380000Y-76831996D01*
X101780000Y-67831996D02*
X101780000Y-65000000D01*
X57942610Y-99431996D02*
X59680001Y-99431996D01*
X78680000Y-76831996D02*
X78680000Y-74000000D01*
X132642609Y-58831996D02*
X134380000Y-58831996D01*
X111280000Y-67831996D02*
X111280000Y-65000000D01*
X142142609Y-76831996D02*
X143880000Y-76831996D01*
X101780000Y-108431996D02*
X101780000Y-105600000D01*
X59680001Y-108431996D02*
X59680001Y-105600000D01*
X123142610Y-108431996D02*
X124880001Y-108431996D01*
X124880001Y-76831996D02*
X124880001Y-74000000D01*
X57942610Y-67831996D02*
X59680001Y-67831996D01*
X92280001Y-99431996D02*
X92280001Y-96600000D01*
X142142609Y-108431996D02*
X143880000Y-108431996D01*
X142142609Y-67831996D02*
X143880000Y-67831996D01*
X90542610Y-67831996D02*
X92280001Y-67831996D01*
X123142610Y-90431996D02*
X124880001Y-90431996D01*
X78680000Y-58831996D02*
X78680000Y-56000000D01*
X124880001Y-67831996D02*
X124880001Y-65000000D01*
X134380000Y-76831996D02*
X134380000Y-74000000D01*
X132642609Y-99431996D02*
X134380000Y-99431996D01*
X78680000Y-99431996D02*
X78680000Y-96600000D01*
X78680000Y-108431996D02*
X78680000Y-105600000D01*
X101780000Y-76831996D02*
X101780000Y-74000000D01*
X123142610Y-99431996D02*
X124880001Y-99431996D01*
X109542609Y-67831996D02*
X111280000Y-67831996D01*
X71557103Y-67831118D02*
X69820000Y-67831118D01*
X144520000Y-67831118D02*
X144520000Y-65000000D01*
X127257104Y-67831118D02*
X125520001Y-67831118D01*
X81057103Y-58831118D02*
X79320000Y-58831118D01*
X60320001Y-67831118D02*
X60320001Y-65000000D01*
X111920000Y-58831118D02*
X111920000Y-56000000D01*
X79320000Y-108431118D02*
X79320000Y-105600000D01*
X81057103Y-99431118D02*
X79320000Y-99431118D01*
X111920000Y-108431118D02*
X111920000Y-105600000D01*
X71557103Y-99431118D02*
X69820000Y-99431118D01*
X62057104Y-76831118D02*
X60320001Y-76831118D01*
X81057103Y-108431118D02*
X79320000Y-108431118D01*
X79320000Y-99431118D02*
X79320000Y-96600000D01*
X125520001Y-67831118D02*
X125520001Y-65000000D01*
X94657104Y-67831118D02*
X92920001Y-67831118D01*
X113657103Y-67831118D02*
X111920000Y-67831118D01*
X135020000Y-99431118D02*
X135020000Y-96600000D01*
X104157103Y-99431118D02*
X102420000Y-99431118D01*
X125520001Y-108431118D02*
X125520001Y-105600000D01*
X62057104Y-90431118D02*
X60320001Y-90431118D01*
X146257103Y-99431118D02*
X144520000Y-99431118D01*
X94657104Y-99431118D02*
X92920001Y-99431118D01*
X71557103Y-90431118D02*
X69820000Y-90431118D01*
X92920001Y-90431118D02*
X92920001Y-87600000D01*
X104157103Y-58831118D02*
X102420000Y-58831118D01*
X62057104Y-67831118D02*
X60320001Y-67831118D01*
X146257103Y-108431118D02*
X144520000Y-108431118D01*
X127257104Y-108431118D02*
X125520001Y-108431118D01*
X111920000Y-76831118D02*
X111920000Y-74000000D01*
X136757103Y-76831118D02*
X135020000Y-76831118D01*
X113657103Y-90431118D02*
X111920000Y-90431118D01*
X102420000Y-67831118D02*
X102420000Y-65000000D01*
X127257104Y-99431118D02*
X125520001Y-99431118D01*
X92920001Y-108431118D02*
X92920001Y-105600000D01*
X69820000Y-67831118D02*
X69820000Y-65000000D01*
X127257104Y-76831118D02*
X125520001Y-76831118D01*
X60320001Y-58831118D02*
X60320001Y-56000000D01*
X79320000Y-76831118D02*
X79320000Y-74000000D01*
X144520000Y-99431118D02*
X144520000Y-96600000D01*
X81057103Y-67831118D02*
X79320000Y-67831118D01*
X79320000Y-58831118D02*
X79320000Y-56000000D01*
X62057104Y-99431118D02*
X60320001Y-99431118D01*
X135020000Y-67831118D02*
X135020000Y-65000000D01*
X62057104Y-58831118D02*
X60320001Y-58831118D01*
X71557103Y-108431118D02*
X69820000Y-108431118D01*
X60320001Y-76831118D02*
X60320001Y-74000000D01*
X62057104Y-108431118D02*
X60320001Y-108431118D01*
X79320000Y-90431118D02*
X79320000Y-87600000D01*
X92920001Y-58831118D02*
X92920001Y-56000000D01*
X102420000Y-58831118D02*
X102420000Y-56000000D01*
X144520000Y-90431118D02*
X144520000Y-87600000D01*
X135020000Y-76831118D02*
X135020000Y-74000000D01*
X104157103Y-76831118D02*
X102420000Y-76831118D01*
X104157103Y-108431118D02*
X102420000Y-108431118D01*
X94657104Y-58831118D02*
X92920001Y-58831118D01*
X125520001Y-90431118D02*
X125520001Y-87600000D01*
X113657103Y-76831118D02*
X111920000Y-76831118D01*
X81057103Y-76831118D02*
X79320000Y-76831118D01*
X111920000Y-90431118D02*
X111920000Y-87600000D01*
X125520001Y-99431118D02*
X125520001Y-96600000D01*
X94657104Y-108431118D02*
X92920001Y-108431118D01*
X146257103Y-67831118D02*
X144520000Y-67831118D01*
X113657103Y-99431118D02*
X111920000Y-99431118D01*
X102420000Y-99431118D02*
X102420000Y-96600000D01*
X125520001Y-58831118D02*
X125520001Y-56000000D01*
X69820000Y-108431118D02*
X69820000Y-105600000D01*
X94657104Y-90431118D02*
X92920001Y-90431118D01*
X111920000Y-99431118D02*
X111920000Y-96600000D01*
X135020000Y-58831118D02*
X135020000Y-56000000D01*
X135020000Y-90431118D02*
X135020000Y-87600000D01*
X136757103Y-58831118D02*
X135020000Y-58831118D01*
X113657103Y-108431118D02*
X111920000Y-108431118D01*
X69820000Y-90431118D02*
X69820000Y-87600000D01*
X92920001Y-67831118D02*
X92920001Y-65000000D01*
X102420000Y-90431118D02*
X102420000Y-87600000D01*
X146257103Y-76831118D02*
X144520000Y-76831118D01*
X94657104Y-76831118D02*
X92920001Y-76831118D01*
X104157103Y-67831118D02*
X102420000Y-67831118D01*
X60320001Y-99431118D02*
X60320001Y-96600000D01*
X127257104Y-58831118D02*
X125520001Y-58831118D01*
X69820000Y-99431118D02*
X69820000Y-96600000D01*
X135020000Y-108431118D02*
X135020000Y-105600000D01*
X69820000Y-76831118D02*
X69820000Y-74000000D01*
X136757103Y-99431118D02*
X135020000Y-99431118D01*
X71557103Y-76831118D02*
X69820000Y-76831118D01*
X136757103Y-90431118D02*
X135020000Y-90431118D01*
X60320001Y-90431118D02*
X60320001Y-87600000D01*
X104157103Y-90431118D02*
X102420000Y-90431118D01*
X146257103Y-90431118D02*
X144520000Y-90431118D01*
X102420000Y-108431118D02*
X102420000Y-105600000D01*
X71557103Y-58831118D02*
X69820000Y-58831118D01*
X111920000Y-67831118D02*
X111920000Y-65000000D01*
X60320001Y-108431118D02*
X60320001Y-105600000D01*
X79320000Y-67831118D02*
X79320000Y-65000000D01*
X144520000Y-76831118D02*
X144520000Y-74000000D01*
X146257103Y-58831118D02*
X144520000Y-58831118D01*
X102420000Y-76831118D02*
X102420000Y-74000000D01*
X136757103Y-108431118D02*
X135020000Y-108431118D01*
X69820000Y-58831118D02*
X69820000Y-56000000D01*
X136757103Y-67831118D02*
X135020000Y-67831118D01*
X92920001Y-76831118D02*
X92920001Y-74000000D01*
X92920001Y-99431118D02*
X92920001Y-96600000D01*
X144520000Y-108431118D02*
X144520000Y-105600000D01*
X125520001Y-76831118D02*
X125520001Y-74000000D01*
X127257104Y-90431118D02*
X125520001Y-90431118D01*
X113657103Y-58831118D02*
X111920000Y-58831118D01*
X144520000Y-58831118D02*
X144520000Y-56000000D01*
X81057103Y-90431118D02*
X79320000Y-90431118D01*
X103540071Y-57982090D02*
X103060000Y-57982090D01*
X103060000Y-98582090D02*
X103060000Y-96600000D01*
X94040072Y-75982090D02*
X93560001Y-75982090D01*
X112560000Y-57982090D02*
X112560000Y-56000000D01*
X70940071Y-75982090D02*
X70460000Y-75982090D01*
X145640071Y-89582090D02*
X145160000Y-89582090D01*
X126160001Y-89582090D02*
X126160001Y-87600000D01*
X61440072Y-75982090D02*
X60960001Y-75982090D01*
X126160001Y-66982090D02*
X126160001Y-65000000D01*
X93560001Y-89582090D02*
X93560001Y-87600000D01*
X126640072Y-89582090D02*
X126160001Y-89582090D01*
X70460000Y-107582090D02*
X70460000Y-105600000D01*
X145160000Y-75982090D02*
X145160000Y-74000000D01*
X126640072Y-98582090D02*
X126160001Y-98582090D01*
X70460000Y-98582090D02*
X70460000Y-96600000D01*
X61440072Y-89582090D02*
X60960001Y-89582090D01*
X126640072Y-107582090D02*
X126160001Y-107582090D01*
X79960000Y-66982090D02*
X79960000Y-65000000D01*
X112560000Y-89582090D02*
X112560000Y-87600000D01*
X103540071Y-98582090D02*
X103060000Y-98582090D01*
X103540071Y-89582090D02*
X103060000Y-89582090D01*
X126640072Y-75982090D02*
X126160001Y-75982090D01*
X103060000Y-75982090D02*
X103060000Y-74000000D01*
X70460000Y-57982090D02*
X70460000Y-56000000D01*
X79960000Y-98582090D02*
X79960000Y-96600000D01*
X80440071Y-66982090D02*
X79960000Y-66982090D01*
X145640071Y-98582090D02*
X145160000Y-98582090D01*
X103540071Y-75982090D02*
X103060000Y-75982090D01*
X113040071Y-89582090D02*
X112560000Y-89582090D01*
X136140071Y-98582090D02*
X135660000Y-98582090D01*
X136140071Y-89582090D02*
X135660000Y-89582090D01*
X61440072Y-57982090D02*
X60960001Y-57982090D01*
X135660000Y-89582090D02*
X135660000Y-87600000D01*
X126160001Y-75982090D02*
X126160001Y-74000000D01*
X113040071Y-75982090D02*
X112560000Y-75982090D01*
X93560001Y-107582090D02*
X93560001Y-105600000D01*
X94040072Y-107582090D02*
X93560001Y-107582090D01*
X145160000Y-89582090D02*
X145160000Y-87600000D01*
X60960001Y-75982090D02*
X60960001Y-74000000D01*
X60960001Y-98582090D02*
X60960001Y-96600000D01*
X103060000Y-107582090D02*
X103060000Y-105600000D01*
X145160000Y-98582090D02*
X145160000Y-96600000D01*
X103540071Y-66982090D02*
X103060000Y-66982090D01*
X60960001Y-57982090D02*
X60960001Y-56000000D01*
X126160001Y-98582090D02*
X126160001Y-96600000D01*
X136140071Y-75982090D02*
X135660000Y-75982090D01*
X136140071Y-57982090D02*
X135660000Y-57982090D01*
X112560000Y-66982090D02*
X112560000Y-65000000D01*
X135660000Y-107582090D02*
X135660000Y-105600000D01*
X112560000Y-107582090D02*
X112560000Y-105600000D01*
X135660000Y-75982090D02*
X135660000Y-74000000D01*
X113040071Y-107582090D02*
X112560000Y-107582090D01*
X113040071Y-66982090D02*
X112560000Y-66982090D01*
X145160000Y-66982090D02*
X145160000Y-65000000D01*
X126160001Y-107582090D02*
X126160001Y-105600000D01*
X70940071Y-98582090D02*
X70460000Y-98582090D01*
X70460000Y-75982090D02*
X70460000Y-74000000D01*
X93560001Y-57982090D02*
X93560001Y-56000000D01*
X135660000Y-57982090D02*
X135660000Y-56000000D01*
X135660000Y-66982090D02*
X135660000Y-65000000D01*
X113040071Y-57982090D02*
X112560000Y-57982090D01*
X136140071Y-107582090D02*
X135660000Y-107582090D01*
X79960000Y-89582090D02*
X79960000Y-87600000D01*
X60960001Y-107582090D02*
X60960001Y-105600000D01*
X60960001Y-66982090D02*
X60960001Y-65000000D01*
X93560001Y-75982090D02*
X93560001Y-74000000D01*
X80440071Y-75982090D02*
X79960000Y-75982090D01*
X94040072Y-89582090D02*
X93560001Y-89582090D01*
X79960000Y-107582090D02*
X79960000Y-105600000D01*
X94040072Y-57982090D02*
X93560001Y-57982090D01*
X61440072Y-98582090D02*
X60960001Y-98582090D01*
X80440071Y-89582090D02*
X79960000Y-89582090D01*
X103060000Y-89582090D02*
X103060000Y-87600000D01*
X103060000Y-66982090D02*
X103060000Y-65000000D01*
X70940071Y-107582090D02*
X70460000Y-107582090D01*
X70460000Y-89582090D02*
X70460000Y-87600000D01*
X79960000Y-57982090D02*
X79960000Y-56000000D01*
X126640072Y-57982090D02*
X126160001Y-57982090D01*
X145640071Y-107582090D02*
X145160000Y-107582090D01*
X145160000Y-107582090D02*
X145160000Y-105600000D01*
X126640072Y-66982090D02*
X126160001Y-66982090D01*
X70940071Y-57982090D02*
X70460000Y-57982090D01*
X145640071Y-66982090D02*
X145160000Y-66982090D01*
X80440071Y-98582090D02*
X79960000Y-98582090D01*
X70940071Y-89582090D02*
X70460000Y-89582090D01*
X113040071Y-98582090D02*
X112560000Y-98582090D01*
X79960000Y-75982090D02*
X79960000Y-74000000D01*
X94040072Y-66982090D02*
X93560001Y-66982090D01*
X93560001Y-98582090D02*
X93560001Y-96600000D01*
X145640071Y-57982090D02*
X145160000Y-57982090D01*
X103540071Y-107582090D02*
X103060000Y-107582090D01*
X80440071Y-107582090D02*
X79960000Y-107582090D01*
X145640071Y-75982090D02*
X145160000Y-75982090D01*
X126160001Y-57982090D02*
X126160001Y-56000000D01*
X112560000Y-98582090D02*
X112560000Y-96600000D01*
X93560001Y-66982090D02*
X93560001Y-65000000D01*
X103060000Y-57982090D02*
X103060000Y-56000000D01*
X70460000Y-66982090D02*
X70460000Y-65000000D01*
X70940071Y-66982090D02*
X70460000Y-66982090D01*
X60960001Y-89582090D02*
X60960001Y-87600000D01*
X80440071Y-57982090D02*
X79960000Y-57982090D01*
X61440072Y-107582090D02*
X60960001Y-107582090D01*
X136140071Y-66982090D02*
X135660000Y-66982090D01*
X61440072Y-66982090D02*
X60960001Y-66982090D01*
X135660000Y-98582090D02*
X135660000Y-96600000D01*
X145160000Y-57982090D02*
X145160000Y-56000000D01*
X112560000Y-75982090D02*
X112560000Y-74000000D01*
X94040072Y-98582090D02*
X93560001Y-98582090D01*
X72828181Y-75524000D02*
X71100000Y-75524000D01*
X105428181Y-89124000D02*
X103700000Y-89124000D01*
X128528182Y-57524000D02*
X126800001Y-57524000D01*
X71100000Y-98124000D02*
X71100000Y-96600000D01*
X138028181Y-57524000D02*
X136300000Y-57524000D01*
X63328182Y-57524000D02*
X61600001Y-57524000D01*
X95928182Y-75524000D02*
X94200001Y-75524000D01*
X82500000Y-106680846D02*
X82328181Y-107124000D01*
X126800001Y-98124000D02*
X126800001Y-96600000D01*
X95928182Y-66524000D02*
X94200001Y-66524000D01*
X138200000Y-106680846D02*
X138028181Y-107124000D01*
X147700000Y-88680846D02*
X147528181Y-89124000D01*
X105428181Y-66524000D02*
X103700000Y-66524000D01*
X138028181Y-66524000D02*
X136300000Y-66524000D01*
X115100000Y-97680846D02*
X114928181Y-98124000D01*
X138200000Y-88680846D02*
X138028181Y-89124000D01*
X96100001Y-88680846D02*
X95928182Y-89124000D01*
X72828181Y-57524000D02*
X71100000Y-57524000D01*
X73000000Y-66080846D02*
X72828181Y-66524000D01*
X72828181Y-107124000D02*
X71100000Y-107124000D01*
X114928181Y-98124000D02*
X113200000Y-98124000D01*
X105600000Y-66080846D02*
X105428181Y-66524000D01*
X63500001Y-66080846D02*
X63328182Y-66524000D01*
X72828181Y-98124000D02*
X71100000Y-98124000D01*
X95928182Y-89124000D02*
X94200001Y-89124000D01*
X80600000Y-89124000D02*
X80600000Y-87600000D01*
X113200000Y-75524000D02*
X113200000Y-74000000D01*
X147700000Y-66080846D02*
X147528181Y-66524000D01*
X114928181Y-66524000D02*
X113200000Y-66524000D01*
X61600001Y-107124000D02*
X61600001Y-105600000D01*
X82500000Y-88680846D02*
X82328181Y-89124000D01*
X115100000Y-66080846D02*
X114928181Y-66524000D01*
X63328182Y-66524000D02*
X61600001Y-66524000D01*
X147528181Y-75524000D02*
X145800000Y-75524000D01*
X73000000Y-57080846D02*
X72828181Y-57524000D01*
X138200000Y-66080846D02*
X138028181Y-66524000D01*
X73000000Y-106680846D02*
X72828181Y-107124000D01*
X73000000Y-97680846D02*
X72828181Y-98124000D01*
X82328181Y-66524000D02*
X80600000Y-66524000D01*
X95928182Y-98124000D02*
X94200001Y-98124000D01*
X114928181Y-75524000D02*
X113200000Y-75524000D01*
X63500001Y-106680846D02*
X63328182Y-107124000D01*
X94200001Y-89124000D02*
X94200001Y-87600000D01*
X113200000Y-66524000D02*
X113200000Y-65000000D01*
X138200000Y-97680846D02*
X138028181Y-98124000D01*
X138028181Y-89124000D02*
X136300000Y-89124000D01*
X115100000Y-75080846D02*
X114928181Y-75524000D01*
X103700000Y-57524000D02*
X103700000Y-56000000D01*
X126800001Y-66524000D02*
X126800001Y-65000000D01*
X145800000Y-89124000D02*
X145800000Y-87600000D01*
X80600000Y-107124000D02*
X80600000Y-105600000D01*
X96100001Y-97680846D02*
X95928182Y-98124000D01*
X105600000Y-88680846D02*
X105428181Y-89124000D01*
X105600000Y-75080846D02*
X105428181Y-75524000D01*
X71100000Y-89124000D02*
X71100000Y-87600000D01*
X113200000Y-57524000D02*
X113200000Y-56000000D01*
X147700000Y-97680846D02*
X147528181Y-98124000D01*
X145800000Y-57524000D02*
X145800000Y-56000000D01*
X63500001Y-97680846D02*
X63328182Y-98124000D01*
X138028181Y-75524000D02*
X136300000Y-75524000D01*
X128528182Y-107124000D02*
X126800001Y-107124000D01*
X114928181Y-89124000D02*
X113200000Y-89124000D01*
X114928181Y-57524000D02*
X113200000Y-57524000D01*
X73000000Y-75080846D02*
X72828181Y-75524000D01*
X80600000Y-66524000D02*
X80600000Y-65000000D01*
X82328181Y-98124000D02*
X80600000Y-98124000D01*
X128700001Y-75080846D02*
X128528182Y-75524000D01*
X147700000Y-57080846D02*
X147528181Y-57524000D01*
X145800000Y-107124000D02*
X145800000Y-105600000D01*
X136300000Y-57524000D02*
X136300000Y-56000000D01*
X61600001Y-89124000D02*
X61600001Y-87600000D01*
X103700000Y-89124000D02*
X103700000Y-87600000D01*
X103700000Y-98124000D02*
X103700000Y-96600000D01*
X61600001Y-75524000D02*
X61600001Y-74000000D01*
X105428181Y-107124000D02*
X103700000Y-107124000D01*
X95928182Y-57524000D02*
X94200001Y-57524000D01*
X61600001Y-57524000D02*
X61600001Y-56000000D01*
X147700000Y-75080846D02*
X147528181Y-75524000D01*
X63328182Y-75524000D02*
X61600001Y-75524000D01*
X96100001Y-57080846D02*
X95928182Y-57524000D01*
X126800001Y-89124000D02*
X126800001Y-87600000D01*
X138200000Y-75080846D02*
X138028181Y-75524000D01*
X96100001Y-75080846D02*
X95928182Y-75524000D01*
X82328181Y-57524000D02*
X80600000Y-57524000D01*
X71100000Y-57524000D02*
X71100000Y-56000000D01*
X94200001Y-75524000D02*
X94200001Y-74000000D01*
X128528182Y-98124000D02*
X126800001Y-98124000D01*
X113200000Y-98124000D02*
X113200000Y-96600000D01*
X126800001Y-75524000D02*
X126800001Y-74000000D01*
X115100000Y-106680846D02*
X114928181Y-107124000D01*
X136300000Y-98124000D02*
X136300000Y-96600000D01*
X103700000Y-75524000D02*
X103700000Y-74000000D01*
X128700001Y-97680846D02*
X128528182Y-98124000D01*
X82328181Y-107124000D02*
X80600000Y-107124000D01*
X61600001Y-66524000D02*
X61600001Y-65000000D01*
X63500001Y-75080846D02*
X63328182Y-75524000D01*
X82328181Y-75524000D02*
X80600000Y-75524000D01*
X128528182Y-75524000D02*
X126800001Y-75524000D01*
X113200000Y-107124000D02*
X113200000Y-105600000D01*
X80600000Y-98124000D02*
X80600000Y-96600000D01*
X73000000Y-88680846D02*
X72828181Y-89124000D01*
X128700001Y-66080846D02*
X128528182Y-66524000D01*
X80600000Y-75524000D02*
X80600000Y-74000000D01*
X105428181Y-75524000D02*
X103700000Y-75524000D01*
X82328181Y-89124000D02*
X80600000Y-89124000D01*
X71100000Y-107124000D02*
X71100000Y-105600000D01*
X94200001Y-66524000D02*
X94200001Y-65000000D01*
X105600000Y-57080846D02*
X105428181Y-57524000D01*
X82500000Y-75080846D02*
X82328181Y-75524000D01*
X145800000Y-98124000D02*
X145800000Y-96600000D01*
X147528181Y-98124000D02*
X145800000Y-98124000D01*
X94200001Y-98124000D02*
X94200001Y-96600000D01*
X95928182Y-107124000D02*
X94200001Y-107124000D01*
X138200000Y-57080846D02*
X138028181Y-57524000D01*
X128528182Y-66524000D02*
X126800001Y-66524000D01*
X147528181Y-107124000D02*
X145800000Y-107124000D01*
X136300000Y-107124000D02*
X136300000Y-105600000D01*
X71100000Y-75524000D02*
X71100000Y-74000000D01*
X136300000Y-89124000D02*
X136300000Y-87600000D01*
X63328182Y-89124000D02*
X61600001Y-89124000D01*
X63328182Y-107124000D02*
X61600001Y-107124000D01*
X136300000Y-66524000D02*
X136300000Y-65000000D01*
X126800001Y-107124000D02*
X126800001Y-105600000D01*
X71100000Y-66524000D02*
X71100000Y-65000000D01*
X80600000Y-57524000D02*
X80600000Y-56000000D01*
X128528182Y-89124000D02*
X126800001Y-89124000D01*
X96100001Y-106680846D02*
X95928182Y-107124000D01*
X138028181Y-107124000D02*
X136300000Y-107124000D01*
X105428181Y-57524000D02*
X103700000Y-57524000D01*
X63328182Y-98124000D02*
X61600001Y-98124000D01*
X114928181Y-107124000D02*
X113200000Y-107124000D01*
X103700000Y-66524000D02*
X103700000Y-65000000D01*
X128700001Y-106680846D02*
X128528182Y-107124000D01*
X147528181Y-89124000D02*
X145800000Y-89124000D01*
X94200001Y-57524000D02*
X94200001Y-56000000D01*
X145800000Y-75524000D02*
X145800000Y-74000000D01*
X136300000Y-75524000D02*
X136300000Y-74000000D01*
X115100000Y-88680846D02*
X114928181Y-89124000D01*
X82500000Y-97680846D02*
X82328181Y-98124000D01*
X113200000Y-89124000D02*
X113200000Y-87600000D01*
X105600000Y-97680846D02*
X105428181Y-98124000D01*
X94200001Y-107124000D02*
X94200001Y-105600000D01*
X145800000Y-66524000D02*
X145800000Y-65000000D01*
X72828181Y-66524000D02*
X71100000Y-66524000D01*
X128700001Y-57080846D02*
X128528182Y-57524000D01*
X115100000Y-57080846D02*
X114928181Y-57524000D01*
X126800001Y-57524000D02*
X126800001Y-56000000D01*
X61600001Y-98124000D02*
X61600001Y-96600000D01*
X147528181Y-57524000D02*
X145800000Y-57524000D01*
X63500001Y-88680846D02*
X63328182Y-89124000D01*
X138028181Y-98124000D02*
X136300000Y-98124000D01*
X82500000Y-57080846D02*
X82328181Y-57524000D01*
X103700000Y-107124000D02*
X103700000Y-105600000D01*
X105600000Y-106680846D02*
X105428181Y-107124000D01*
X147528181Y-66524000D02*
X145800000Y-66524000D01*
X96100001Y-66080846D02*
X95928182Y-66524000D01*
X63500001Y-57080846D02*
X63328182Y-57524000D01*
X128700001Y-88680846D02*
X128528182Y-89124000D01*
X105428181Y-98124000D02*
X103700000Y-98124000D01*
X72828181Y-89124000D02*
X71100000Y-89124000D01*
X147700000Y-106680846D02*
X147528181Y-107124000D01*
X82500000Y-66080846D02*
X82328181Y-66524000D01*
X104340000Y-95030000D02*
X104340000Y-96600000D01*
X127027910Y-54017909D02*
X127440001Y-54430000D01*
X104340000Y-104030000D02*
X104340000Y-105600000D01*
X146027909Y-72017909D02*
X146440000Y-72430000D01*
X62240001Y-104030000D02*
X62240001Y-105600000D01*
X94040072Y-63017909D02*
X94427910Y-63017909D01*
X113427909Y-94617909D02*
X113840000Y-95030000D01*
X113427909Y-63017909D02*
X113840000Y-63430000D01*
X145640071Y-63017909D02*
X146027909Y-63017909D01*
X70940071Y-85617909D02*
X71327909Y-85617909D01*
X61827910Y-63017909D02*
X62240001Y-63430000D01*
X80827909Y-103617909D02*
X81240000Y-104030000D01*
X80440071Y-72017909D02*
X80827909Y-72017909D01*
X103927909Y-72017909D02*
X104340000Y-72430000D01*
X94040072Y-85617909D02*
X94427910Y-85617909D01*
X71740000Y-86030000D02*
X71740000Y-87600000D01*
X127440001Y-86030000D02*
X127440001Y-87600000D01*
X127440001Y-95030000D02*
X127440001Y-96600000D01*
X71740000Y-72430000D02*
X71740000Y-74000000D01*
X61827910Y-72017909D02*
X62240001Y-72430000D01*
X103927909Y-63017909D02*
X104340000Y-63430000D01*
X127440001Y-72430000D02*
X127440001Y-74000000D01*
X127027910Y-85617909D02*
X127440001Y-86030000D01*
X81240000Y-86030000D02*
X81240000Y-87600000D01*
X146440000Y-86030000D02*
X146440000Y-87600000D01*
X61827910Y-103617909D02*
X62240001Y-104030000D01*
X113427909Y-54017909D02*
X113840000Y-54430000D01*
X103927909Y-54017909D02*
X104340000Y-54430000D01*
X145640071Y-94617909D02*
X146027909Y-94617909D01*
X104340000Y-54430000D02*
X104340000Y-56000000D01*
X70940071Y-72017909D02*
X71327909Y-72017909D01*
X113427909Y-103617909D02*
X113840000Y-104030000D01*
X71327909Y-103617909D02*
X71740000Y-104030000D01*
X61440072Y-63017909D02*
X61827910Y-63017909D01*
X136940000Y-72430000D02*
X136940000Y-74000000D01*
X70940071Y-54017909D02*
X71327909Y-54017909D01*
X126640072Y-94617909D02*
X127027910Y-94617909D01*
X146440000Y-63430000D02*
X146440000Y-65000000D01*
X113040071Y-72017909D02*
X113427909Y-72017909D01*
X113040071Y-85617909D02*
X113427909Y-85617909D01*
X126640072Y-54017909D02*
X127027910Y-54017909D01*
X80827909Y-72017909D02*
X81240000Y-72430000D01*
X136140071Y-72017909D02*
X136527909Y-72017909D01*
X113840000Y-63430000D02*
X113840000Y-65000000D01*
X146027909Y-103617909D02*
X146440000Y-104030000D01*
X126640072Y-63017909D02*
X127027910Y-63017909D01*
X136940000Y-95030000D02*
X136940000Y-96600000D01*
X61440072Y-54017909D02*
X61827910Y-54017909D01*
X71740000Y-104030000D02*
X71740000Y-105600000D01*
X80440071Y-94617909D02*
X80827909Y-94617909D01*
X94040072Y-54017909D02*
X94427910Y-54017909D01*
X146027909Y-94617909D02*
X146440000Y-95030000D01*
X94840001Y-54430000D02*
X94840001Y-56000000D01*
X81240000Y-72430000D02*
X81240000Y-74000000D01*
X94840001Y-95030000D02*
X94840001Y-96600000D01*
X146440000Y-95030000D02*
X146440000Y-96600000D01*
X136527909Y-85617909D02*
X136940000Y-86030000D01*
X136527909Y-94617909D02*
X136940000Y-95030000D01*
X127027910Y-103617909D02*
X127440001Y-104030000D01*
X80827909Y-63017909D02*
X81240000Y-63430000D01*
X146027909Y-63017909D02*
X146440000Y-63430000D01*
X145640071Y-54017909D02*
X146027909Y-54017909D01*
X113840000Y-86030000D02*
X113840000Y-87600000D01*
X81240000Y-54430000D02*
X81240000Y-56000000D01*
X61440072Y-94617909D02*
X61827910Y-94617909D01*
X103540071Y-85617909D02*
X103927909Y-85617909D01*
X94427910Y-72017909D02*
X94840001Y-72430000D01*
X113040071Y-54017909D02*
X113427909Y-54017909D01*
X103927909Y-94617909D02*
X104340000Y-95030000D01*
X113840000Y-54430000D02*
X113840000Y-56000000D01*
X70940071Y-63017909D02*
X71327909Y-63017909D01*
X62240001Y-72430000D02*
X62240001Y-74000000D01*
X62240001Y-86030000D02*
X62240001Y-87600000D01*
X71327909Y-94617909D02*
X71740000Y-95030000D01*
X104340000Y-63430000D02*
X104340000Y-65000000D01*
X61440072Y-103617909D02*
X61827910Y-103617909D01*
X136140071Y-85617909D02*
X136527909Y-85617909D01*
X136527909Y-72017909D02*
X136940000Y-72430000D01*
X71327909Y-54017909D02*
X71740000Y-54430000D01*
X61440072Y-85617909D02*
X61827910Y-85617909D01*
X94427910Y-94617909D02*
X94840001Y-95030000D01*
X71327909Y-85617909D02*
X71740000Y-86030000D01*
X70940071Y-94617909D02*
X71327909Y-94617909D01*
X94427910Y-63017909D02*
X94840001Y-63430000D01*
X136940000Y-104030000D02*
X136940000Y-105600000D01*
X94427910Y-103617909D02*
X94840001Y-104030000D01*
X94840001Y-63430000D02*
X94840001Y-65000000D01*
X136140071Y-94617909D02*
X136527909Y-94617909D01*
X71740000Y-63430000D02*
X71740000Y-65000000D01*
X136527909Y-103617909D02*
X136940000Y-104030000D01*
X145640071Y-72017909D02*
X146027909Y-72017909D01*
X80440071Y-54017909D02*
X80827909Y-54017909D01*
X94040072Y-103617909D02*
X94427910Y-103617909D01*
X113840000Y-72430000D02*
X113840000Y-74000000D01*
X103927909Y-103617909D02*
X104340000Y-104030000D01*
X62240001Y-95030000D02*
X62240001Y-96600000D01*
X94427910Y-54017909D02*
X94840001Y-54430000D01*
X94840001Y-86030000D02*
X94840001Y-87600000D01*
X127440001Y-54430000D02*
X127440001Y-56000000D01*
X80827909Y-94617909D02*
X81240000Y-95030000D01*
X136527909Y-63017909D02*
X136940000Y-63430000D01*
X126640072Y-103617909D02*
X127027910Y-103617909D01*
X71740000Y-54430000D02*
X71740000Y-56000000D01*
X136940000Y-54430000D02*
X136940000Y-56000000D01*
X127440001Y-104030000D02*
X127440001Y-105600000D01*
X103540071Y-72017909D02*
X103927909Y-72017909D01*
X94040072Y-72017909D02*
X94427910Y-72017909D01*
X71327909Y-63017909D02*
X71740000Y-63430000D01*
X146440000Y-104030000D02*
X146440000Y-105600000D01*
X81240000Y-63430000D02*
X81240000Y-65000000D01*
X113040071Y-103617909D02*
X113427909Y-103617909D01*
X113840000Y-95030000D02*
X113840000Y-96600000D01*
X113040071Y-94617909D02*
X113427909Y-94617909D01*
X127440001Y-63430000D02*
X127440001Y-65000000D01*
X103540071Y-103617909D02*
X103927909Y-103617909D01*
X113427909Y-72017909D02*
X113840000Y-72430000D01*
X94040072Y-94617909D02*
X94427910Y-94617909D01*
X146440000Y-54430000D02*
X146440000Y-56000000D01*
X113040071Y-63017909D02*
X113427909Y-63017909D01*
X145640071Y-103617909D02*
X146027909Y-103617909D01*
X103540071Y-94617909D02*
X103927909Y-94617909D01*
X81240000Y-104030000D02*
X81240000Y-105600000D01*
X136140071Y-63017909D02*
X136527909Y-63017909D01*
X94427910Y-85617909D02*
X94840001Y-86030000D01*
X126640072Y-72017909D02*
X127027910Y-72017909D01*
X62240001Y-63430000D02*
X62240001Y-65000000D01*
X146027909Y-85617909D02*
X146440000Y-86030000D01*
X136140071Y-103617909D02*
X136527909Y-103617909D01*
X94840001Y-104030000D02*
X94840001Y-105600000D01*
X61827910Y-54017909D02*
X62240001Y-54430000D01*
X70940071Y-103617909D02*
X71327909Y-103617909D01*
X104340000Y-86030000D02*
X104340000Y-87600000D01*
X136940000Y-63430000D02*
X136940000Y-65000000D01*
X80440071Y-63017909D02*
X80827909Y-63017909D01*
X80827909Y-54017909D02*
X81240000Y-54430000D01*
X113840000Y-104030000D02*
X113840000Y-105600000D01*
X136527909Y-54017909D02*
X136940000Y-54430000D01*
X104340000Y-72430000D02*
X104340000Y-74000000D01*
X62240001Y-54430000D02*
X62240001Y-56000000D01*
X80827909Y-85617909D02*
X81240000Y-86030000D01*
X136140071Y-54017909D02*
X136527909Y-54017909D01*
X103540071Y-63017909D02*
X103927909Y-63017909D01*
X61440072Y-72017909D02*
X61827910Y-72017909D01*
X103540071Y-54017909D02*
X103927909Y-54017909D01*
X71327909Y-72017909D02*
X71740000Y-72430000D01*
X127027910Y-94617909D02*
X127440001Y-95030000D01*
X127027910Y-72017909D02*
X127440001Y-72430000D01*
X81240000Y-95030000D02*
X81240000Y-96600000D01*
X61827910Y-85617909D02*
X62240001Y-86030000D01*
X146027909Y-54017909D02*
X146440000Y-54430000D01*
X113427909Y-85617909D02*
X113840000Y-86030000D01*
X103927909Y-85617909D02*
X104340000Y-86030000D01*
X80440071Y-103617909D02*
X80827909Y-103617909D01*
X136940000Y-86030000D02*
X136940000Y-87600000D01*
X71740000Y-95030000D02*
X71740000Y-96600000D01*
X146440000Y-72430000D02*
X146440000Y-74000000D01*
X61827910Y-94617909D02*
X62240001Y-95030000D01*
X126640072Y-85617909D02*
X127027910Y-85617909D01*
X94840001Y-72430000D02*
X94840001Y-74000000D01*
X127027910Y-63017909D02*
X127440001Y-63430000D01*
X145640071Y-85617909D02*
X146027909Y-85617909D01*
X80440071Y-85617909D02*
X80827909Y-85617909D01*
X136755896Y-62168003D02*
X137580000Y-62992106D01*
X114480000Y-103592106D02*
X114480000Y-105600000D01*
X104155896Y-53168003D02*
X104980000Y-53992106D01*
X128080001Y-62992106D02*
X128080001Y-65000000D01*
X81880000Y-103592106D02*
X81880000Y-105600000D01*
X104155896Y-71168003D02*
X104980000Y-71992106D01*
X147080000Y-94592106D02*
X147080000Y-96600000D01*
X94655897Y-71168003D02*
X95480001Y-71992106D01*
X95480001Y-71992106D02*
X95480001Y-74000000D01*
X104980000Y-62992106D02*
X104980000Y-65000000D01*
X62880001Y-62992106D02*
X62880001Y-65000000D01*
X137580000Y-85592106D02*
X137580000Y-87600000D01*
X128080001Y-71992106D02*
X128080001Y-74000000D01*
X62055897Y-84768003D02*
X62880001Y-85592106D01*
X62880001Y-53992106D02*
X62880001Y-56000000D01*
X104155896Y-93768003D02*
X104980000Y-94592106D01*
X81055896Y-62168003D02*
X81880000Y-62992106D01*
X146255896Y-53168003D02*
X147080000Y-53992106D01*
X127255897Y-53168003D02*
X128080001Y-53992106D01*
X127255897Y-93768003D02*
X128080001Y-94592106D01*
X137580000Y-53992106D02*
X137580000Y-56000000D01*
X146255896Y-93768003D02*
X147080000Y-94592106D01*
X72380000Y-85592106D02*
X72380000Y-87600000D01*
X62880001Y-103592106D02*
X62880001Y-105600000D01*
X147080000Y-85592106D02*
X147080000Y-87600000D01*
X113655896Y-93768003D02*
X114480000Y-94592106D01*
X136755896Y-102768003D02*
X137580000Y-103592106D01*
X71555896Y-62168003D02*
X72380000Y-62992106D01*
X146255896Y-102768003D02*
X147080000Y-103592106D01*
X104980000Y-94592106D02*
X104980000Y-96600000D01*
X95480001Y-85592106D02*
X95480001Y-87600000D01*
X136755896Y-53168003D02*
X137580000Y-53992106D01*
X127255897Y-71168003D02*
X128080001Y-71992106D01*
X137580000Y-103592106D02*
X137580000Y-105600000D01*
X62055897Y-53168003D02*
X62880001Y-53992106D01*
X94655897Y-62168003D02*
X95480001Y-62992106D01*
X113655896Y-62168003D02*
X114480000Y-62992106D01*
X71555896Y-53168003D02*
X72380000Y-53992106D01*
X94655897Y-84768003D02*
X95480001Y-85592106D01*
X147080000Y-71992106D02*
X147080000Y-74000000D01*
X114480000Y-85592106D02*
X114480000Y-87600000D01*
X147080000Y-103592106D02*
X147080000Y-105600000D01*
X81880000Y-71992106D02*
X81880000Y-74000000D01*
X147080000Y-62992106D02*
X147080000Y-65000000D01*
X95480001Y-103592106D02*
X95480001Y-105600000D01*
X104980000Y-71992106D02*
X104980000Y-74000000D01*
X71555896Y-84768003D02*
X72380000Y-85592106D01*
X114480000Y-71992106D02*
X114480000Y-74000000D01*
X94655897Y-93768003D02*
X95480001Y-94592106D01*
X147080000Y-53992106D02*
X147080000Y-56000000D01*
X72380000Y-71992106D02*
X72380000Y-74000000D01*
X62055897Y-71168003D02*
X62880001Y-71992106D01*
X113655896Y-53168003D02*
X114480000Y-53992106D01*
X71555896Y-93768003D02*
X72380000Y-94592106D01*
X81880000Y-85592106D02*
X81880000Y-87600000D01*
X62880001Y-85592106D02*
X62880001Y-87600000D01*
X62880001Y-94592106D02*
X62880001Y-96600000D01*
X146255896Y-84768003D02*
X147080000Y-85592106D01*
X113655896Y-84768003D02*
X114480000Y-85592106D01*
X94655897Y-102768003D02*
X95480001Y-103592106D01*
X71555896Y-71168003D02*
X72380000Y-71992106D01*
X72380000Y-62992106D02*
X72380000Y-65000000D01*
X95480001Y-94592106D02*
X95480001Y-96600000D01*
X113655896Y-71168003D02*
X114480000Y-71992106D01*
X127255897Y-84768003D02*
X128080001Y-85592106D01*
X136755896Y-71168003D02*
X137580000Y-71992106D01*
X95480001Y-53992106D02*
X95480001Y-56000000D01*
X136755896Y-93768003D02*
X137580000Y-94592106D01*
X72380000Y-94592106D02*
X72380000Y-96600000D01*
X146255896Y-62168003D02*
X147080000Y-62992106D01*
X95480001Y-62992106D02*
X95480001Y-65000000D01*
X104980000Y-103592106D02*
X104980000Y-105600000D01*
X81055896Y-53168003D02*
X81880000Y-53992106D01*
X104980000Y-53992106D02*
X104980000Y-56000000D01*
X62055897Y-102768003D02*
X62880001Y-103592106D01*
X62055897Y-62168003D02*
X62880001Y-62992106D01*
X128080001Y-85592106D02*
X128080001Y-87600000D01*
X81055896Y-71168003D02*
X81880000Y-71992106D01*
X62880001Y-71992106D02*
X62880001Y-74000000D01*
X137580000Y-94592106D02*
X137580000Y-96600000D01*
X128080001Y-94592106D02*
X128080001Y-96600000D01*
X72380000Y-103592106D02*
X72380000Y-105600000D01*
X81880000Y-62992106D02*
X81880000Y-65000000D01*
X81055896Y-102768003D02*
X81880000Y-103592106D01*
X81880000Y-94592106D02*
X81880000Y-96600000D01*
X114480000Y-53992106D02*
X114480000Y-56000000D01*
X136755896Y-84768003D02*
X137580000Y-85592106D01*
X127255897Y-102768003D02*
X128080001Y-103592106D01*
X81055896Y-84768003D02*
X81880000Y-85592106D01*
X81880000Y-53992106D02*
X81880000Y-56000000D01*
X127255897Y-62168003D02*
X128080001Y-62992106D01*
X72380000Y-53992106D02*
X72380000Y-56000000D01*
X104155896Y-84768003D02*
X104980000Y-85592106D01*
X137580000Y-62992106D02*
X137580000Y-65000000D01*
X146255896Y-71168003D02*
X147080000Y-71992106D01*
X113655896Y-102768003D02*
X114480000Y-103592106D01*
X71555896Y-102768003D02*
X72380000Y-103592106D01*
X62055897Y-93768003D02*
X62880001Y-94592106D01*
X94655897Y-53168003D02*
X95480001Y-53992106D01*
X114480000Y-94592106D02*
X114480000Y-96600000D01*
X104980000Y-85592106D02*
X104980000Y-87600000D01*
X104155896Y-102768003D02*
X104980000Y-103592106D01*
X114480000Y-62992106D02*
X114480000Y-65000000D01*
X137580000Y-71992106D02*
X137580000Y-74000000D01*
X81055896Y-93768003D02*
X81880000Y-94592106D01*
X128080001Y-53992106D02*
X128080001Y-56000000D01*
X104155896Y-62168003D02*
X104980000Y-62992106D01*
X128080001Y-103592106D02*
X128080001Y-105600000D01*
M02*
