G04 #@! TF.GenerationSoftware,KiCad,Pcbnew,7.0.11*
G04 #@! TF.CreationDate,2024-05-30T18:22:35+10:00*
G04 #@! TF.ProjectId,PercPlugPanel_v1.02,50657263-506c-4756-9750-616e656c5f76,rev?*
G04 #@! TF.SameCoordinates,Original*
G04 #@! TF.FileFunction,Soldermask,Top*
G04 #@! TF.FilePolarity,Negative*
%FSLAX46Y46*%
G04 Gerber Fmt 4.6, Leading zero omitted, Abs format (unit mm)*
G04 Created by KiCad (PCBNEW 7.0.11) date 2024-05-30 18:22:35*
%MOMM*%
%LPD*%
G01*
G04 APERTURE LIST*
G04 Aperture macros list*
%AMRoundRect*
0 Rectangle with rounded corners*
0 $1 Rounding radius*
0 $2 $3 $4 $5 $6 $7 $8 $9 X,Y pos of 4 corners*
0 Add a 4 corners polygon primitive as box body*
4,1,4,$2,$3,$4,$5,$6,$7,$8,$9,$2,$3,0*
0 Add four circle primitives for the rounded corners*
1,1,$1+$1,$2,$3*
1,1,$1+$1,$4,$5*
1,1,$1+$1,$6,$7*
1,1,$1+$1,$8,$9*
0 Add four rect primitives between the rounded corners*
20,1,$1+$1,$2,$3,$4,$5,0*
20,1,$1+$1,$4,$5,$6,$7,0*
20,1,$1+$1,$6,$7,$8,$9,0*
20,1,$1+$1,$8,$9,$2,$3,0*%
G04 Aperture macros list end*
%ADD10C,4.303200*%
%ADD11C,1.473200*%
%ADD12C,0.500000*%
%ADD13RoundRect,0.635000X0.000000X0.000000X0.000000X0.000000X0.000000X0.000000X0.000000X0.000000X0*%
%ADD14RoundRect,2.100000X0.000000X0.000000X0.000000X0.000000X0.000000X0.000000X0.000000X0.000000X0*%
G04 APERTURE END LIST*
D10*
X134002058Y-119295247D03*
X125004521Y-119299997D03*
X112202058Y-119295247D03*
X103204521Y-119299997D03*
X90402058Y-119295247D03*
X81404521Y-119299997D03*
D11*
X87548890Y-120222297D03*
X88638705Y-121722297D03*
X90402058Y-122295247D03*
X92165411Y-121722297D03*
X93255226Y-120222297D03*
X93255226Y-118368197D03*
X92165411Y-116868197D03*
X90402058Y-116295247D03*
X88638705Y-116868197D03*
X87548890Y-118368197D03*
D10*
X68602058Y-119295247D03*
D11*
X62457689Y-118372947D03*
X61367874Y-116872947D03*
X59604521Y-116299997D03*
X57841168Y-116872947D03*
X56751353Y-118372947D03*
X56751353Y-120227047D03*
X57841168Y-121727047D03*
X59604521Y-122299997D03*
X61367874Y-121727047D03*
X62457689Y-120227047D03*
D10*
X59604521Y-119299997D03*
D12*
X78239999Y-101600000D03*
X78239999Y-100600000D03*
X79759999Y-101600000D03*
X78999999Y-100600000D03*
X78999999Y-101600000D03*
X79759999Y-100600000D03*
D13*
X68572950Y-62146832D03*
X67072950Y-63236647D03*
X66500000Y-65000000D03*
X67072950Y-66763353D03*
X68572950Y-67853168D03*
X70427050Y-67853168D03*
X71927050Y-66763353D03*
X72500000Y-65000000D03*
X71927050Y-63236647D03*
X70427050Y-62146832D03*
D14*
X69500000Y-65000000D03*
D12*
X102099999Y-110600000D03*
X102859999Y-109600000D03*
X102099999Y-109600000D03*
X101339999Y-109600000D03*
X101339999Y-110600000D03*
X102859999Y-110600000D03*
D13*
X143272950Y-71146832D03*
X141772950Y-72236647D03*
X141200000Y-74000000D03*
X141772950Y-75763353D03*
X143272950Y-76853168D03*
X145127050Y-76853168D03*
X146627050Y-75763353D03*
X147200000Y-74000000D03*
X146627050Y-72236647D03*
X145127050Y-71146832D03*
D14*
X144200000Y-74000000D03*
D12*
X125200000Y-109600000D03*
X125960000Y-109600000D03*
X125200000Y-110600000D03*
X124440000Y-110600000D03*
X124440000Y-109600000D03*
X125960000Y-110600000D03*
D13*
X59072951Y-84746832D03*
X57572951Y-85836647D03*
X57000001Y-87600000D03*
X57572951Y-89363353D03*
X59072951Y-90453168D03*
X60927051Y-90453168D03*
X62427051Y-89363353D03*
X63000001Y-87600000D03*
X62427051Y-85836647D03*
X60927051Y-84746832D03*
D14*
X60000001Y-87600000D03*
D12*
X68602053Y-123395244D03*
X69362053Y-124395244D03*
X67842053Y-124395244D03*
X68602053Y-124395244D03*
X69362053Y-123395244D03*
X67842053Y-123395244D03*
X96040000Y-124400000D03*
X96040000Y-122400000D03*
X97560000Y-124400000D03*
X96800000Y-124400000D03*
X97560000Y-122400000D03*
X96800000Y-122400000D03*
X112359999Y-61000000D03*
X112359999Y-60000000D03*
X110839999Y-61000000D03*
X111599999Y-60000000D03*
X110839999Y-60000000D03*
X111599999Y-61000000D03*
D13*
X101172950Y-93746832D03*
X99672950Y-94836647D03*
X99100000Y-96600000D03*
X99672950Y-98363353D03*
X101172950Y-99453168D03*
X103027050Y-99453168D03*
X104527050Y-98363353D03*
X105100000Y-96600000D03*
X104527050Y-94836647D03*
X103027050Y-93746832D03*
D14*
X102100000Y-96600000D03*
D13*
X124272951Y-84746832D03*
X122772951Y-85836647D03*
X122200001Y-87600000D03*
X122772951Y-89363353D03*
X124272951Y-90453168D03*
X126127051Y-90453168D03*
X127627051Y-89363353D03*
X128200001Y-87600000D03*
X127627051Y-85836647D03*
X126127051Y-84746832D03*
D14*
X125200001Y-87600000D03*
D12*
X69499999Y-52000000D03*
X70259999Y-51000000D03*
X68739999Y-52000000D03*
X68739999Y-51000000D03*
X69499999Y-51000000D03*
X70259999Y-52000000D03*
X90402053Y-114195244D03*
X91162053Y-115195244D03*
X90402053Y-115195244D03*
X91162053Y-114195244D03*
X89642053Y-114195244D03*
X89642053Y-115195244D03*
X59240000Y-83600000D03*
X60760000Y-82600000D03*
X60000000Y-83600000D03*
X60000000Y-82600000D03*
X60760000Y-83600000D03*
X59240000Y-82600000D03*
D13*
X78072950Y-84746832D03*
X76572950Y-85836647D03*
X76000000Y-87600000D03*
X76572950Y-89363353D03*
X78072950Y-90453168D03*
X79927050Y-90453168D03*
X81427050Y-89363353D03*
X82000000Y-87600000D03*
X81427050Y-85836647D03*
X79927050Y-84746832D03*
D14*
X79000000Y-87600000D03*
D12*
X78999999Y-109600000D03*
X78239999Y-110600000D03*
X79759999Y-109600000D03*
X78239999Y-109600000D03*
X79759999Y-110600000D03*
X78999999Y-110600000D03*
D13*
X101172950Y-84746832D03*
X99672950Y-85836647D03*
X99100000Y-87600000D03*
X99672950Y-89363353D03*
X101172950Y-90453168D03*
X103027050Y-90453168D03*
X104527050Y-89363353D03*
X105100000Y-87600000D03*
X104527050Y-85836647D03*
X103027050Y-84746832D03*
D14*
X102100000Y-87600000D03*
D12*
X68739999Y-60000000D03*
X70259999Y-60000000D03*
X68739999Y-61000000D03*
X69499999Y-60000000D03*
X69499999Y-61000000D03*
X70259999Y-61000000D03*
X75760000Y-114200000D03*
X75000000Y-116200000D03*
X74240000Y-114200000D03*
X75760000Y-116200000D03*
X74240000Y-116200000D03*
X75000000Y-114200000D03*
X133939999Y-92600000D03*
X134699999Y-92600000D03*
X134699999Y-91600000D03*
X135459999Y-91600000D03*
X133939999Y-91600000D03*
X135459999Y-92600000D03*
X144199999Y-70000000D03*
X144959999Y-70000000D03*
X143439999Y-69000000D03*
X143439999Y-70000000D03*
X144199999Y-69000000D03*
X144959999Y-69000000D03*
X125200000Y-100600000D03*
X124440000Y-101600000D03*
X125200000Y-101600000D03*
X125960000Y-101600000D03*
X125960000Y-100600000D03*
X124440000Y-100600000D03*
X85404526Y-118540000D03*
X86404526Y-118540000D03*
X85404526Y-120060000D03*
X86404526Y-120060000D03*
X86404526Y-119300000D03*
X85404526Y-119300000D03*
X110839999Y-70000000D03*
X112359999Y-70000000D03*
X111599999Y-69000000D03*
X111599999Y-70000000D03*
X112359999Y-69000000D03*
X110839999Y-69000000D03*
D13*
X133772950Y-71146832D03*
X132272950Y-72236647D03*
X131700000Y-74000000D03*
X132272950Y-75763353D03*
X133772950Y-76853168D03*
X135627050Y-76853168D03*
X137127050Y-75763353D03*
X137700000Y-74000000D03*
X137127050Y-72236647D03*
X135627050Y-71146832D03*
D14*
X134700000Y-74000000D03*
D13*
X78072950Y-93746832D03*
X76572950Y-94836647D03*
X76000000Y-96600000D03*
X76572950Y-98363353D03*
X78072950Y-99453168D03*
X79927050Y-99453168D03*
X81427050Y-98363353D03*
X82000000Y-96600000D03*
X81427050Y-94836647D03*
X79927050Y-93746832D03*
D14*
X79000000Y-96600000D03*
D12*
X144199999Y-92600000D03*
X144199999Y-91600000D03*
X143439999Y-91600000D03*
X144959999Y-92600000D03*
X143439999Y-92600000D03*
X144959999Y-91600000D03*
X133939999Y-79000000D03*
X133939999Y-78000000D03*
X135459999Y-79000000D03*
X135459999Y-78000000D03*
X134699999Y-79000000D03*
X134699999Y-78000000D03*
X79759999Y-60000000D03*
X79759999Y-61000000D03*
X78239999Y-60000000D03*
X78999999Y-60000000D03*
X78239999Y-61000000D03*
X78999999Y-61000000D03*
X70259999Y-92600000D03*
X69499999Y-91600000D03*
X68739999Y-92600000D03*
X70259999Y-91600000D03*
X69499999Y-92600000D03*
X68739999Y-91600000D03*
D11*
X127857689Y-118372947D03*
X126767874Y-116872947D03*
X125004521Y-116299997D03*
X123241168Y-116872947D03*
X122151353Y-118372947D03*
X122151353Y-120227047D03*
X123241168Y-121727047D03*
X125004521Y-122299997D03*
X126767874Y-121727047D03*
X127857689Y-120227047D03*
D13*
X143272950Y-53146832D03*
X141772950Y-54236647D03*
X141200000Y-56000000D03*
X141772950Y-57763353D03*
X143272950Y-58853168D03*
X145127050Y-58853168D03*
X146627050Y-57763353D03*
X147200000Y-56000000D03*
X146627050Y-54236647D03*
X145127050Y-53146832D03*
D14*
X144200000Y-56000000D03*
D12*
X144199999Y-52000000D03*
X143439999Y-51000000D03*
X144959999Y-51000000D03*
X143439999Y-52000000D03*
X144199999Y-51000000D03*
X144959999Y-52000000D03*
D13*
X124272951Y-53146832D03*
X122772951Y-54236647D03*
X122200001Y-56000000D03*
X122772951Y-57763353D03*
X124272951Y-58853168D03*
X126127051Y-58853168D03*
X127627051Y-57763353D03*
X128200001Y-56000000D03*
X127627051Y-54236647D03*
X126127051Y-53146832D03*
D14*
X125200001Y-56000000D03*
D12*
X60000000Y-92600000D03*
X60760000Y-91600000D03*
X59240000Y-92600000D03*
X60000000Y-91600000D03*
X60760000Y-92600000D03*
X59240000Y-91600000D03*
D13*
X124272951Y-62146832D03*
X122772951Y-63236647D03*
X122200001Y-65000000D03*
X122772951Y-66763353D03*
X124272951Y-67853168D03*
X126127051Y-67853168D03*
X127627051Y-66763353D03*
X128200001Y-65000000D03*
X127627051Y-63236647D03*
X126127051Y-62146832D03*
D14*
X125200001Y-65000000D03*
D13*
X91672951Y-93746832D03*
X90172951Y-94836647D03*
X89600001Y-96600000D03*
X90172951Y-98363353D03*
X91672951Y-99453168D03*
X93527051Y-99453168D03*
X95027051Y-98363353D03*
X95600001Y-96600000D03*
X95027051Y-94836647D03*
X93527051Y-93746832D03*
D14*
X92600001Y-96600000D03*
D13*
X133772950Y-93746832D03*
X132272950Y-94836647D03*
X131700000Y-96600000D03*
X132272950Y-98363353D03*
X133772950Y-99453168D03*
X135627050Y-99453168D03*
X137127050Y-98363353D03*
X137700000Y-96600000D03*
X137127050Y-94836647D03*
X135627050Y-93746832D03*
D14*
X134700000Y-96600000D03*
D13*
X143272950Y-102746832D03*
X141772950Y-103836647D03*
X141200000Y-105600000D03*
X141772950Y-107363353D03*
X143272950Y-108453168D03*
X145127050Y-108453168D03*
X146627050Y-107363353D03*
X147200000Y-105600000D03*
X146627050Y-103836647D03*
X145127050Y-102746832D03*
D14*
X144200000Y-105600000D03*
D12*
X103964526Y-115200000D03*
X102444526Y-115200000D03*
X103964526Y-114200000D03*
X103204526Y-114200000D03*
X102444526Y-114200000D03*
X103204526Y-115200000D03*
X135459999Y-101600000D03*
X133939999Y-101600000D03*
X134699999Y-100600000D03*
X135459999Y-100600000D03*
X133939999Y-100600000D03*
X134699999Y-101600000D03*
X91840000Y-79000000D03*
X92600000Y-79000000D03*
X93360000Y-79000000D03*
X93360000Y-78000000D03*
X91840000Y-78000000D03*
X92600000Y-78000000D03*
X78999999Y-91600000D03*
X79759999Y-92600000D03*
X79759999Y-91600000D03*
X78999999Y-92600000D03*
X78239999Y-91600000D03*
X78239999Y-92600000D03*
D13*
X133772950Y-62146832D03*
X132272950Y-63236647D03*
X131700000Y-65000000D03*
X132272950Y-66763353D03*
X133772950Y-67853168D03*
X135627050Y-67853168D03*
X137127050Y-66763353D03*
X137700000Y-65000000D03*
X137127050Y-63236647D03*
X135627050Y-62146832D03*
D14*
X134700000Y-65000000D03*
D12*
X70259999Y-101600000D03*
X69499999Y-100600000D03*
X68739999Y-101600000D03*
X70259999Y-100600000D03*
X69499999Y-101600000D03*
X68739999Y-100600000D03*
D11*
X106057689Y-118372947D03*
X104967874Y-116872947D03*
X103204521Y-116299997D03*
X101441168Y-116872947D03*
X100351353Y-118372947D03*
X100351353Y-120227047D03*
X101441168Y-121727047D03*
X103204521Y-122299997D03*
X104967874Y-121727047D03*
X106057689Y-120227047D03*
D13*
X124272951Y-71146832D03*
X122772951Y-72236647D03*
X122200001Y-74000000D03*
X122772951Y-75763353D03*
X124272951Y-76853168D03*
X126127051Y-76853168D03*
X127627051Y-75763353D03*
X128200001Y-74000000D03*
X127627051Y-72236647D03*
X126127051Y-71146832D03*
D14*
X125200001Y-74000000D03*
D12*
X102859999Y-79000000D03*
X101339999Y-78000000D03*
X101339999Y-79000000D03*
X102859999Y-78000000D03*
X102099999Y-78000000D03*
X102099999Y-79000000D03*
X69499999Y-69000000D03*
X70259999Y-70000000D03*
X68739999Y-69000000D03*
X68739999Y-70000000D03*
X70259999Y-69000000D03*
X69499999Y-70000000D03*
X111599999Y-83600000D03*
X111599999Y-82600000D03*
X110839999Y-83600000D03*
X112359999Y-83600000D03*
X110839999Y-82600000D03*
X112359999Y-82600000D03*
X112359999Y-92600000D03*
X112359999Y-91600000D03*
X111599999Y-91600000D03*
X110839999Y-91600000D03*
X110839999Y-92600000D03*
X111599999Y-92600000D03*
X91840000Y-60000000D03*
X93360000Y-60000000D03*
X92600000Y-60000000D03*
X93360000Y-61000000D03*
X92600000Y-61000000D03*
X91840000Y-61000000D03*
X93360000Y-100600000D03*
X92600000Y-101600000D03*
X93360000Y-101600000D03*
X92600000Y-100600000D03*
X91840000Y-101600000D03*
X91840000Y-100600000D03*
X144199999Y-82600000D03*
X143439999Y-82600000D03*
X143439999Y-83600000D03*
X144959999Y-82600000D03*
X144959999Y-83600000D03*
X144199999Y-83600000D03*
X60364526Y-123400000D03*
X58844526Y-123400000D03*
X60364526Y-124400000D03*
X59604526Y-123400000D03*
X59604526Y-124400000D03*
X58844526Y-124400000D03*
X117640000Y-53000000D03*
X118400000Y-53000000D03*
X118400000Y-51000000D03*
X117640000Y-51000000D03*
X119160000Y-53000000D03*
X119160000Y-51000000D03*
D13*
X133772950Y-102746832D03*
X132272950Y-103836647D03*
X131700000Y-105600000D03*
X132272950Y-107363353D03*
X133772950Y-108453168D03*
X135627050Y-108453168D03*
X137127050Y-107363353D03*
X137700000Y-105600000D03*
X137127050Y-103836647D03*
X135627050Y-102746832D03*
D14*
X134700000Y-105600000D03*
D12*
X125960000Y-91600000D03*
X124440000Y-92600000D03*
X125960000Y-92600000D03*
X125200000Y-91600000D03*
X125200000Y-92600000D03*
X124440000Y-91600000D03*
D13*
X110672950Y-62146832D03*
X109172950Y-63236647D03*
X108600000Y-65000000D03*
X109172950Y-66763353D03*
X110672950Y-67853168D03*
X112527050Y-67853168D03*
X114027050Y-66763353D03*
X114600000Y-65000000D03*
X114027050Y-63236647D03*
X112527050Y-62146832D03*
D14*
X111600000Y-65000000D03*
D13*
X91672951Y-102746832D03*
X90172951Y-103836647D03*
X89600001Y-105600000D03*
X90172951Y-107363353D03*
X91672951Y-108453168D03*
X93527051Y-108453168D03*
X95027051Y-107363353D03*
X95600001Y-105600000D03*
X95027051Y-103836647D03*
X93527051Y-102746832D03*
D14*
X92600001Y-105600000D03*
D12*
X119360000Y-114200000D03*
X119360000Y-116200000D03*
X117840000Y-114200000D03*
X117840000Y-116200000D03*
X118600000Y-116200000D03*
X118600000Y-114200000D03*
D11*
X131148890Y-120222297D03*
X132238705Y-121722297D03*
X134002058Y-122295247D03*
X135765411Y-121722297D03*
X136855226Y-120222297D03*
X136855226Y-118368197D03*
X135765411Y-116868197D03*
X134002058Y-116295247D03*
X132238705Y-116868197D03*
X131148890Y-118368197D03*
D13*
X110672950Y-53146832D03*
X109172950Y-54236647D03*
X108600000Y-56000000D03*
X109172950Y-57763353D03*
X110672950Y-58853168D03*
X112527050Y-58853168D03*
X114027050Y-57763353D03*
X114600000Y-56000000D03*
X114027050Y-54236647D03*
X112527050Y-53146832D03*
D14*
X111600000Y-56000000D03*
D13*
X91672951Y-71146832D03*
X90172951Y-72236647D03*
X89600001Y-74000000D03*
X90172951Y-75763353D03*
X91672951Y-76853168D03*
X93527051Y-76853168D03*
X95027051Y-75763353D03*
X95600001Y-74000000D03*
X95027051Y-72236647D03*
X93527051Y-71146832D03*
D14*
X92600001Y-74000000D03*
D12*
X69362053Y-115195244D03*
X68602053Y-114195244D03*
X69362053Y-114195244D03*
X68602053Y-115195244D03*
X67842053Y-115195244D03*
X67842053Y-114195244D03*
X60760000Y-101600000D03*
X59240000Y-100600000D03*
X60000000Y-101600000D03*
X60000000Y-100600000D03*
X60760000Y-100600000D03*
X59240000Y-101600000D03*
X78239999Y-78000000D03*
X78999999Y-78000000D03*
X79759999Y-79000000D03*
X78239999Y-79000000D03*
X79759999Y-78000000D03*
X78999999Y-79000000D03*
X59240000Y-70000000D03*
X60760000Y-69000000D03*
X60000000Y-70000000D03*
X59240000Y-69000000D03*
X60000000Y-69000000D03*
X60760000Y-70000000D03*
X78999999Y-70000000D03*
X79759999Y-70000000D03*
X79759999Y-69000000D03*
X78999999Y-69000000D03*
X78239999Y-70000000D03*
X78239999Y-69000000D03*
X125200000Y-61000000D03*
X125960000Y-61000000D03*
X124440000Y-61000000D03*
X125200000Y-60000000D03*
X125960000Y-60000000D03*
X124440000Y-60000000D03*
D13*
X68572950Y-84746832D03*
X67072950Y-85836647D03*
X66500000Y-87600000D03*
X67072950Y-89363353D03*
X68572950Y-90453168D03*
X70427050Y-90453168D03*
X71927050Y-89363353D03*
X72500000Y-87600000D03*
X71927050Y-85836647D03*
X70427050Y-84746832D03*
D14*
X69500000Y-87600000D03*
D12*
X124244526Y-114200000D03*
X125764526Y-114200000D03*
X125764526Y-115200000D03*
X125004526Y-114200000D03*
X124244526Y-115200000D03*
X125004526Y-115200000D03*
X52440000Y-82600000D03*
X52440000Y-84600000D03*
X53960000Y-82600000D03*
X53200000Y-84600000D03*
X53200000Y-82600000D03*
X53960000Y-84600000D03*
X150240000Y-53000000D03*
X151760000Y-53000000D03*
X150240000Y-51000000D03*
X151000000Y-51000000D03*
X151000000Y-53000000D03*
X151760000Y-51000000D03*
X133939999Y-69000000D03*
X134699999Y-69000000D03*
X134699999Y-70000000D03*
X135459999Y-69000000D03*
X135459999Y-70000000D03*
X133939999Y-70000000D03*
X102859999Y-83600000D03*
X102099999Y-82600000D03*
X102099999Y-83600000D03*
X101339999Y-82600000D03*
X102859999Y-82600000D03*
X101339999Y-83600000D03*
D13*
X59072951Y-71146832D03*
X57572951Y-72236647D03*
X57000001Y-74000000D03*
X57572951Y-75763353D03*
X59072951Y-76853168D03*
X60927051Y-76853168D03*
X62427051Y-75763353D03*
X63000001Y-74000000D03*
X62427051Y-72236647D03*
X60927051Y-71146832D03*
D14*
X60000001Y-74000000D03*
D13*
X101172950Y-102746832D03*
X99672950Y-103836647D03*
X99100000Y-105600000D03*
X99672950Y-107363353D03*
X101172950Y-108453168D03*
X103027050Y-108453168D03*
X104527050Y-107363353D03*
X105100000Y-105600000D03*
X104527050Y-103836647D03*
X103027050Y-102746832D03*
D14*
X102100000Y-105600000D03*
D13*
X133772950Y-53146832D03*
X132272950Y-54236647D03*
X131700000Y-56000000D03*
X132272950Y-57763353D03*
X133772950Y-58853168D03*
X135627050Y-58853168D03*
X137127050Y-57763353D03*
X137700000Y-56000000D03*
X137127050Y-54236647D03*
X135627050Y-53146832D03*
D14*
X134700000Y-56000000D03*
D12*
X64604526Y-120060000D03*
X63604526Y-120060000D03*
X64604526Y-119300000D03*
X64604526Y-118540000D03*
X63604526Y-118540000D03*
X63604526Y-119300000D03*
D11*
X84257689Y-118372947D03*
X83167874Y-116872947D03*
X81404521Y-116299997D03*
X79641168Y-116872947D03*
X78551353Y-118372947D03*
X78551353Y-120227047D03*
X79641168Y-121727047D03*
X81404521Y-122299997D03*
X83167874Y-121727047D03*
X84257689Y-120227047D03*
D12*
X133939999Y-83600000D03*
X135459999Y-82600000D03*
X135459999Y-83600000D03*
X134699999Y-82600000D03*
X134699999Y-83600000D03*
X133939999Y-82600000D03*
X53960000Y-79000000D03*
X53200000Y-79000000D03*
X53960000Y-77000000D03*
X52440000Y-79000000D03*
X52440000Y-77000000D03*
X53200000Y-77000000D03*
D13*
X124272951Y-102746832D03*
X122772951Y-103836647D03*
X122200001Y-105600000D03*
X122772951Y-107363353D03*
X124272951Y-108453168D03*
X126127051Y-108453168D03*
X127627051Y-107363353D03*
X128200001Y-105600000D03*
X127627051Y-103836647D03*
X126127051Y-102746832D03*
D14*
X125200001Y-105600000D03*
D12*
X112359999Y-51000000D03*
X110839999Y-51000000D03*
X112359999Y-52000000D03*
X110839999Y-52000000D03*
X111599999Y-52000000D03*
X111599999Y-51000000D03*
X93360000Y-69000000D03*
X91840000Y-70000000D03*
X92600000Y-69000000D03*
X91840000Y-69000000D03*
X93360000Y-70000000D03*
X92600000Y-70000000D03*
D13*
X59072951Y-53146832D03*
X57572951Y-54236647D03*
X57000001Y-56000000D03*
X57572951Y-57763353D03*
X59072951Y-58853168D03*
X60927051Y-58853168D03*
X62427051Y-57763353D03*
X63000001Y-56000000D03*
X62427051Y-54236647D03*
X60927051Y-53146832D03*
D14*
X60000001Y-56000000D03*
D13*
X91672951Y-53146832D03*
X90172951Y-54236647D03*
X89600001Y-56000000D03*
X90172951Y-57763353D03*
X91672951Y-58853168D03*
X93527051Y-58853168D03*
X95027051Y-57763353D03*
X95600001Y-56000000D03*
X95027051Y-54236647D03*
X93527051Y-53146832D03*
D14*
X92600001Y-56000000D03*
D12*
X68739999Y-109600000D03*
X70259999Y-109600000D03*
X70259999Y-110600000D03*
X69499999Y-109600000D03*
X69499999Y-110600000D03*
X68739999Y-110600000D03*
X60000000Y-78000000D03*
X60760000Y-78000000D03*
X59240000Y-79000000D03*
X60000000Y-79000000D03*
X59240000Y-78000000D03*
X60760000Y-79000000D03*
X110839999Y-110600000D03*
X111599999Y-109600000D03*
X111599999Y-110600000D03*
X112359999Y-109600000D03*
X112359999Y-110600000D03*
X110839999Y-109600000D03*
X112202053Y-124395244D03*
X112962053Y-123395244D03*
X112962053Y-124395244D03*
X112202053Y-123395244D03*
X111442053Y-123395244D03*
X111442053Y-124395244D03*
X69499999Y-79000000D03*
X70259999Y-78000000D03*
X68739999Y-79000000D03*
X70259999Y-79000000D03*
X68739999Y-78000000D03*
X69499999Y-78000000D03*
X135459999Y-110600000D03*
X134699999Y-110600000D03*
X134699999Y-109600000D03*
X133939999Y-110600000D03*
X135459999Y-109600000D03*
X133939999Y-109600000D03*
X144959999Y-100600000D03*
X144199999Y-100600000D03*
X144199999Y-101600000D03*
X143439999Y-101600000D03*
X144959999Y-101600000D03*
X143439999Y-100600000D03*
D13*
X78072950Y-102746832D03*
X76572950Y-103836647D03*
X76000000Y-105600000D03*
X76572950Y-107363353D03*
X78072950Y-108453168D03*
X79927050Y-108453168D03*
X81427050Y-107363353D03*
X82000000Y-105600000D03*
X81427050Y-103836647D03*
X79927050Y-102746832D03*
D14*
X79000000Y-105600000D03*
D12*
X103964526Y-124400000D03*
X102444526Y-124400000D03*
X103204526Y-124400000D03*
X103964526Y-123400000D03*
X103204526Y-123400000D03*
X102444526Y-123400000D03*
X151760000Y-82600000D03*
X151000000Y-84600000D03*
X150240000Y-84600000D03*
X151000000Y-82600000D03*
X151760000Y-84600000D03*
X150240000Y-82600000D03*
X59240000Y-52000000D03*
X60760000Y-51000000D03*
X60760000Y-52000000D03*
X60000000Y-51000000D03*
X60000000Y-52000000D03*
X59240000Y-51000000D03*
D13*
X68572950Y-93746832D03*
X67072950Y-94836647D03*
X66500000Y-96600000D03*
X67072950Y-98363353D03*
X68572950Y-99453168D03*
X70427050Y-99453168D03*
X71927050Y-98363353D03*
X72500000Y-96600000D03*
X71927050Y-94836647D03*
X70427050Y-93746832D03*
D14*
X69500000Y-96600000D03*
D13*
X59072951Y-102746832D03*
X57572951Y-103836647D03*
X57000001Y-105600000D03*
X57572951Y-107363353D03*
X59072951Y-108453168D03*
X60927051Y-108453168D03*
X62427051Y-107363353D03*
X63000001Y-105600000D03*
X62427051Y-103836647D03*
X60927051Y-102746832D03*
D14*
X60000001Y-105600000D03*
D12*
X151000000Y-116200000D03*
X151760000Y-114200000D03*
X151000000Y-114200000D03*
X150240000Y-114200000D03*
X151760000Y-116200000D03*
X150240000Y-116200000D03*
X102099999Y-91600000D03*
X102859999Y-92600000D03*
X102859999Y-91600000D03*
X101339999Y-91600000D03*
X101339999Y-92600000D03*
X102099999Y-92600000D03*
X86560000Y-51000000D03*
X85800000Y-51000000D03*
X86560000Y-53000000D03*
X85040000Y-53000000D03*
X85040000Y-51000000D03*
X85800000Y-53000000D03*
X125200000Y-70000000D03*
X124440000Y-69000000D03*
X125200000Y-69000000D03*
X125960000Y-69000000D03*
X125960000Y-70000000D03*
X124440000Y-70000000D03*
X134762053Y-124395244D03*
X133242053Y-124395244D03*
X134002053Y-123395244D03*
X134002053Y-124395244D03*
X133242053Y-123395244D03*
X134762053Y-123395244D03*
X101339999Y-52000000D03*
X102859999Y-52000000D03*
X102859999Y-51000000D03*
X102099999Y-52000000D03*
X102099999Y-51000000D03*
X101339999Y-51000000D03*
D13*
X143272950Y-93746832D03*
X141772950Y-94836647D03*
X141200000Y-96600000D03*
X141772950Y-98363353D03*
X143272950Y-99453168D03*
X145127050Y-99453168D03*
X146627050Y-98363353D03*
X147200000Y-96600000D03*
X146627050Y-94836647D03*
X145127050Y-93746832D03*
D14*
X144200000Y-96600000D03*
D12*
X85040000Y-108600000D03*
X86560000Y-108600000D03*
X85800000Y-110600000D03*
X86560000Y-110600000D03*
X85040000Y-110600000D03*
X85800000Y-108600000D03*
X151760000Y-110600000D03*
X150240000Y-110600000D03*
X151760000Y-108600000D03*
X151000000Y-110600000D03*
X150240000Y-108600000D03*
X151000000Y-108600000D03*
X134699999Y-51000000D03*
X135459999Y-51000000D03*
X133939999Y-51000000D03*
X135459999Y-52000000D03*
X133939999Y-52000000D03*
X134699999Y-52000000D03*
X130004526Y-120060000D03*
X130004526Y-118540000D03*
X129004526Y-118540000D03*
X129004526Y-119300000D03*
X130004526Y-119300000D03*
X129004526Y-120060000D03*
X125764526Y-124400000D03*
X125004526Y-123400000D03*
X124244526Y-123400000D03*
X124244526Y-124400000D03*
X125004526Y-124400000D03*
X125764526Y-123400000D03*
D13*
X78072950Y-71146832D03*
X76572950Y-72236647D03*
X76000000Y-74000000D03*
X76572950Y-75763353D03*
X78072950Y-76853168D03*
X79927050Y-76853168D03*
X81427050Y-75763353D03*
X82000000Y-74000000D03*
X81427050Y-72236647D03*
X79927050Y-71146832D03*
D14*
X79000000Y-74000000D03*
D12*
X150240000Y-122400000D03*
X151760000Y-124400000D03*
X151000000Y-122400000D03*
X150240000Y-124400000D03*
X151760000Y-122400000D03*
X151000000Y-124400000D03*
X53960000Y-124400000D03*
X53200000Y-124400000D03*
X52440000Y-122400000D03*
X52440000Y-124400000D03*
X53200000Y-122400000D03*
X53960000Y-122400000D03*
D13*
X124272951Y-93746832D03*
X122772951Y-94836647D03*
X122200001Y-96600000D03*
X122772951Y-98363353D03*
X124272951Y-99453168D03*
X126127051Y-99453168D03*
X127627051Y-98363353D03*
X128200001Y-96600000D03*
X127627051Y-94836647D03*
X126127051Y-93746832D03*
D14*
X125200001Y-96600000D03*
D12*
X144199999Y-60000000D03*
X143439999Y-61000000D03*
X143439999Y-60000000D03*
X144959999Y-61000000D03*
X144199999Y-61000000D03*
X144959999Y-60000000D03*
X134699999Y-61000000D03*
X135459999Y-60000000D03*
X133939999Y-60000000D03*
X134699999Y-60000000D03*
X133939999Y-61000000D03*
X135459999Y-61000000D03*
X85800000Y-82600000D03*
X85800000Y-84600000D03*
X86560000Y-84600000D03*
X86560000Y-82600000D03*
X85040000Y-84600000D03*
X85040000Y-82600000D03*
X141160000Y-122400000D03*
X141160000Y-124400000D03*
X139640000Y-122400000D03*
X139640000Y-124400000D03*
X140400000Y-122400000D03*
X140400000Y-124400000D03*
X110839999Y-79000000D03*
X110839999Y-78000000D03*
X111599999Y-79000000D03*
X112359999Y-79000000D03*
X112359999Y-78000000D03*
X111599999Y-78000000D03*
X89642053Y-123395244D03*
X90402053Y-124395244D03*
X91162053Y-123395244D03*
X89642053Y-124395244D03*
X91162053Y-124395244D03*
X90402053Y-123395244D03*
D13*
X68572950Y-102746832D03*
X67072950Y-103836647D03*
X66500000Y-105600000D03*
X67072950Y-107363353D03*
X68572950Y-108453168D03*
X70427050Y-108453168D03*
X71927050Y-107363353D03*
X72500000Y-105600000D03*
X71927050Y-103836647D03*
X70427050Y-102746832D03*
D14*
X69500000Y-105600000D03*
D12*
X125200000Y-79000000D03*
X125200000Y-78000000D03*
X125960000Y-78000000D03*
X125960000Y-79000000D03*
X124440000Y-79000000D03*
X124440000Y-78000000D03*
D13*
X110672950Y-93746832D03*
X109172950Y-94836647D03*
X108600000Y-96600000D03*
X109172950Y-98363353D03*
X110672950Y-99453168D03*
X112527050Y-99453168D03*
X114027050Y-98363353D03*
X114600000Y-96600000D03*
X114027050Y-94836647D03*
X112527050Y-93746832D03*
D14*
X111600000Y-96600000D03*
D12*
X110839999Y-101600000D03*
X110839999Y-100600000D03*
X112359999Y-100600000D03*
X111599999Y-101600000D03*
X112359999Y-101600000D03*
X111599999Y-100600000D03*
D13*
X133772950Y-84746832D03*
X132272950Y-85836647D03*
X131700000Y-87600000D03*
X132272950Y-89363353D03*
X133772950Y-90453168D03*
X135627050Y-90453168D03*
X137127050Y-89363353D03*
X137700000Y-87600000D03*
X137127050Y-85836647D03*
X135627050Y-84746832D03*
D14*
X134700000Y-87600000D03*
D12*
X80644526Y-114200000D03*
X80644526Y-115200000D03*
X82164526Y-115200000D03*
X82164526Y-114200000D03*
X81404526Y-114200000D03*
X81404526Y-115200000D03*
X70259999Y-82600000D03*
X68739999Y-82600000D03*
X69499999Y-83600000D03*
X68739999Y-83600000D03*
X70259999Y-83600000D03*
X69499999Y-82600000D03*
X111442053Y-115195244D03*
X112202053Y-115195244D03*
X111442053Y-114195244D03*
X112202053Y-114195244D03*
X112962053Y-115195244D03*
X112962053Y-114195244D03*
D13*
X59072951Y-62146832D03*
X57572951Y-63236647D03*
X57000001Y-65000000D03*
X57572951Y-66763353D03*
X59072951Y-67853168D03*
X60927051Y-67853168D03*
X62427051Y-66763353D03*
X63000001Y-65000000D03*
X62427051Y-63236647D03*
X60927051Y-62146832D03*
D14*
X60000001Y-65000000D03*
D13*
X68572950Y-53146832D03*
X67072950Y-54236647D03*
X66500000Y-56000000D03*
X67072950Y-57763353D03*
X68572950Y-58853168D03*
X70427050Y-58853168D03*
X71927050Y-57763353D03*
X72500000Y-56000000D03*
X71927050Y-54236647D03*
X70427050Y-53146832D03*
D14*
X69500000Y-56000000D03*
D12*
X118400000Y-77000000D03*
X117640000Y-79000000D03*
X117640000Y-77000000D03*
X119160000Y-79000000D03*
X118400000Y-79000000D03*
X119160000Y-77000000D03*
X101339999Y-100600000D03*
X102099999Y-101600000D03*
X101339999Y-101600000D03*
X102859999Y-100600000D03*
X102859999Y-101600000D03*
X102099999Y-100600000D03*
D13*
X59072951Y-93746832D03*
X57572951Y-94836647D03*
X57000001Y-96600000D03*
X57572951Y-98363353D03*
X59072951Y-99453168D03*
X60927051Y-99453168D03*
X62427051Y-98363353D03*
X63000001Y-96600000D03*
X62427051Y-94836647D03*
X60927051Y-93746832D03*
D14*
X60000001Y-96600000D03*
D12*
X150240000Y-77000000D03*
X151760000Y-77000000D03*
X150240000Y-79000000D03*
X151000000Y-79000000D03*
X151000000Y-77000000D03*
X151760000Y-79000000D03*
X108204526Y-118540000D03*
X107204526Y-119300000D03*
X107204526Y-118540000D03*
X108204526Y-119300000D03*
X108204526Y-120060000D03*
X107204526Y-120060000D03*
X140400000Y-116200000D03*
X139640000Y-114200000D03*
X141160000Y-116200000D03*
X139640000Y-116200000D03*
X141160000Y-114200000D03*
X140400000Y-114200000D03*
X85040000Y-77000000D03*
X86560000Y-77000000D03*
X85800000Y-79000000D03*
X86560000Y-79000000D03*
X85040000Y-79000000D03*
X85800000Y-77000000D03*
D11*
X65748890Y-120222297D03*
X66838705Y-121722297D03*
X68602058Y-122295247D03*
X70365411Y-121722297D03*
X71455226Y-120222297D03*
X71455226Y-118368197D03*
X70365411Y-116868197D03*
X68602058Y-116295247D03*
X66838705Y-116868197D03*
X65748890Y-118368197D03*
D13*
X143272950Y-84746832D03*
X141772950Y-85836647D03*
X141200000Y-87600000D03*
X141772950Y-89363353D03*
X143272950Y-90453168D03*
X145127050Y-90453168D03*
X146627050Y-89363353D03*
X147200000Y-87600000D03*
X146627050Y-85836647D03*
X145127050Y-84746832D03*
D14*
X144200000Y-87600000D03*
D12*
X144959999Y-109600000D03*
X144199999Y-109600000D03*
X143439999Y-110600000D03*
X143439999Y-109600000D03*
X144959999Y-110600000D03*
X144199999Y-110600000D03*
X93360000Y-110600000D03*
X93360000Y-109600000D03*
X92600000Y-109600000D03*
X91840000Y-109600000D03*
X92600000Y-110600000D03*
X91840000Y-110600000D03*
D13*
X110672950Y-84746832D03*
X109172950Y-85836647D03*
X108600000Y-87600000D03*
X109172950Y-89363353D03*
X110672950Y-90453168D03*
X112527050Y-90453168D03*
X114027050Y-89363353D03*
X114600000Y-87600000D03*
X114027050Y-85836647D03*
X112527050Y-84746832D03*
D14*
X111600000Y-87600000D03*
D12*
X101339999Y-69000000D03*
X102099999Y-69000000D03*
X102099999Y-70000000D03*
X101339999Y-70000000D03*
X102859999Y-69000000D03*
X102859999Y-70000000D03*
X80644526Y-123400000D03*
X81404526Y-124400000D03*
X80644526Y-124400000D03*
X82164526Y-124400000D03*
X81404526Y-123400000D03*
X82164526Y-123400000D03*
X118400000Y-82600000D03*
X119160000Y-82600000D03*
X119160000Y-84600000D03*
X117640000Y-82600000D03*
X117640000Y-84600000D03*
X118400000Y-84600000D03*
X53200000Y-51000000D03*
X53200000Y-53000000D03*
X53960000Y-53000000D03*
X52440000Y-53000000D03*
X53960000Y-51000000D03*
X52440000Y-51000000D03*
D13*
X143272950Y-62146832D03*
X141772950Y-63236647D03*
X141200000Y-65000000D03*
X141772950Y-66763353D03*
X143272950Y-67853168D03*
X145127050Y-67853168D03*
X146627050Y-66763353D03*
X147200000Y-65000000D03*
X146627050Y-63236647D03*
X145127050Y-62146832D03*
D14*
X144200000Y-65000000D03*
D13*
X78072950Y-62146832D03*
X76572950Y-63236647D03*
X76000000Y-65000000D03*
X76572950Y-66763353D03*
X78072950Y-67853168D03*
X79927050Y-67853168D03*
X81427050Y-66763353D03*
X82000000Y-65000000D03*
X81427050Y-63236647D03*
X79927050Y-62146832D03*
D14*
X79000000Y-65000000D03*
D13*
X101172950Y-71146832D03*
X99672950Y-72236647D03*
X99100000Y-74000000D03*
X99672950Y-75763353D03*
X101172950Y-76853168D03*
X103027050Y-76853168D03*
X104527050Y-75763353D03*
X105100000Y-74000000D03*
X104527050Y-72236647D03*
X103027050Y-71146832D03*
D14*
X102100000Y-74000000D03*
D13*
X110672950Y-102746832D03*
X109172950Y-103836647D03*
X108600000Y-105600000D03*
X109172950Y-107363353D03*
X110672950Y-108453168D03*
X112527050Y-108453168D03*
X114027050Y-107363353D03*
X114600000Y-105600000D03*
X114027050Y-103836647D03*
X112527050Y-102746832D03*
D14*
X111600000Y-105600000D03*
D13*
X91672951Y-62146832D03*
X90172951Y-63236647D03*
X89600001Y-65000000D03*
X90172951Y-66763353D03*
X91672951Y-67853168D03*
X93527051Y-67853168D03*
X95027051Y-66763353D03*
X95600001Y-65000000D03*
X95027051Y-63236647D03*
X93527051Y-62146832D03*
D14*
X92600001Y-65000000D03*
D12*
X119360000Y-124400000D03*
X119360000Y-122400000D03*
X118600000Y-124400000D03*
X117840000Y-122400000D03*
X117840000Y-124400000D03*
X118600000Y-122400000D03*
X101339999Y-61000000D03*
X102099999Y-61000000D03*
X102099999Y-60000000D03*
X102859999Y-61000000D03*
X101339999Y-60000000D03*
X102859999Y-60000000D03*
X91840000Y-51000000D03*
X93360000Y-51000000D03*
X93360000Y-52000000D03*
X92600000Y-51000000D03*
X91840000Y-52000000D03*
X92600000Y-52000000D03*
D11*
X109348890Y-120222297D03*
X110438705Y-121722297D03*
X112202058Y-122295247D03*
X113965411Y-121722297D03*
X115055226Y-120222297D03*
X115055226Y-118368197D03*
X113965411Y-116868197D03*
X112202058Y-116295247D03*
X110438705Y-116868197D03*
X109348890Y-118368197D03*
D12*
X60760000Y-110600000D03*
X59240000Y-110600000D03*
X60000000Y-109600000D03*
X59240000Y-109600000D03*
X60760000Y-109600000D03*
X60000000Y-110600000D03*
X52440000Y-108600000D03*
X53200000Y-108600000D03*
X52440000Y-110600000D03*
X53960000Y-110600000D03*
X53200000Y-110600000D03*
X53960000Y-108600000D03*
X53200000Y-114200000D03*
X52440000Y-116200000D03*
X52440000Y-114200000D03*
X53200000Y-116200000D03*
X53960000Y-116200000D03*
X53960000Y-114200000D03*
D13*
X78072950Y-53146832D03*
X76572950Y-54236647D03*
X76000000Y-56000000D03*
X76572950Y-57763353D03*
X78072950Y-58853168D03*
X79927050Y-58853168D03*
X81427050Y-57763353D03*
X82000000Y-56000000D03*
X81427050Y-54236647D03*
X79927050Y-53146832D03*
D14*
X79000000Y-56000000D03*
D13*
X91672951Y-84746832D03*
X90172951Y-85836647D03*
X89600001Y-87600000D03*
X90172951Y-89363353D03*
X91672951Y-90453168D03*
X93527051Y-90453168D03*
X95027051Y-89363353D03*
X95600001Y-87600000D03*
X95027051Y-85836647D03*
X93527051Y-84746832D03*
D14*
X92600001Y-87600000D03*
D12*
X125200000Y-52000000D03*
X125960000Y-51000000D03*
X125200000Y-51000000D03*
X125960000Y-52000000D03*
X124440000Y-52000000D03*
X124440000Y-51000000D03*
D13*
X110672950Y-71146832D03*
X109172950Y-72236647D03*
X108600000Y-74000000D03*
X109172950Y-75763353D03*
X110672950Y-76853168D03*
X112527050Y-76853168D03*
X114027050Y-75763353D03*
X114600000Y-74000000D03*
X114027050Y-72236647D03*
X112527050Y-71146832D03*
D14*
X111600000Y-74000000D03*
D13*
X101172950Y-62146832D03*
X99672950Y-63236647D03*
X99100000Y-65000000D03*
X99672950Y-66763353D03*
X101172950Y-67853168D03*
X103027050Y-67853168D03*
X104527050Y-66763353D03*
X105100000Y-65000000D03*
X104527050Y-63236647D03*
X103027050Y-62146832D03*
D14*
X102100000Y-65000000D03*
D12*
X93360000Y-83600000D03*
X91840000Y-83600000D03*
X91840000Y-82600000D03*
X93360000Y-82600000D03*
X92600000Y-82600000D03*
X92600000Y-83600000D03*
D13*
X101172950Y-53146832D03*
X99672950Y-54236647D03*
X99100000Y-56000000D03*
X99672950Y-57763353D03*
X101172950Y-58853168D03*
X103027050Y-58853168D03*
X104527050Y-57763353D03*
X105100000Y-56000000D03*
X104527050Y-54236647D03*
X103027050Y-53146832D03*
D14*
X102100000Y-56000000D03*
D12*
X96040000Y-114200000D03*
X97560000Y-114200000D03*
X96800000Y-114200000D03*
X97560000Y-116200000D03*
X96040000Y-116200000D03*
X96800000Y-116200000D03*
X79759999Y-82600000D03*
X78239999Y-82600000D03*
X78239999Y-83600000D03*
X79759999Y-83600000D03*
X78999999Y-82600000D03*
X78999999Y-83600000D03*
X92600000Y-92600000D03*
X91840000Y-92600000D03*
X91840000Y-91600000D03*
X93360000Y-91600000D03*
X92600000Y-91600000D03*
X93360000Y-92600000D03*
X60000000Y-60000000D03*
X59240000Y-60000000D03*
X60000000Y-61000000D03*
X60760000Y-60000000D03*
X59240000Y-61000000D03*
X60760000Y-61000000D03*
X133242053Y-115195244D03*
X134762053Y-114195244D03*
X134762053Y-115195244D03*
X134002053Y-114195244D03*
X133242053Y-114195244D03*
X134002053Y-115195244D03*
D13*
X68572950Y-71146832D03*
X67072950Y-72236647D03*
X66500000Y-74000000D03*
X67072950Y-75763353D03*
X68572950Y-76853168D03*
X70427050Y-76853168D03*
X71927050Y-75763353D03*
X72500000Y-74000000D03*
X71927050Y-72236647D03*
X70427050Y-71146832D03*
D14*
X69500000Y-74000000D03*
D12*
X59604526Y-115200000D03*
X58844526Y-114200000D03*
X59604526Y-114200000D03*
X60364526Y-114200000D03*
X58844526Y-115200000D03*
X60364526Y-115200000D03*
X75000000Y-122400000D03*
X74240000Y-122400000D03*
X75760000Y-122400000D03*
X74240000Y-124400000D03*
X75760000Y-124400000D03*
X75000000Y-124400000D03*
X119160000Y-108600000D03*
X118400000Y-110600000D03*
X117640000Y-108600000D03*
X117640000Y-110600000D03*
X118400000Y-108600000D03*
X119160000Y-110600000D03*
X78239999Y-51000000D03*
X78999999Y-51000000D03*
X78239999Y-52000000D03*
X78999999Y-52000000D03*
X79759999Y-51000000D03*
X79759999Y-52000000D03*
X124440000Y-83600000D03*
X125960000Y-82600000D03*
X124440000Y-82600000D03*
X125200000Y-82600000D03*
X125200000Y-83600000D03*
X125960000Y-83600000D03*
X143439999Y-78000000D03*
X144959999Y-79000000D03*
X144199999Y-79000000D03*
X143439999Y-79000000D03*
X144959999Y-78000000D03*
X144199999Y-78000000D03*
M02*
