M48
; DRILL file {KiCad 7.0.11} date Thu May 30 18:23:34 2024
; FORMAT={2:4/ absolute / inch / suppress leading zeros}
; #@! TF.CreationDate,2024-05-30T18:23:34+10:00
; #@! TF.GenerationSoftware,Kicad,Pcbnew,7.0.11
; #@! TF.FileFunction,Plated,1,2,PTH
FMAT,2
INCH,TZ
; #@! TA.AperFunction,Plated,PTH,ComponentDrill
T1C0.0079
; #@! TA.AperFunction,Plated,PTH,ComponentDrill
T2C0.0354
%
G90
G05
T1
X22244Y-22473
X22244Y-26017
X22244Y-29560
X22244Y-34914
X22244Y-38458
X22244Y-42001
X22812Y-20933
X22812Y-24476
X22812Y-28019
X22812Y-33374
X22812Y-36917
X22812Y-40460
X22812Y-23162
X22812Y-26706
X22812Y-30249
X22812Y-35603
X22812Y-39146
X22812Y-42690
X23055Y-21267
X23055Y-22828
X23055Y-24810
X23055Y-26371
X23055Y-28354
X23055Y-29914
X23055Y-33708
X23055Y-35269
X23055Y-37251
X23055Y-38812
X23055Y-40794
X23055Y-42355
X24189Y-21267
X24189Y-22828
X24189Y-24810
X24189Y-26371
X24189Y-28354
X24189Y-29914
X24189Y-33708
X24189Y-35269
X24189Y-37251
X24189Y-38812
X24189Y-40794
X24189Y-42355
X24431Y-20932
X24431Y-24476
X24431Y-28019
X24431Y-33373
X24431Y-36917
X24431Y-40460
X24432Y-23162
X24432Y-26705
X24432Y-30248
X24432Y-35603
X24432Y-39146
X24432Y-42689
X25000Y-22473
X25000Y-26016
X25000Y-29559
X25000Y-34914
X25000Y-38457
X25000Y-42000
X25984Y-22473
X25984Y-26017
X25984Y-29560
X25984Y-34914
X25984Y-38458
X25984Y-42001
X26552Y-20933
X26552Y-24476
X26552Y-28019
X26552Y-33374
X26552Y-36917
X26552Y-40460
X26552Y-23162
X26552Y-26706
X26552Y-30249
X26552Y-35603
X26552Y-39146
X26552Y-42690
X26795Y-21267
X26795Y-22828
X26795Y-24810
X26795Y-26371
X26795Y-28354
X26795Y-29914
X26795Y-33708
X26795Y-35269
X26795Y-37251
X26795Y-38812
X26795Y-40794
X26795Y-42355
X27929Y-21267
X27929Y-22828
X27929Y-24810
X27929Y-26371
X27929Y-28354
X27929Y-29914
X27929Y-33708
X27929Y-35269
X27929Y-37251
X27929Y-38812
X27929Y-40794
X27929Y-42355
X28172Y-20932
X28172Y-24476
X28172Y-28019
X28172Y-33373
X28172Y-36917
X28172Y-40460
X28172Y-23162
X28172Y-26705
X28172Y-30248
X28172Y-35603
X28172Y-39146
X28172Y-42689
X28740Y-22473
X28740Y-26016
X28740Y-29559
X28740Y-34914
X28740Y-38457
X28740Y-42000
X29724Y-22473
X29724Y-26017
X29724Y-29560
X29724Y-34914
X29724Y-38458
X29724Y-42001
X30292Y-20933
X30292Y-24476
X30292Y-28019
X30292Y-33374
X30292Y-36917
X30292Y-40460
X30292Y-23162
X30292Y-26706
X30292Y-30249
X30292Y-35603
X30292Y-39146
X30292Y-42690
X30535Y-21267
X30535Y-22828
X30535Y-24810
X30535Y-26371
X30535Y-28354
X30535Y-29914
X30535Y-33708
X30535Y-35269
X30535Y-37251
X30535Y-38812
X30535Y-40794
X30535Y-42355
X31669Y-21267
X31669Y-22828
X31669Y-24810
X31669Y-26371
X31669Y-28354
X31669Y-29914
X31669Y-33708
X31669Y-35269
X31669Y-37251
X31669Y-38812
X31669Y-40794
X31669Y-42355
X31912Y-20932
X31912Y-24476
X31912Y-28019
X31912Y-33373
X31912Y-36917
X31912Y-40460
X31912Y-23162
X31912Y-26705
X31912Y-30248
X31912Y-35603
X31912Y-39146
X31912Y-42689
X32480Y-22473
X32480Y-26016
X32480Y-29559
X32480Y-34914
X32480Y-38457
X32480Y-42000
X35079Y-22473
X35079Y-26017
X35079Y-29560
X35079Y-34914
X35079Y-38458
X35079Y-42001
X35646Y-20933
X35646Y-24476
X35646Y-28019
X35646Y-33374
X35646Y-36917
X35646Y-40460
X35647Y-23162
X35647Y-26706
X35647Y-30249
X35647Y-35603
X35647Y-39146
X35647Y-42690
X35890Y-21267
X35890Y-22828
X35890Y-24810
X35890Y-26371
X35890Y-28354
X35890Y-29914
X35890Y-33708
X35890Y-35269
X35890Y-37251
X35890Y-38812
X35890Y-40794
X35890Y-42355
X37024Y-21267
X37024Y-22828
X37024Y-24810
X37024Y-26371
X37024Y-28354
X37024Y-29914
X37024Y-33708
X37024Y-35269
X37024Y-37251
X37024Y-38812
X37024Y-40794
X37024Y-42355
X37266Y-20932
X37266Y-24476
X37266Y-28019
X37266Y-33373
X37266Y-36917
X37266Y-40460
X37267Y-23162
X37267Y-26705
X37267Y-30248
X37267Y-35603
X37267Y-39146
X37267Y-42689
X37835Y-22473
X37835Y-26016
X37835Y-29559
X37835Y-34914
X37835Y-38457
X37835Y-42000
X38819Y-22473
X38819Y-26017
X38819Y-29560
X38819Y-34914
X38819Y-38458
X38819Y-42001
X39386Y-20933
X39386Y-24476
X39386Y-28019
X39386Y-33374
X39386Y-36917
X39386Y-40460
X39387Y-23162
X39387Y-26706
X39387Y-30249
X39387Y-35603
X39387Y-39146
X39387Y-42690
X39630Y-21267
X39630Y-22828
X39630Y-24810
X39630Y-26371
X39630Y-28354
X39630Y-29914
X39630Y-33708
X39630Y-35269
X39630Y-37251
X39630Y-38812
X39630Y-40794
X39630Y-42355
X40764Y-21267
X40764Y-22828
X40764Y-24810
X40764Y-26371
X40764Y-28354
X40764Y-29914
X40764Y-33708
X40764Y-35269
X40764Y-37251
X40764Y-38812
X40764Y-40794
X40764Y-42355
X41006Y-20932
X41006Y-24476
X41006Y-28019
X41006Y-33373
X41006Y-36917
X41006Y-40460
X41007Y-23162
X41007Y-26705
X41007Y-30248
X41007Y-35603
X41007Y-39146
X41007Y-42689
X41575Y-22473
X41575Y-26016
X41575Y-29559
X41575Y-34914
X41575Y-38457
X41575Y-42000
X42559Y-22473
X42559Y-26017
X42559Y-29560
X42559Y-34914
X42559Y-38458
X42559Y-42001
X43127Y-20933
X43127Y-24476
X43127Y-28019
X43127Y-33374
X43127Y-36917
X43127Y-40460
X43127Y-23162
X43127Y-26706
X43127Y-30249
X43127Y-35603
X43127Y-39146
X43127Y-42690
X43370Y-21267
X43370Y-22828
X43370Y-24810
X43370Y-26371
X43370Y-28354
X43370Y-29914
X43370Y-33708
X43370Y-35269
X43370Y-37251
X43370Y-38812
X43370Y-40794
X43370Y-42355
X44504Y-21267
X44504Y-22828
X44504Y-24810
X44504Y-26371
X44504Y-28354
X44504Y-29914
X44504Y-33708
X44504Y-35269
X44504Y-37251
X44504Y-38812
X44504Y-40794
X44504Y-42355
X44746Y-20932
X44746Y-24476
X44746Y-28019
X44746Y-33373
X44746Y-36917
X44746Y-40460
X44747Y-23162
X44747Y-26705
X44747Y-30248
X44747Y-35603
X44747Y-39146
X44747Y-42689
X45315Y-22473
X45315Y-26016
X45315Y-29559
X45315Y-34914
X45315Y-38457
X45315Y-42000
X47913Y-22473
X47913Y-26017
X47913Y-29560
X47913Y-34914
X47913Y-38458
X47913Y-42001
X48481Y-20933
X48481Y-24476
X48481Y-28019
X48481Y-33374
X48481Y-36917
X48481Y-40460
X48481Y-23162
X48481Y-26706
X48481Y-30249
X48481Y-35603
X48481Y-39146
X48481Y-42690
X48724Y-21267
X48724Y-22828
X48724Y-24810
X48724Y-26371
X48724Y-28354
X48724Y-29914
X48724Y-33708
X48724Y-35269
X48724Y-37251
X48724Y-38812
X48724Y-40794
X48724Y-42355
X49858Y-21267
X49858Y-22828
X49858Y-24810
X49858Y-26371
X49858Y-28354
X49858Y-29914
X49858Y-33708
X49858Y-35269
X49858Y-37251
X49858Y-38812
X49858Y-40794
X49858Y-42355
X50101Y-20932
X50101Y-24476
X50101Y-28019
X50101Y-33373
X50101Y-36917
X50101Y-40460
X50101Y-23162
X50101Y-26705
X50101Y-30248
X50101Y-35603
X50101Y-39146
X50101Y-42689
X50669Y-22473
X50669Y-26016
X50669Y-29559
X50669Y-34914
X50669Y-38457
X50669Y-42000
X51654Y-22473
X51654Y-26017
X51654Y-29560
X51654Y-34914
X51654Y-38458
X51654Y-42001
X52221Y-20933
X52221Y-24476
X52221Y-28019
X52221Y-33374
X52221Y-36917
X52221Y-40460
X52222Y-23162
X52222Y-26706
X52222Y-30249
X52222Y-35603
X52222Y-39146
X52222Y-42690
X52465Y-21267
X52465Y-22828
X52465Y-24810
X52465Y-26371
X52465Y-28354
X52465Y-29914
X52465Y-33708
X52465Y-35269
X52465Y-37251
X52465Y-38812
X52465Y-40794
X52465Y-42355
X53598Y-21267
X53598Y-22828
X53598Y-24810
X53598Y-26371
X53598Y-28354
X53598Y-29914
X53598Y-33708
X53598Y-35269
X53598Y-37251
X53598Y-38812
X53598Y-40794
X53598Y-42355
X53841Y-20932
X53841Y-24476
X53841Y-28019
X53841Y-33373
X53841Y-36917
X53841Y-40460
X53841Y-23162
X53841Y-26705
X53841Y-30248
X53841Y-35603
X53841Y-39146
X53841Y-42689
X54409Y-22473
X54409Y-26016
X54409Y-29559
X54409Y-34914
X54409Y-38457
X54409Y-42000
X55394Y-22473
X55394Y-26017
X55394Y-29560
X55394Y-34914
X55394Y-38458
X55394Y-42001
X55961Y-20933
X55961Y-24476
X55961Y-28019
X55961Y-33374
X55961Y-36917
X55961Y-40460
X55962Y-23162
X55962Y-26706
X55962Y-30249
X55962Y-35603
X55962Y-39146
X55962Y-42690
X56205Y-21267
X56205Y-22828
X56205Y-24810
X56205Y-26371
X56205Y-28354
X56205Y-29914
X56205Y-33708
X56205Y-35269
X56205Y-37251
X56205Y-38812
X56205Y-40794
X56205Y-42355
X57339Y-21267
X57339Y-22828
X57339Y-24810
X57339Y-26371
X57339Y-28354
X57339Y-29914
X57339Y-33708
X57339Y-35269
X57339Y-37251
X57339Y-38812
X57339Y-40794
X57339Y-42355
X57581Y-20932
X57581Y-24476
X57581Y-28019
X57581Y-33373
X57581Y-36917
X57581Y-40460
X57582Y-23162
X57582Y-26705
X57582Y-30248
X57582Y-35603
X57582Y-39146
X57582Y-42689
X58150Y-22473
X58150Y-26016
X58150Y-29559
X58150Y-34914
X58150Y-38457
X58150Y-42000
T2
X22343Y-46604
X22343Y-47333
X22772Y-46013
X22772Y-47924
X23466Y-45787
X23466Y-48150
X24161Y-46013
X24161Y-47924
X24590Y-46604
X24590Y-47333
X25885Y-46602
X25885Y-47332
X26314Y-46011
X26314Y-47922
X27009Y-45786
X27009Y-48148
X27703Y-46011
X27703Y-47922
X28132Y-46602
X28132Y-47332
X30926Y-46604
X30926Y-47333
X31355Y-46013
X31355Y-47924
X32049Y-45787
X32049Y-48150
X32743Y-46013
X32743Y-47924
X33172Y-46604
X33172Y-47333
X34468Y-46602
X34468Y-47332
X34897Y-46011
X34897Y-47922
X35591Y-45786
X35591Y-48148
X36286Y-46011
X36286Y-47922
X36715Y-46602
X36715Y-47332
X39508Y-46604
X39508Y-47333
X39937Y-46013
X39937Y-47924
X40632Y-45787
X40632Y-48150
X41326Y-46013
X41326Y-47924
X41755Y-46604
X41755Y-47333
X43051Y-46602
X43051Y-47332
X43480Y-46011
X43480Y-47922
X44174Y-45786
X44174Y-48148
X44868Y-46011
X44868Y-47922
X45297Y-46602
X45297Y-47332
X48091Y-46604
X48091Y-47333
X48520Y-46013
X48520Y-47924
X49214Y-45787
X49214Y-48150
X49909Y-46013
X49909Y-47924
X50338Y-46604
X50338Y-47333
X51633Y-46602
X51633Y-47332
X52062Y-46011
X52062Y-47922
X52757Y-45786
X52757Y-48148
X53451Y-46011
X53451Y-47922
X53880Y-46602
X53880Y-47332
M30
