G04 #@! TF.GenerationSoftware,KiCad,Pcbnew,7.0.11*
G04 #@! TF.CreationDate,2024-05-30T18:22:36+10:00*
G04 #@! TF.ProjectId,PercPlugPanel_v1.02,50657263-506c-4756-9750-616e656c5f76,rev?*
G04 #@! TF.SameCoordinates,Original*
G04 #@! TF.FileFunction,Profile,NP*
%FSLAX46Y46*%
G04 Gerber Fmt 4.6, Leading zero omitted, Abs format (unit mm)*
G04 Created by KiCad (PCBNEW 7.0.11) date 2024-05-30 18:22:36*
%MOMM*%
%LPD*%
G01*
G04 APERTURE LIST*
G04 #@! TA.AperFunction,Profile*
%ADD10C,0.050000*%
G04 #@! TD*
G04 APERTURE END LIST*
D10*
X58166970Y-69999998D02*
X58500000Y-69999999D01*
X145699999Y-51000000D02*
X149200000Y-51000000D01*
X105992937Y-71949373D02*
G75*
G03*
X106454779Y-73370765I291763J-690927D01*
G01*
X73392939Y-53949382D02*
G75*
G03*
X71333031Y-51999999I-3892939J-2050618D01*
G01*
X113099999Y-92599999D02*
X113433031Y-92599999D01*
X63892939Y-94549382D02*
G75*
G03*
X61833032Y-92600000I-3892939J-2050618D01*
G01*
X113099999Y-110600000D02*
X116600000Y-110600000D01*
X64786432Y-118094836D02*
X63417620Y-118094858D01*
X82892939Y-85549382D02*
G75*
G03*
X80833031Y-83599999I-3892939J-2050618D01*
G01*
X130345221Y-86970757D02*
G75*
G03*
X130807058Y-85549379I170079J730457D01*
G01*
X126700000Y-51000000D02*
X133199999Y-51000000D01*
X138592937Y-103549373D02*
G75*
G03*
X139054779Y-104970765I291763J-690927D01*
G01*
X121042704Y-119851391D02*
G75*
G03*
X121041969Y-118753959I-38204J548691D01*
G01*
X123366968Y-83599998D02*
G75*
G03*
X121307061Y-85549380I1833032J-4000002D01*
G01*
X103599999Y-110600000D02*
X110099999Y-110600000D01*
X61833034Y-100600005D02*
G75*
G03*
X64354781Y-95970767I-1833034J4000005D01*
G01*
X132866969Y-59999999D02*
X133199999Y-60000000D01*
X94433034Y-69000005D02*
G75*
G03*
X96954781Y-64370767I-1833034J4000005D01*
G01*
X84933775Y-121182646D02*
G75*
G03*
X84289338Y-122070890I-291575J-466354D01*
G01*
X103933033Y-100600004D02*
G75*
G03*
X106454780Y-95970767I-1833033J4000004D01*
G01*
X109766969Y-51999998D02*
X110099999Y-51999999D01*
X126700000Y-60999999D02*
X127033032Y-60999999D01*
X61833034Y-60000005D02*
G75*
G03*
X64354781Y-55370767I-1833034J4000005D01*
G01*
X94100000Y-109600000D02*
X94433032Y-109600000D01*
X130345221Y-55370757D02*
G75*
G03*
X130807058Y-53949379I170079J730457D01*
G01*
X90766970Y-100599999D02*
X91100000Y-100600000D01*
X130345226Y-73370769D02*
G75*
G03*
X132866969Y-77999999I4354774J-629231D01*
G01*
X63892937Y-71949372D02*
G75*
G03*
X64354780Y-73370766I291763J-690928D01*
G01*
X51400000Y-110600000D02*
X51400000Y-114200000D01*
X108672798Y-117412605D02*
G75*
G03*
X108386432Y-118094836I3529202J-1882595D01*
G01*
X88245222Y-86970757D02*
G75*
G03*
X88707059Y-85549380I170078J730457D01*
G01*
X109766967Y-51999998D02*
G75*
G03*
X107707060Y-53949380I1833033J-4000002D01*
G01*
X77166969Y-92599998D02*
X77499999Y-92599999D01*
X82892939Y-94549382D02*
G75*
G03*
X80833031Y-92599999I-3892939J-2050618D01*
G01*
X77442704Y-119851391D02*
G75*
G03*
X77441969Y-118753959I-38204J548691D01*
G01*
X148092939Y-94549382D02*
G75*
G03*
X146033031Y-92599999I-3892939J-2050618D01*
G01*
X139845226Y-95970769D02*
G75*
G03*
X142366969Y-100599999I4354774J-629231D01*
G01*
X138592939Y-94549382D02*
G75*
G03*
X136533031Y-92599999I-3892939J-2050618D01*
G01*
X80200006Y-115485685D02*
G75*
G03*
X77441970Y-118753958I1204494J-3814315D01*
G01*
X142200000Y-116200000D02*
X149200000Y-116200000D01*
X80833033Y-78000004D02*
G75*
G03*
X83354780Y-73370767I-1833033J4000004D01*
G01*
X136533033Y-60000004D02*
G75*
G03*
X139054780Y-55370767I-1833033J4000004D01*
G01*
X146033033Y-109600004D02*
G75*
G03*
X148554780Y-104970767I-1833033J4000004D01*
G01*
X51400000Y-125000000D02*
X51400000Y-124400000D01*
X51400000Y-84600000D02*
X51400000Y-108600000D01*
X70999999Y-69000000D02*
X71333031Y-69000000D01*
X58166968Y-101599998D02*
G75*
G03*
X56107061Y-103549380I1833032J-4000002D01*
G01*
X129092939Y-85549382D02*
G75*
G03*
X127033032Y-83600000I-3892939J-2050618D01*
G01*
X130345226Y-64370769D02*
G75*
G03*
X132866969Y-68999999I4354774J-629231D01*
G01*
X89201645Y-123110875D02*
X89201645Y-124400000D01*
X148092937Y-85549373D02*
G75*
G03*
X148554779Y-86970765I291763J-690927D01*
G01*
X113099999Y-78000000D02*
X113433031Y-78000000D01*
X132866969Y-101599998D02*
X133199999Y-101599999D01*
X148092937Y-94549373D02*
G75*
G03*
X148554779Y-95970765I291763J-690927D01*
G01*
X128533773Y-121182634D02*
G75*
G03*
X128820147Y-120500408I-3529173J1882634D01*
G01*
X65072798Y-117412605D02*
G75*
G03*
X64786432Y-118094836I3529202J-1882595D01*
G01*
X103599999Y-51000000D02*
X110099999Y-51000000D01*
X136199999Y-51000000D02*
X142699999Y-51000000D01*
X70999999Y-91600000D02*
X71333031Y-91600000D01*
X70999999Y-78000000D02*
X71333031Y-78000000D01*
X115492939Y-71949382D02*
G75*
G03*
X113433031Y-69999999I-3892939J-2050618D01*
G01*
X123804118Y-123115633D02*
X123804118Y-124400000D01*
X123366968Y-92599998D02*
G75*
G03*
X121307061Y-94549380I1833032J-4000002D01*
G01*
X142366969Y-109599999D02*
X142699999Y-109600000D01*
X61500000Y-69000000D02*
X61833032Y-69000000D01*
X145699999Y-92599999D02*
X146033031Y-92599999D01*
X121042686Y-119851359D02*
G75*
G03*
X123804118Y-123115633I3961814J551359D01*
G01*
X77166969Y-68999999D02*
X77499999Y-69000000D01*
X113406558Y-123109511D02*
G75*
G03*
X116164609Y-119841286I-1204458J3814311D01*
G01*
X87600000Y-110600000D02*
X91100000Y-110600000D01*
X138592937Y-53949373D02*
G75*
G03*
X139054779Y-55370765I291763J-690927D01*
G01*
X116800000Y-124400000D02*
X113406579Y-124400000D01*
X100266967Y-92599998D02*
G75*
G03*
X98207060Y-94549380I1833033J-4000002D01*
G01*
X107245226Y-73370769D02*
G75*
G03*
X109766969Y-77999999I4354774J-629231D01*
G01*
X146033033Y-69000004D02*
G75*
G03*
X148554780Y-64370767I-1833033J4000004D01*
G01*
X65145221Y-55370757D02*
G75*
G03*
X65607058Y-53949379I170079J730457D01*
G01*
X71333033Y-100600004D02*
G75*
G03*
X73854780Y-95970767I-1833033J4000004D01*
G01*
X54400000Y-47400000D02*
G75*
G03*
X51400000Y-50400000I0J-3000000D01*
G01*
X74645221Y-95970757D02*
G75*
G03*
X75107058Y-94549379I170079J730457D01*
G01*
X61500000Y-91600000D02*
X61833032Y-91600000D01*
X135202461Y-114200000D02*
X138600000Y-114200000D01*
X127033034Y-78000005D02*
G75*
G03*
X129554781Y-73370767I-1833034J4000005D01*
G01*
X88245222Y-104970757D02*
G75*
G03*
X88707059Y-103549380I170078J730457D01*
G01*
X63892939Y-62949382D02*
G75*
G03*
X61833032Y-61000000I-3892939J-2050618D01*
G01*
X149200000Y-84600000D02*
X149200000Y-108600000D01*
X142366967Y-92599998D02*
G75*
G03*
X140307060Y-94549380I1833033J-4000002D01*
G01*
X65145221Y-86970757D02*
G75*
G03*
X65607058Y-85549379I170079J730457D01*
G01*
X70999999Y-82600000D02*
X77499999Y-82600000D01*
X89197528Y-115480917D02*
X89197528Y-114200000D01*
X90766970Y-109599999D02*
X91100000Y-109600000D01*
X139845221Y-86970757D02*
G75*
G03*
X140307058Y-85549379I170079J730457D01*
G01*
X80499999Y-78000000D02*
X80833031Y-78000000D01*
X55645227Y-104970769D02*
G75*
G03*
X58166970Y-109599998I4354773J-629231D01*
G01*
X113099999Y-51999999D02*
X113433031Y-51999999D01*
X132866969Y-77999999D02*
X133199999Y-78000000D01*
X120845227Y-55370769D02*
G75*
G03*
X123366970Y-59999998I4354773J-629231D01*
G01*
X123366968Y-60999998D02*
G75*
G03*
X121307061Y-62949380I1833032J-4000002D01*
G01*
X100266969Y-59999999D02*
X100599999Y-60000000D01*
X109766969Y-100599999D02*
X110099999Y-100600000D01*
X126700000Y-110600000D02*
X133199999Y-110600000D01*
X130186432Y-118094836D02*
X128817620Y-118094858D01*
X84285618Y-116525250D02*
G75*
G03*
X82604934Y-115484369I-2881118J-2774750D01*
G01*
X73392939Y-71949382D02*
G75*
G03*
X71333031Y-69999999I-3892939J-2050618D01*
G01*
X129092937Y-85549372D02*
G75*
G03*
X129554780Y-86970766I291763J-690928D01*
G01*
X136533033Y-78000004D02*
G75*
G03*
X139054780Y-73370767I-1833033J4000004D01*
G01*
X152800000Y-116200000D02*
X152800000Y-122400000D01*
X107245221Y-55370757D02*
G75*
G03*
X107707058Y-53949379I170079J730457D01*
G01*
X142366969Y-101599998D02*
X142699999Y-101599999D01*
X105992939Y-94549382D02*
G75*
G03*
X103933031Y-92599999I-3892939J-2050618D01*
G01*
X89197519Y-115480888D02*
G75*
G03*
X87517242Y-116524355I1204581J-3814312D01*
G01*
X80833033Y-69000004D02*
G75*
G03*
X83354780Y-64370767I-1833033J4000004D01*
G01*
X80833033Y-109600004D02*
G75*
G03*
X83354780Y-104970767I-1833033J4000004D01*
G01*
X109766967Y-69999998D02*
G75*
G03*
X107707060Y-71949380I1833033J-4000002D01*
G01*
X96492937Y-94549372D02*
G75*
G03*
X96954780Y-95970766I291763J-690928D01*
G01*
X152800000Y-50400000D02*
G75*
G03*
X149800000Y-47400000I-3000000J0D01*
G01*
X65145221Y-73370757D02*
G75*
G03*
X65607058Y-71949379I170079J730457D01*
G01*
X71333033Y-109600004D02*
G75*
G03*
X73854780Y-104970767I-1833033J4000004D01*
G01*
X106733773Y-121182634D02*
G75*
G03*
X107020147Y-120500408I-3529173J1882634D01*
G01*
X55645222Y-104970757D02*
G75*
G03*
X56107059Y-103549380I170078J730457D01*
G01*
X65145226Y-64370769D02*
G75*
G03*
X67666969Y-68999999I4354774J-629231D01*
G01*
X115492937Y-85549373D02*
G75*
G03*
X115954779Y-86970765I291763J-690927D01*
G01*
X135206558Y-123109511D02*
G75*
G03*
X137964609Y-119841286I-1204458J3814311D01*
G01*
X123804118Y-124400000D02*
X120400000Y-124400000D01*
X145699999Y-78000000D02*
X146033031Y-78000000D01*
X113099999Y-100600000D02*
X113433031Y-100600000D01*
X136199999Y-101599999D02*
X136533031Y-101599999D01*
X61500000Y-83599999D02*
X61833032Y-83599999D01*
X61500000Y-60000000D02*
X61833032Y-60000000D01*
X107245226Y-86970769D02*
G75*
G03*
X109766969Y-91599999I4354774J-629231D01*
G01*
X74645221Y-55370757D02*
G75*
G03*
X75107058Y-53949379I170079J730457D01*
G01*
X58400000Y-115485667D02*
X58400000Y-114200000D01*
X96492937Y-85549372D02*
G75*
G03*
X96954780Y-86970766I291763J-690928D01*
G01*
X70999999Y-79000000D02*
X77499999Y-79000000D01*
X70999999Y-51000000D02*
X77499999Y-51000000D01*
X138592939Y-85549382D02*
G75*
G03*
X136533031Y-83599999I-3892939J-2050618D01*
G01*
X74645226Y-55370769D02*
G75*
G03*
X77166969Y-59999999I4354774J-629231D01*
G01*
X63892937Y-85549372D02*
G75*
G03*
X64354780Y-86970766I291763J-690928D01*
G01*
X77166967Y-101599998D02*
G75*
G03*
X75107060Y-103549380I1833033J-4000002D01*
G01*
X94100000Y-69999999D02*
X94433032Y-69999999D01*
X127885618Y-116525250D02*
G75*
G03*
X126204934Y-115484369I-2881118J-2774750D01*
G01*
X115492937Y-103549373D02*
G75*
G03*
X115954779Y-104970765I291763J-690927D01*
G01*
X152800000Y-79000000D02*
X152800000Y-82600000D01*
X142366969Y-51999998D02*
X142699999Y-51999999D01*
X63417615Y-118094859D02*
G75*
G03*
X63131251Y-117412629I-3815515J-1200341D01*
G01*
X130345221Y-104970757D02*
G75*
G03*
X130807058Y-103549379I170079J730457D01*
G01*
X61833034Y-109600005D02*
G75*
G03*
X64354781Y-104970767I-1833034J4000005D01*
G01*
X138592939Y-53949382D02*
G75*
G03*
X136533031Y-51999999I-3892939J-2050618D01*
G01*
X100266969Y-60999998D02*
X100599999Y-60999999D01*
X97745226Y-73370769D02*
G75*
G03*
X100266969Y-77999999I4354774J-629231D01*
G01*
X69802461Y-115479611D02*
X69802461Y-114200000D01*
X72563872Y-118743888D02*
G75*
G03*
X69802461Y-115479611I-3961772J-551312D01*
G01*
X145699999Y-51999999D02*
X146033031Y-51999999D01*
X142366967Y-60999998D02*
G75*
G03*
X140307060Y-62949380I1833033J-4000002D01*
G01*
X132797528Y-115480917D02*
X132797528Y-114200000D01*
X113099999Y-60000000D02*
X113433031Y-60000000D01*
X74645221Y-73370757D02*
G75*
G03*
X75107058Y-71949379I170079J730457D01*
G01*
X120845227Y-104970769D02*
G75*
G03*
X123366970Y-109599998I4354773J-629231D01*
G01*
X136199999Y-109600000D02*
X136533031Y-109600000D01*
X148092939Y-103549382D02*
G75*
G03*
X146033031Y-101599999I-3892939J-2050618D01*
G01*
X87600000Y-108600000D02*
X87600000Y-84600000D01*
X82604934Y-115484369D02*
X82604934Y-114200000D01*
X132866967Y-101599998D02*
G75*
G03*
X130807060Y-103549380I1833033J-4000002D01*
G01*
X107245226Y-55370769D02*
G75*
G03*
X109766969Y-59999999I4354774J-629231D01*
G01*
X120845227Y-86970769D02*
G75*
G03*
X123366970Y-91599998I4354773J-629231D01*
G01*
X60804934Y-114200000D02*
X67397528Y-114200000D01*
X120400000Y-116200000D02*
X120400000Y-122400000D01*
X109766969Y-91599999D02*
X110099999Y-91600000D01*
X129092939Y-62949382D02*
G75*
G03*
X127033032Y-61000000I-3892939J-2050618D01*
G01*
X70999999Y-69999999D02*
X71333031Y-69999999D01*
X63892937Y-103549372D02*
G75*
G03*
X64354780Y-104970766I291763J-690928D01*
G01*
X103933033Y-69000004D02*
G75*
G03*
X106454780Y-64370767I-1833033J4000004D01*
G01*
X142366967Y-69999998D02*
G75*
G03*
X140307060Y-71949380I1833033J-4000002D01*
G01*
X115492937Y-53949373D02*
G75*
G03*
X115954779Y-55370765I291763J-690927D01*
G01*
X113099999Y-82600000D02*
X116600000Y-82600000D01*
X80499999Y-110600000D02*
X84000000Y-110600000D01*
X123366970Y-69999998D02*
X123700000Y-69999999D01*
X63892939Y-103549382D02*
G75*
G03*
X61833032Y-101600000I-3892939J-2050618D01*
G01*
X74645221Y-104970757D02*
G75*
G03*
X75107058Y-103549379I170079J730457D01*
G01*
X109766969Y-60999998D02*
X110099999Y-60999999D01*
X73200000Y-124400000D02*
X69806579Y-124400000D01*
X55645227Y-86970769D02*
G75*
G03*
X58166970Y-91599998I4354773J-629231D01*
G01*
X90766970Y-60999998D02*
X91100000Y-60999999D01*
X142366969Y-83599998D02*
X142699999Y-83599999D01*
X94433034Y-100600005D02*
G75*
G03*
X96954781Y-95970767I-1833034J4000005D01*
G01*
X113433033Y-69000004D02*
G75*
G03*
X115954780Y-64370767I-1833033J4000004D01*
G01*
X123366970Y-68999999D02*
X123700000Y-69000000D01*
X126700000Y-109600000D02*
X127033032Y-109600000D01*
X123366970Y-109599999D02*
X123700000Y-109600000D01*
X55000000Y-114200000D02*
X58400000Y-114200000D01*
X88245222Y-55370757D02*
G75*
G03*
X88707059Y-53949380I170078J730457D01*
G01*
X67666967Y-83599998D02*
G75*
G03*
X65607060Y-85549380I1833033J-4000002D01*
G01*
X63133775Y-121182646D02*
G75*
G03*
X62489338Y-122070890I-291575J-466354D01*
G01*
X152800000Y-110600000D02*
X152800000Y-114200000D01*
X82892937Y-62949373D02*
G75*
G03*
X83354779Y-64370765I291763J-690927D01*
G01*
X70999999Y-60999999D02*
X71333031Y-60999999D01*
X74645226Y-104970769D02*
G75*
G03*
X77166969Y-109599999I4354774J-629231D01*
G01*
X110997528Y-115480917D02*
X110997528Y-114200000D01*
X131120959Y-122069996D02*
G75*
G03*
X132801645Y-123110875I2881141J2774796D01*
G01*
X100266969Y-77999999D02*
X100599999Y-78000000D01*
X139845221Y-73370757D02*
G75*
G03*
X140307058Y-71949379I170079J730457D01*
G01*
X132797519Y-115480888D02*
G75*
G03*
X131117242Y-116524355I1204581J-3814312D01*
G01*
X65145226Y-95970769D02*
G75*
G03*
X67666969Y-100599999I4354774J-629231D01*
G01*
X88245222Y-73370757D02*
G75*
G03*
X88707059Y-71949380I170078J730457D01*
G01*
X69806579Y-123109577D02*
X69806579Y-124400000D01*
X73392937Y-103549373D02*
G75*
G03*
X73854779Y-104970765I291763J-690927D01*
G01*
X138592939Y-62949382D02*
G75*
G03*
X136533031Y-60999999I-3892939J-2050618D01*
G01*
X139845221Y-95970757D02*
G75*
G03*
X140307058Y-94549379I170079J730457D01*
G01*
X61500000Y-101599999D02*
X61833032Y-101599999D01*
X55000000Y-108600000D02*
X55000000Y-84600000D01*
X127033034Y-109600005D02*
G75*
G03*
X129554781Y-104970767I-1833034J4000005D01*
G01*
X73392937Y-71949373D02*
G75*
G03*
X73854779Y-73370765I291763J-690927D01*
G01*
X100266969Y-100599999D02*
X100599999Y-100600000D01*
X130345226Y-104970769D02*
G75*
G03*
X132866969Y-109599999I4354774J-629231D01*
G01*
X87600000Y-77000000D02*
X87600000Y-53000000D01*
X58166968Y-60999998D02*
G75*
G03*
X56107061Y-62949380I1833032J-4000002D01*
G01*
X61833034Y-91600005D02*
G75*
G03*
X64354781Y-86970767I-1833034J4000005D01*
G01*
X126204934Y-115484369D02*
X126204934Y-114200000D01*
X82892937Y-71949373D02*
G75*
G03*
X83354779Y-73370765I291763J-690927D01*
G01*
X130345226Y-86970769D02*
G75*
G03*
X132866969Y-91599999I4354774J-629231D01*
G01*
X108672769Y-117412654D02*
G75*
G03*
X109317240Y-116524355I291631J466354D01*
G01*
X94100000Y-92599999D02*
X94433032Y-92599999D01*
X120845222Y-73370757D02*
G75*
G03*
X121307059Y-71949380I170078J730457D01*
G01*
X82892937Y-94549373D02*
G75*
G03*
X83354779Y-95970765I291763J-690927D01*
G01*
X113433033Y-60000004D02*
G75*
G03*
X115954780Y-55370767I-1833033J4000004D01*
G01*
X74645226Y-95970769D02*
G75*
G03*
X77166969Y-100599999I4354774J-629231D01*
G01*
X65145221Y-104970757D02*
G75*
G03*
X65607058Y-103549379I170079J730457D01*
G01*
X96492937Y-62949372D02*
G75*
G03*
X96954780Y-64370766I291763J-690928D01*
G01*
X126209054Y-123114337D02*
G75*
G03*
X127889338Y-122070890I-1204554J3814337D01*
G01*
X136199999Y-110600000D02*
X142699999Y-110600000D01*
X123800000Y-115485667D02*
X123800000Y-114200000D01*
X145699999Y-83599999D02*
X146033031Y-83599999D01*
X120845227Y-95970769D02*
G75*
G03*
X123366970Y-100599998I4354773J-629231D01*
G01*
X128817615Y-118094859D02*
G75*
G03*
X128531251Y-117412629I-3815515J-1200341D01*
G01*
X100266967Y-69999998D02*
G75*
G03*
X98207060Y-71949380I1833033J-4000002D01*
G01*
X71333033Y-91600004D02*
G75*
G03*
X73854780Y-86970767I-1833033J4000004D01*
G01*
X152800000Y-51000000D02*
X152800000Y-50400000D01*
X127885621Y-116525247D02*
G75*
G03*
X128531251Y-117412629I353379J-421453D01*
G01*
X129092937Y-94549372D02*
G75*
G03*
X129554780Y-95970766I291763J-690928D01*
G01*
X97745226Y-104970769D02*
G75*
G03*
X100266969Y-109599999I4354774J-629231D01*
G01*
X113099999Y-91600000D02*
X113433031Y-91600000D01*
X152800000Y-124400000D02*
X152800000Y-125000000D01*
X97745221Y-86970757D02*
G75*
G03*
X98207058Y-85549379I170079J730457D01*
G01*
X120845227Y-73370769D02*
G75*
G03*
X123366970Y-77999998I4354773J-629231D01*
G01*
X58166970Y-59999999D02*
X58500000Y-60000000D01*
X130345226Y-95970769D02*
G75*
G03*
X132866969Y-100599999I4354774J-629231D01*
G01*
X115492937Y-71949373D02*
G75*
G03*
X115954779Y-73370765I291763J-690927D01*
G01*
X136199999Y-60999999D02*
X136533031Y-60999999D01*
X115492937Y-94549373D02*
G75*
G03*
X115954779Y-95970765I291763J-690927D01*
G01*
X80499999Y-82600000D02*
X84000000Y-82600000D01*
X100266967Y-83599998D02*
G75*
G03*
X98207060Y-85549380I1833033J-4000002D01*
G01*
X152800000Y-108600000D02*
X152800000Y-84600000D01*
X105992937Y-62949373D02*
G75*
G03*
X106454779Y-64370765I291763J-690927D01*
G01*
X91602461Y-114200000D02*
X95000000Y-114200000D01*
X113402461Y-115479611D02*
X113402461Y-114200000D01*
X126700000Y-51999999D02*
X127033032Y-51999999D01*
X94100000Y-91600000D02*
X94433032Y-91600000D01*
X146033033Y-91600004D02*
G75*
G03*
X148554780Y-86970767I-1833033J4000004D01*
G01*
X71333033Y-69000004D02*
G75*
G03*
X73854780Y-64370767I-1833033J4000004D01*
G01*
X73392937Y-53949373D02*
G75*
G03*
X73854779Y-55370765I291763J-690927D01*
G01*
X69802461Y-114200000D02*
X73200000Y-114200000D01*
X97745221Y-104970757D02*
G75*
G03*
X98207058Y-103549379I170079J730457D01*
G01*
X115492939Y-103549382D02*
G75*
G03*
X113433031Y-101599999I-3892939J-2050618D01*
G01*
X145699999Y-82600000D02*
X149200000Y-82600000D01*
X90766968Y-83599998D02*
G75*
G03*
X88707061Y-85549380I1833032J-4000002D01*
G01*
X120845222Y-104970757D02*
G75*
G03*
X121307059Y-103549380I170078J730457D01*
G01*
X109766967Y-83599998D02*
G75*
G03*
X107707060Y-85549380I1833033J-4000002D01*
G01*
X123366968Y-101599998D02*
G75*
G03*
X121307061Y-103549380I1833032J-4000002D01*
G01*
X84933773Y-121182634D02*
G75*
G03*
X85220147Y-120500408I-3529173J1882634D01*
G01*
X136199999Y-92599999D02*
X136533031Y-92599999D01*
X107017615Y-118094859D02*
G75*
G03*
X106731251Y-117412629I-3815515J-1200341D01*
G01*
X82892937Y-85549373D02*
G75*
G03*
X83354779Y-86970765I291763J-690927D01*
G01*
X88245222Y-64370757D02*
G75*
G03*
X88707059Y-62949380I170078J730457D01*
G01*
X103599999Y-100600000D02*
X103933031Y-100600000D01*
X113099999Y-109600000D02*
X113433031Y-109600000D01*
X113433033Y-91600004D02*
G75*
G03*
X115954780Y-86970767I-1833033J4000004D01*
G01*
X67666969Y-100599999D02*
X67999999Y-100600000D01*
X103933033Y-60000004D02*
G75*
G03*
X106454780Y-55370767I-1833033J4000004D01*
G01*
X98600000Y-116200000D02*
X98600000Y-122400000D01*
X127033034Y-69000005D02*
G75*
G03*
X129554781Y-64370767I-1833034J4000005D01*
G01*
X55645227Y-95970769D02*
G75*
G03*
X58166970Y-100599998I4354773J-629231D01*
G01*
X113433033Y-78000004D02*
G75*
G03*
X115954780Y-73370767I-1833033J4000004D01*
G01*
X107245221Y-95970757D02*
G75*
G03*
X107707058Y-94549379I170079J730457D01*
G01*
X126204934Y-114200000D02*
X132797528Y-114200000D01*
X55645222Y-86970757D02*
G75*
G03*
X56107059Y-85549380I170078J730457D01*
G01*
X105992937Y-103549373D02*
G75*
G03*
X106454779Y-104970765I291763J-690927D01*
G01*
X123366970Y-91599999D02*
X123700000Y-91600000D01*
X74645226Y-64370769D02*
G75*
G03*
X77166969Y-68999999I4354774J-629231D01*
G01*
X138592939Y-103549382D02*
G75*
G03*
X136533031Y-101599999I-3892939J-2050618D01*
G01*
X149200000Y-53000000D02*
X149200000Y-77000000D01*
X126700000Y-92599999D02*
X127033032Y-92599999D01*
X80200000Y-115485667D02*
X80200000Y-114200000D01*
X145699999Y-109600000D02*
X146033031Y-109600000D01*
X146033033Y-60000004D02*
G75*
G03*
X148554780Y-55370767I-1833033J4000004D01*
G01*
X62485618Y-116525250D02*
G75*
G03*
X60804934Y-115484369I-2881118J-2774750D01*
G01*
X139845226Y-86970769D02*
G75*
G03*
X142366969Y-91599999I4354774J-629231D01*
G01*
X55000000Y-79000000D02*
X58500000Y-79000000D01*
X80499999Y-51999999D02*
X80833031Y-51999999D01*
X136199999Y-78000000D02*
X136533031Y-78000000D01*
X73392937Y-85549373D02*
G75*
G03*
X73854779Y-86970765I291763J-690927D01*
G01*
X72563882Y-118743964D02*
G75*
G03*
X72564610Y-119841286I38218J-548636D01*
G01*
X58166968Y-69999998D02*
G75*
G03*
X56107061Y-71949380I1833032J-4000002D01*
G01*
X109766969Y-109599999D02*
X110099999Y-109600000D01*
X106085618Y-116525250D02*
G75*
G03*
X104404934Y-115484369I-2881118J-2774750D01*
G01*
X142366969Y-69999998D02*
X142699999Y-69999999D01*
X82892939Y-71949382D02*
G75*
G03*
X80833031Y-69999999I-3892939J-2050618D01*
G01*
X96492939Y-53949382D02*
G75*
G03*
X94433032Y-52000000I-3892939J-2050618D01*
G01*
X136533033Y-91600004D02*
G75*
G03*
X139054780Y-86970767I-1833033J4000004D01*
G01*
X105992937Y-94549373D02*
G75*
G03*
X106454779Y-95970765I291763J-690927D01*
G01*
X105992937Y-85549373D02*
G75*
G03*
X106454779Y-86970765I291763J-690927D01*
G01*
X113099999Y-60999999D02*
X113433031Y-60999999D01*
X136199999Y-79000000D02*
X142699999Y-79000000D01*
X113099999Y-51000000D02*
X116600000Y-51000000D01*
X58166970Y-92599998D02*
X58500000Y-92599999D01*
X132866967Y-92599998D02*
G75*
G03*
X130807060Y-94549380I1833033J-4000002D01*
G01*
X148092937Y-71949373D02*
G75*
G03*
X148554779Y-73370765I291763J-690927D01*
G01*
X130345221Y-95970757D02*
G75*
G03*
X130807058Y-94549379I170079J730457D01*
G01*
X123366970Y-51999998D02*
X123700000Y-51999999D01*
X87600000Y-82600000D02*
X91100000Y-82600000D01*
X51400000Y-122400000D02*
X51400000Y-116200000D01*
X103599999Y-92599999D02*
X103933031Y-92599999D01*
X77166969Y-109599999D02*
X77499999Y-109600000D01*
X107020147Y-120500408D02*
X108388959Y-120500386D01*
X65145221Y-95970757D02*
G75*
G03*
X65607058Y-94549379I170079J730457D01*
G01*
X88245227Y-64370769D02*
G75*
G03*
X90766970Y-68999998I4354773J-629231D01*
G01*
X94363882Y-118743964D02*
G75*
G03*
X94364610Y-119841286I38218J-548636D01*
G01*
X142366969Y-91599999D02*
X142699999Y-91600000D01*
X100266967Y-60999998D02*
G75*
G03*
X98207060Y-62949380I1833033J-4000002D01*
G01*
X97745226Y-95970769D02*
G75*
G03*
X100266969Y-100599999I4354774J-629231D01*
G01*
X138592937Y-62949373D02*
G75*
G03*
X139054779Y-64370765I291763J-690927D01*
G01*
X146033033Y-100600004D02*
G75*
G03*
X148554780Y-95970767I-1833033J4000004D01*
G01*
X55645227Y-73370769D02*
G75*
G03*
X58166970Y-77999998I4354773J-629231D01*
G01*
X60804934Y-115484369D02*
X60804934Y-114200000D01*
X132866967Y-51999998D02*
G75*
G03*
X130807060Y-53949380I1833033J-4000002D01*
G01*
X90766970Y-83599998D02*
X91100000Y-83599999D01*
X55000000Y-51000000D02*
X58500000Y-51000000D01*
X82892939Y-103549382D02*
G75*
G03*
X80833031Y-101599999I-3892939J-2050618D01*
G01*
X109766969Y-69999998D02*
X110099999Y-69999999D01*
X97745221Y-73370757D02*
G75*
G03*
X98207058Y-71949379I170079J730457D01*
G01*
X61833034Y-78000005D02*
G75*
G03*
X64354781Y-73370767I-1833034J4000005D01*
G01*
X98600000Y-114200000D02*
X102000000Y-114200000D01*
X126700000Y-101599999D02*
X127033032Y-101599999D01*
X80833033Y-60000004D02*
G75*
G03*
X83354780Y-55370767I-1833033J4000004D01*
G01*
X65145226Y-55370769D02*
G75*
G03*
X67666969Y-59999999I4354774J-629231D01*
G01*
X126700000Y-100600000D02*
X127033032Y-100600000D01*
X105992937Y-53949373D02*
G75*
G03*
X106454779Y-55370765I291763J-690927D01*
G01*
X123366970Y-101599998D02*
X123700000Y-101599999D01*
X145699999Y-100600000D02*
X146033031Y-100600000D01*
X58166970Y-109599999D02*
X58500000Y-109600000D01*
X65072769Y-117412654D02*
G75*
G03*
X65717240Y-116524355I291631J466354D01*
G01*
X63133773Y-121182634D02*
G75*
G03*
X63420147Y-120500408I-3529173J1882634D01*
G01*
X61500000Y-92599999D02*
X61833032Y-92599999D01*
X139845221Y-64370757D02*
G75*
G03*
X140307058Y-62949379I170079J730457D01*
G01*
X58166970Y-68999999D02*
X58500000Y-69000000D01*
X55645222Y-73370757D02*
G75*
G03*
X56107059Y-71949380I170078J730457D01*
G01*
X109766967Y-101599998D02*
G75*
G03*
X107707060Y-103549380I1833033J-4000002D01*
G01*
X120200000Y-82600000D02*
X123700000Y-82600000D01*
X91606579Y-123109577D02*
X91606579Y-124400000D01*
X55645227Y-55370769D02*
G75*
G03*
X58166970Y-59999998I4354773J-629231D01*
G01*
X149800000Y-128000000D02*
X54400000Y-128000000D01*
X67666967Y-92599998D02*
G75*
G03*
X65607060Y-94549380I1833033J-4000002D01*
G01*
X123366970Y-60999998D02*
X123700000Y-60999999D01*
X132866969Y-100599999D02*
X133199999Y-100600000D01*
X139845221Y-55370757D02*
G75*
G03*
X140307058Y-53949379I170079J730457D01*
G01*
X80833033Y-100600004D02*
G75*
G03*
X83354780Y-95970767I-1833033J4000004D01*
G01*
X70999999Y-60000000D02*
X71333031Y-60000000D01*
X129092937Y-53949372D02*
G75*
G03*
X129554780Y-55370766I291763J-690928D01*
G01*
X126209051Y-124400000D02*
X132801645Y-124400000D01*
X105992939Y-62949382D02*
G75*
G03*
X103933031Y-60999999I-3892939J-2050618D01*
G01*
X104404934Y-114200000D02*
X110997528Y-114200000D01*
X113099999Y-69000000D02*
X113433031Y-69000000D01*
X63892939Y-85549382D02*
G75*
G03*
X61833032Y-83600000I-3892939J-2050618D01*
G01*
X82892939Y-53949382D02*
G75*
G03*
X80833031Y-51999999I-3892939J-2050618D01*
G01*
X80499999Y-92599999D02*
X80833031Y-92599999D01*
X70999999Y-101599999D02*
X71333031Y-101599999D01*
X80204118Y-124400000D02*
X76800000Y-124400000D01*
X132866969Y-91599999D02*
X133199999Y-91600000D01*
X145699999Y-69999999D02*
X146033031Y-69999999D01*
X104409051Y-124400000D02*
X111001645Y-124400000D01*
X67666969Y-59999999D02*
X67999999Y-60000000D01*
X94100000Y-51999999D02*
X94433032Y-51999999D01*
X90766968Y-60999998D02*
G75*
G03*
X88707061Y-62949380I1833032J-4000002D01*
G01*
X63892937Y-62949372D02*
G75*
G03*
X64354780Y-64370766I291763J-690928D01*
G01*
X94433034Y-91600005D02*
G75*
G03*
X96954781Y-86970767I-1833034J4000005D01*
G01*
X58166970Y-101599998D02*
X58500000Y-101599999D01*
X77166967Y-69999998D02*
G75*
G03*
X75107060Y-71949380I1833033J-4000002D01*
G01*
X100266969Y-83599998D02*
X100599999Y-83599999D01*
X90766970Y-77999999D02*
X91100000Y-78000000D01*
X120845222Y-64370757D02*
G75*
G03*
X121307059Y-62949380I170078J730457D01*
G01*
X105992939Y-71949382D02*
G75*
G03*
X103933031Y-69999999I-3892939J-2050618D01*
G01*
X90766970Y-69999998D02*
X91100000Y-69999999D01*
X82609051Y-123114327D02*
X82609051Y-124400000D01*
X123366970Y-83599998D02*
X123700000Y-83599999D01*
X123800006Y-115485685D02*
G75*
G03*
X121041970Y-118753958I1204494J-3814315D01*
G01*
X103599999Y-60000000D02*
X103933031Y-60000000D01*
X67666969Y-91599999D02*
X67999999Y-91600000D01*
X67666969Y-92599998D02*
X67999999Y-92599999D01*
X76800000Y-114200000D02*
X80200000Y-114200000D01*
X102004118Y-124400000D02*
X98600000Y-124400000D01*
X58400006Y-115485685D02*
G75*
G03*
X55641970Y-118753958I1204494J-3814315D01*
G01*
X132866969Y-60999998D02*
X133199999Y-60999999D01*
X61500000Y-78000000D02*
X61833032Y-78000000D01*
X51400000Y-82600000D02*
X51400000Y-79000000D01*
X80499999Y-79000000D02*
X84000000Y-79000000D01*
X106085621Y-116525247D02*
G75*
G03*
X106731251Y-117412629I353379J-421453D01*
G01*
X61500000Y-51000000D02*
X67999999Y-51000000D01*
X142366967Y-101599998D02*
G75*
G03*
X140307060Y-103549380I1833033J-4000002D01*
G01*
X99242704Y-119851391D02*
G75*
G03*
X99241969Y-118753959I-38204J548691D01*
G01*
X60809051Y-123114327D02*
X60809051Y-124400000D01*
X130345221Y-64370757D02*
G75*
G03*
X130807058Y-62949379I170079J730457D01*
G01*
X67666969Y-77999999D02*
X67999999Y-78000000D01*
X90766970Y-91599999D02*
X91100000Y-91600000D01*
X145699999Y-69000000D02*
X146033031Y-69000000D01*
X132866969Y-83599998D02*
X133199999Y-83599999D01*
X58166970Y-60999998D02*
X58500000Y-60999999D01*
X70999999Y-92599999D02*
X71333031Y-92599999D01*
X113433033Y-109600004D02*
G75*
G03*
X115954780Y-104970767I-1833033J4000004D01*
G01*
X86872798Y-117412605D02*
G75*
G03*
X86586432Y-118094836I3529202J-1882595D01*
G01*
X149800000Y-128000000D02*
G75*
G03*
X152800000Y-125000000I0J3000000D01*
G01*
X103599999Y-51999999D02*
X103933031Y-51999999D01*
X126700000Y-78000000D02*
X127033032Y-78000000D01*
X104404934Y-115484369D02*
X104404934Y-114200000D01*
X61500000Y-51999999D02*
X61833032Y-51999999D01*
X74645221Y-86970757D02*
G75*
G03*
X75107058Y-85549379I170079J730457D01*
G01*
X94100000Y-82600000D02*
X100599999Y-82600000D01*
X136199999Y-91600000D02*
X136533031Y-91600000D01*
X65145221Y-64370757D02*
G75*
G03*
X65607058Y-62949379I170079J730457D01*
G01*
X109766969Y-101599998D02*
X110099999Y-101599999D01*
X64788958Y-120500386D02*
G75*
G03*
X65075329Y-121182615I3815542J1200386D01*
G01*
X132866969Y-92599998D02*
X133199999Y-92599999D01*
X91602461Y-115479611D02*
X91602461Y-114200000D01*
X82609054Y-123114337D02*
G75*
G03*
X84289338Y-122070890I-1204554J3814337D01*
G01*
X126700000Y-69999999D02*
X127033032Y-69999999D01*
X129092939Y-71949382D02*
G75*
G03*
X127033032Y-70000000I-3892939J-2050618D01*
G01*
X142366969Y-68999999D02*
X142699999Y-69000000D01*
X103599999Y-78000000D02*
X103933031Y-78000000D01*
X63420147Y-120500408D02*
X64788959Y-120500386D01*
X77166969Y-59999999D02*
X77499999Y-60000000D01*
X80499999Y-60000000D02*
X80833031Y-60000000D01*
X135202461Y-115479611D02*
X135202461Y-114200000D01*
X73392937Y-94549373D02*
G75*
G03*
X73854779Y-95970765I291763J-690927D01*
G01*
X65720959Y-122069996D02*
G75*
G03*
X67401645Y-123110875I2881141J2774796D01*
G01*
X108388958Y-120500386D02*
G75*
G03*
X108675329Y-121182615I3815542J1200386D01*
G01*
X80499999Y-69999999D02*
X80833031Y-69999999D01*
X51400000Y-53000000D02*
X51400000Y-77000000D01*
X90766968Y-69999998D02*
G75*
G03*
X88707061Y-71949380I1833032J-4000002D01*
G01*
X87521033Y-122070086D02*
G75*
G03*
X86875328Y-121182615I-353433J421486D01*
G01*
X90766968Y-92599998D02*
G75*
G03*
X88707061Y-94549380I1833032J-4000002D01*
G01*
X105992939Y-103549382D02*
G75*
G03*
X103933031Y-101599999I-3892939J-2050618D01*
G01*
X136199999Y-60000000D02*
X136533031Y-60000000D01*
X90766968Y-101599998D02*
G75*
G03*
X88707061Y-103549380I1833032J-4000002D01*
G01*
X94100000Y-110600000D02*
X100599999Y-110600000D01*
X113406579Y-123109577D02*
X113406579Y-124400000D01*
X132866967Y-69999998D02*
G75*
G03*
X130807060Y-71949380I1833033J-4000002D01*
G01*
X55645222Y-64370757D02*
G75*
G03*
X56107059Y-62949380I170078J730457D01*
G01*
X116800000Y-122400000D02*
X116800000Y-116200000D01*
X120200000Y-51000000D02*
X123700000Y-51000000D01*
X90766970Y-51999998D02*
X91100000Y-51999999D01*
X103933033Y-109600004D02*
G75*
G03*
X106454780Y-104970767I-1833033J4000004D01*
G01*
X102000006Y-115485685D02*
G75*
G03*
X99241970Y-118753958I1204494J-3814315D01*
G01*
X132866969Y-68999999D02*
X133199999Y-69000000D01*
X131121033Y-122070086D02*
G75*
G03*
X130475328Y-121182615I-353433J421486D01*
G01*
X67666969Y-69999998D02*
X67999999Y-69999999D01*
X115492939Y-85549382D02*
G75*
G03*
X113433031Y-83599999I-3892939J-2050618D01*
G01*
X58166968Y-83599998D02*
G75*
G03*
X56107061Y-85549380I1833032J-4000002D01*
G01*
X132866967Y-60999998D02*
G75*
G03*
X130807060Y-62949380I1833033J-4000002D01*
G01*
X120200000Y-108600000D02*
X120200000Y-84600000D01*
X142366969Y-100599999D02*
X142699999Y-100600000D01*
X105992939Y-53949382D02*
G75*
G03*
X103933031Y-51999999I-3892939J-2050618D01*
G01*
X80499999Y-60999999D02*
X80833031Y-60999999D01*
X97745226Y-64370769D02*
G75*
G03*
X100266969Y-68999999I4354774J-629231D01*
G01*
X132801645Y-123110875D02*
X132801645Y-124400000D01*
X116163882Y-118743964D02*
G75*
G03*
X116164610Y-119841286I38218J-548636D01*
G01*
X128820147Y-120500408D02*
X130188959Y-120500386D01*
X103599999Y-79000000D02*
X110099999Y-79000000D01*
X58166968Y-51999998D02*
G75*
G03*
X56107061Y-53949380I1833032J-4000002D01*
G01*
X61500000Y-110600000D02*
X67999999Y-110600000D01*
X51400000Y-125000000D02*
G75*
G03*
X54400000Y-128000000I3000000J0D01*
G01*
X149200000Y-114200000D02*
X142200000Y-114200000D01*
X137963882Y-118743964D02*
G75*
G03*
X137964610Y-119841286I38218J-548636D01*
G01*
X132866967Y-83599998D02*
G75*
G03*
X130807060Y-85549380I1833033J-4000002D01*
G01*
X107245221Y-86970757D02*
G75*
G03*
X107707058Y-85549379I170079J730457D01*
G01*
X138592937Y-71949373D02*
G75*
G03*
X139054779Y-73370765I291763J-690927D01*
G01*
X70999999Y-109600000D02*
X71333031Y-109600000D01*
X86586432Y-118094836D02*
X85217620Y-118094858D01*
X67666969Y-68999999D02*
X67999999Y-69000000D01*
X82892937Y-103549373D02*
G75*
G03*
X83354779Y-104970765I291763J-690927D01*
G01*
X135206579Y-123109577D02*
X135206579Y-124400000D01*
X96492939Y-85549382D02*
G75*
G03*
X94433032Y-83600000I-3892939J-2050618D01*
G01*
X126700000Y-83599999D02*
X127033032Y-83599999D01*
X142200000Y-124400000D02*
X149200000Y-124400000D01*
X77166969Y-101599998D02*
X77499999Y-101599999D01*
X60809051Y-124400000D02*
X67401645Y-124400000D01*
X58404118Y-124400000D02*
X55000000Y-124400000D01*
X97745221Y-55370757D02*
G75*
G03*
X98207058Y-53949379I170079J730457D01*
G01*
X115492939Y-62949382D02*
G75*
G03*
X113433031Y-60999999I-3892939J-2050618D01*
G01*
X82892937Y-53949373D02*
G75*
G03*
X83354779Y-55370765I291763J-690927D01*
G01*
X90766970Y-59999999D02*
X91100000Y-60000000D01*
X115492937Y-62949373D02*
G75*
G03*
X115954779Y-64370765I291763J-690927D01*
G01*
X97745226Y-86970769D02*
G75*
G03*
X100266969Y-91599999I4354774J-629231D01*
G01*
X103599999Y-109600000D02*
X103933031Y-109600000D01*
X77166969Y-77999999D02*
X77499999Y-78000000D01*
X126700000Y-79000000D02*
X133199999Y-79000000D01*
X60809054Y-123114337D02*
G75*
G03*
X62489338Y-122070890I-1204554J3814337D01*
G01*
X90766968Y-51999998D02*
G75*
G03*
X88707061Y-53949380I1833032J-4000002D01*
G01*
X103599999Y-60999999D02*
X103933031Y-60999999D01*
X136199999Y-83599999D02*
X136533031Y-83599999D01*
X84000000Y-84600000D02*
X84000000Y-108600000D01*
X130345226Y-55370769D02*
G75*
G03*
X132866969Y-59999999I4354774J-629231D01*
G01*
X110997519Y-115480888D02*
G75*
G03*
X109317242Y-116524355I1204581J-3814312D01*
G01*
X55642704Y-119851391D02*
G75*
G03*
X55641969Y-118753959I-38204J548691D01*
G01*
X148092937Y-62949373D02*
G75*
G03*
X148554779Y-64370765I291763J-690927D01*
G01*
X109766969Y-92599998D02*
X110099999Y-92599999D01*
X103599999Y-101599999D02*
X103933031Y-101599999D01*
X113099999Y-79000000D02*
X116600000Y-79000000D01*
X129092937Y-103549372D02*
G75*
G03*
X129554780Y-104970766I291763J-690928D01*
G01*
X94100000Y-51000000D02*
X100599999Y-51000000D01*
X94100000Y-101599999D02*
X94433032Y-101599999D01*
X80499999Y-69000000D02*
X80833031Y-69000000D01*
X142366969Y-77999999D02*
X142699999Y-78000000D01*
X73392939Y-94549382D02*
G75*
G03*
X71333031Y-92599999I-3892939J-2050618D01*
G01*
X80499999Y-100600000D02*
X80833031Y-100600000D01*
X88245222Y-95970757D02*
G75*
G03*
X88707059Y-94549380I170078J730457D01*
G01*
X103599999Y-82600000D02*
X110099999Y-82600000D01*
X61833034Y-69000005D02*
G75*
G03*
X64354781Y-64370767I-1833034J4000005D01*
G01*
X130345221Y-73370757D02*
G75*
G03*
X130807058Y-71949379I170079J730457D01*
G01*
X55000000Y-116200000D02*
X55000000Y-122400000D01*
X87600000Y-51000000D02*
X91100000Y-51000000D01*
X61500000Y-69999999D02*
X61833032Y-69999999D01*
X113099999Y-83599999D02*
X113433031Y-83599999D01*
X67397528Y-115480917D02*
X67397528Y-114200000D01*
X77166967Y-51999998D02*
G75*
G03*
X75107060Y-53949380I1833033J-4000002D01*
G01*
X63892939Y-53949382D02*
G75*
G03*
X61833032Y-52000000I-3892939J-2050618D01*
G01*
X145699999Y-60000000D02*
X146033031Y-60000000D01*
X145699999Y-101599999D02*
X146033031Y-101599999D01*
X70999999Y-110600000D02*
X77499999Y-110600000D01*
X129092939Y-103549382D02*
G75*
G03*
X127033032Y-101600000I-3892939J-2050618D01*
G01*
X123366970Y-77999999D02*
X123700000Y-78000000D01*
X102004118Y-123115633D02*
X102004118Y-124400000D01*
X67666967Y-51999998D02*
G75*
G03*
X65607060Y-53949380I1833033J-4000002D01*
G01*
X142366969Y-60999998D02*
X142699999Y-60999999D01*
X109766969Y-68999999D02*
X110099999Y-69000000D01*
X132866969Y-109599999D02*
X133199999Y-109600000D01*
X95000000Y-122400000D02*
X95000000Y-116200000D01*
X109766969Y-59999999D02*
X110099999Y-60000000D01*
X67666967Y-60999998D02*
G75*
G03*
X65607060Y-62949380I1833033J-4000002D01*
G01*
X77166969Y-83599998D02*
X77499999Y-83599999D01*
X88245227Y-104970769D02*
G75*
G03*
X90766970Y-109599998I4354773J-629231D01*
G01*
X136199999Y-69999999D02*
X136533031Y-69999999D01*
X77166969Y-91599999D02*
X77499999Y-91600000D01*
X58404118Y-123115633D02*
X58404118Y-124400000D01*
X63892937Y-94549372D02*
G75*
G03*
X64354780Y-95970766I291763J-690928D01*
G01*
X96492939Y-94549382D02*
G75*
G03*
X94433032Y-92600000I-3892939J-2050618D01*
G01*
X139845226Y-55370769D02*
G75*
G03*
X142366969Y-59999999I4354774J-629231D01*
G01*
X145699999Y-91600000D02*
X146033031Y-91600000D01*
X116163872Y-118743888D02*
G75*
G03*
X113402461Y-115479611I-3961772J-551312D01*
G01*
X129092937Y-62949372D02*
G75*
G03*
X129554780Y-64370766I291763J-690928D01*
G01*
X84285621Y-116525247D02*
G75*
G03*
X84931251Y-117412629I353379J-421453D01*
G01*
X91606558Y-123109511D02*
G75*
G03*
X94364609Y-119841286I-1204458J3814311D01*
G01*
X100266967Y-51999998D02*
G75*
G03*
X98207060Y-53949380I1833033J-4000002D01*
G01*
X109766967Y-92599998D02*
G75*
G03*
X107707060Y-94549380I1833033J-4000002D01*
G01*
X71333033Y-78000004D02*
G75*
G03*
X73854780Y-73370767I-1833033J4000004D01*
G01*
X109320959Y-122069996D02*
G75*
G03*
X111001645Y-123110875I2881141J2774796D01*
G01*
X113099999Y-69999999D02*
X113433031Y-69999999D01*
X138592939Y-71949382D02*
G75*
G03*
X136533031Y-69999999I-3892939J-2050618D01*
G01*
X148092939Y-85549382D02*
G75*
G03*
X146033031Y-83599999I-3892939J-2050618D01*
G01*
X61500000Y-109600000D02*
X61833032Y-109600000D01*
X90766970Y-68999999D02*
X91100000Y-69000000D01*
X70999999Y-51999999D02*
X71333031Y-51999999D01*
X94100000Y-60999999D02*
X94433032Y-60999999D01*
X97745221Y-95970757D02*
G75*
G03*
X98207058Y-94549379I170079J730457D01*
G01*
X58166970Y-83599998D02*
X58500000Y-83599999D01*
X129092937Y-71949372D02*
G75*
G03*
X129554780Y-73370766I291763J-690928D01*
G01*
X77166969Y-100599999D02*
X77499999Y-100600000D01*
X54400000Y-47400000D02*
X149800000Y-47400000D01*
X55000000Y-82600000D02*
X58500000Y-82600000D01*
X132866969Y-69999998D02*
X133199999Y-69999999D01*
X67401645Y-123110875D02*
X67401645Y-124400000D01*
X80499999Y-101599999D02*
X80833031Y-101599999D01*
X109766969Y-83599998D02*
X110099999Y-83599999D01*
X120845222Y-86970757D02*
G75*
G03*
X121307059Y-85549380I170078J730457D01*
G01*
X120200000Y-77000000D02*
X120200000Y-53000000D01*
X73392939Y-62949382D02*
G75*
G03*
X71333031Y-60999999I-3892939J-2050618D01*
G01*
X148092939Y-53949382D02*
G75*
G03*
X146033031Y-51999999I-3892939J-2050618D01*
G01*
X96492937Y-71949372D02*
G75*
G03*
X96954780Y-73370766I291763J-690928D01*
G01*
X100266969Y-92599998D02*
X100599999Y-92599999D01*
X107245226Y-95970769D02*
G75*
G03*
X109766969Y-100599999I4354774J-629231D01*
G01*
X73392939Y-85549382D02*
G75*
G03*
X71333031Y-83599999I-3892939J-2050618D01*
G01*
X108386432Y-118094836D02*
X107017620Y-118094858D01*
X96492939Y-62949382D02*
G75*
G03*
X94433032Y-61000000I-3892939J-2050618D01*
G01*
X113433033Y-100600004D02*
G75*
G03*
X115954780Y-95970767I-1833033J4000004D01*
G01*
X77166969Y-60999998D02*
X77499999Y-60999999D01*
X80499999Y-83599999D02*
X80833031Y-83599999D01*
X85217615Y-118094859D02*
G75*
G03*
X84931251Y-117412629I-3815515J-1200341D01*
G01*
X148092939Y-62949382D02*
G75*
G03*
X146033031Y-60999999I-3892939J-2050618D01*
G01*
X104409051Y-123114327D02*
X104409051Y-124400000D01*
X103599999Y-91600000D02*
X103933031Y-91600000D01*
X69806579Y-123109576D02*
G75*
G03*
X72564609Y-119841286I-1204519J3814326D01*
G01*
X109766967Y-60999998D02*
G75*
G03*
X107707060Y-62949380I1833033J-4000002D01*
G01*
X136533033Y-100600004D02*
G75*
G03*
X139054780Y-95970767I-1833033J4000004D01*
G01*
X142366969Y-92599998D02*
X142699999Y-92599999D01*
X65145226Y-86970769D02*
G75*
G03*
X67666969Y-91599999I4354774J-629231D01*
G01*
X136199999Y-100600000D02*
X136533031Y-100600000D01*
X96492939Y-71949382D02*
G75*
G03*
X94433032Y-70000000I-3892939J-2050618D01*
G01*
X76800000Y-116200000D02*
X76800000Y-122400000D01*
X138600000Y-124400000D02*
X135206579Y-124400000D01*
X128533775Y-121182646D02*
G75*
G03*
X127889338Y-122070890I-291575J-466354D01*
G01*
X152800000Y-77000000D02*
X152800000Y-53000000D01*
X58166968Y-92599998D02*
G75*
G03*
X56107061Y-94549380I1833032J-4000002D01*
G01*
X94100000Y-83599999D02*
X94433032Y-83599999D01*
X111001645Y-123110875D02*
X111001645Y-124400000D01*
X139845226Y-73370769D02*
G75*
G03*
X142366969Y-77999999I4354774J-629231D01*
G01*
X148092937Y-103549373D02*
G75*
G03*
X148554779Y-104970765I291763J-690927D01*
G01*
X88245227Y-73370769D02*
G75*
G03*
X90766970Y-77999998I4354773J-629231D01*
G01*
X103599999Y-69999999D02*
X103933031Y-69999999D01*
X116600000Y-84600000D02*
X116600000Y-108600000D01*
X104409054Y-123114337D02*
G75*
G03*
X106089338Y-122070890I-1204554J3814337D01*
G01*
X80499999Y-51000000D02*
X84000000Y-51000000D01*
X126209051Y-123114327D02*
X126209051Y-124400000D01*
X113099999Y-101599999D02*
X113433031Y-101599999D01*
X136199999Y-82600000D02*
X142699999Y-82600000D01*
X87600000Y-79000000D02*
X91100000Y-79000000D01*
X105992939Y-85549382D02*
G75*
G03*
X103933031Y-83599999I-3892939J-2050618D01*
G01*
X97745221Y-64370757D02*
G75*
G03*
X98207058Y-62949379I170079J730457D01*
G01*
X139845226Y-64370769D02*
G75*
G03*
X142366969Y-68999999I4354774J-629231D01*
G01*
X107245226Y-104970769D02*
G75*
G03*
X109766969Y-109599999I4354774J-629231D01*
G01*
X67666969Y-109599999D02*
X67999999Y-109600000D01*
X51400000Y-51000000D02*
X51400000Y-50400000D01*
X90766970Y-101599998D02*
X91100000Y-101599999D01*
X100266969Y-101599998D02*
X100599999Y-101599999D01*
X90766970Y-92599998D02*
X91100000Y-92599999D01*
X77442686Y-119851359D02*
G75*
G03*
X80204118Y-123115633I3961814J551359D01*
G01*
X61500000Y-79000000D02*
X67999999Y-79000000D01*
X145699999Y-60999999D02*
X146033031Y-60999999D01*
X86588958Y-120500386D02*
G75*
G03*
X86875329Y-121182615I3815542J1200386D01*
G01*
X129092939Y-94549382D02*
G75*
G03*
X127033032Y-92600000I-3892939J-2050618D01*
G01*
X123366968Y-51999998D02*
G75*
G03*
X121307061Y-53949380I1833032J-4000002D01*
G01*
X74645221Y-64370757D02*
G75*
G03*
X75107058Y-62949379I170079J730457D01*
G01*
X145699999Y-79000000D02*
X149200000Y-79000000D01*
X80204118Y-123115633D02*
X80204118Y-124400000D01*
X136533033Y-109600004D02*
G75*
G03*
X139054780Y-104970767I-1833033J4000004D01*
G01*
X127033034Y-60000005D02*
G75*
G03*
X129554781Y-55370767I-1833034J4000005D01*
G01*
X97745226Y-55370769D02*
G75*
G03*
X100266969Y-59999999I4354774J-629231D01*
G01*
X62485621Y-116525247D02*
G75*
G03*
X63131251Y-117412629I353379J-421453D01*
G01*
X74645226Y-86970769D02*
G75*
G03*
X77166969Y-91599999I4354774J-629231D01*
G01*
X77166967Y-83599998D02*
G75*
G03*
X75107060Y-85549380I1833033J-4000002D01*
G01*
X94100000Y-60000000D02*
X94433032Y-60000000D01*
X95000000Y-124400000D02*
X91606579Y-124400000D01*
X148092937Y-53949373D02*
G75*
G03*
X148554779Y-55370765I291763J-690927D01*
G01*
X65145226Y-73370769D02*
G75*
G03*
X67666969Y-77999999I4354774J-629231D01*
G01*
X94433034Y-78000005D02*
G75*
G03*
X96954781Y-73370767I-1833034J4000005D01*
G01*
X77166967Y-92599998D02*
G75*
G03*
X75107060Y-94549380I1833033J-4000002D01*
G01*
X115492939Y-53949382D02*
G75*
G03*
X113433031Y-51999999I-3892939J-2050618D01*
G01*
X139845226Y-104970769D02*
G75*
G03*
X142366969Y-109599999I4354774J-629231D01*
G01*
X61500000Y-82600000D02*
X67999999Y-82600000D01*
X123366970Y-92599998D02*
X123700000Y-92599999D01*
X100266969Y-69999998D02*
X100599999Y-69999999D01*
X55000000Y-110600000D02*
X58500000Y-110600000D01*
X123366968Y-69999998D02*
G75*
G03*
X121307061Y-71949380I1833032J-4000002D01*
G01*
X87520959Y-122069996D02*
G75*
G03*
X89201645Y-123110875I2881141J2774796D01*
G01*
X67666969Y-51999998D02*
X67999999Y-51999999D01*
X126700000Y-69000000D02*
X127033032Y-69000000D01*
X80499999Y-91600000D02*
X80833031Y-91600000D01*
X149200000Y-122400000D02*
X142200000Y-122400000D01*
X85220147Y-120500408D02*
X86588959Y-120500386D01*
X120400000Y-114200000D02*
X123800000Y-114200000D01*
X88245227Y-95970769D02*
G75*
G03*
X90766970Y-100599998I4354773J-629231D01*
G01*
X116600000Y-53000000D02*
X116600000Y-77000000D01*
X77166969Y-51999998D02*
X77499999Y-51999999D01*
X67666969Y-60999998D02*
X67999999Y-60999999D01*
X148092939Y-71949382D02*
G75*
G03*
X146033031Y-69999999I-3892939J-2050618D01*
G01*
X146033033Y-78000004D02*
G75*
G03*
X148554780Y-73370767I-1833033J4000004D01*
G01*
X58166970Y-91599999D02*
X58500000Y-91600000D01*
X94433034Y-60000005D02*
G75*
G03*
X96954781Y-55370767I-1833034J4000005D01*
G01*
X107245226Y-64370769D02*
G75*
G03*
X109766969Y-68999999I4354774J-629231D01*
G01*
X82609051Y-124400000D02*
X89201645Y-124400000D01*
X138600000Y-122400000D02*
X138600000Y-116200000D01*
X130472769Y-117412654D02*
G75*
G03*
X131117240Y-116524355I291631J466354D01*
G01*
X58166970Y-51999998D02*
X58500000Y-51999999D01*
X67397519Y-115480888D02*
G75*
G03*
X65717242Y-116524355I1204581J-3814312D01*
G01*
X58166970Y-100599999D02*
X58500000Y-100600000D01*
X123366970Y-59999999D02*
X123700000Y-60000000D01*
X67666969Y-83599998D02*
X67999999Y-83599999D01*
X130188958Y-120500386D02*
G75*
G03*
X130475329Y-121182615I3815542J1200386D01*
G01*
X77166969Y-69999998D02*
X77499999Y-69999999D01*
X63892937Y-53949372D02*
G75*
G03*
X64354780Y-55370766I291763J-690928D01*
G01*
X103599999Y-69000000D02*
X103933031Y-69000000D01*
X82892939Y-62949382D02*
G75*
G03*
X80833031Y-60999999I-3892939J-2050618D01*
G01*
X80833033Y-91600004D02*
G75*
G03*
X83354780Y-86970767I-1833033J4000004D01*
G01*
X136199999Y-51999999D02*
X136533031Y-51999999D01*
X99242686Y-119851359D02*
G75*
G03*
X102004118Y-123115633I3961814J551359D01*
G01*
X65145226Y-104970769D02*
G75*
G03*
X67666969Y-109599999I4354774J-629231D01*
G01*
X82604934Y-114200000D02*
X89197528Y-114200000D01*
X142366967Y-83599998D02*
G75*
G03*
X140307060Y-85549380I1833033J-4000002D01*
G01*
X94100000Y-100600000D02*
X94433032Y-100600000D01*
X96492939Y-103549382D02*
G75*
G03*
X94433032Y-101600000I-3892939J-2050618D01*
G01*
X55645227Y-64370769D02*
G75*
G03*
X58166970Y-68999998I4354773J-629231D01*
G01*
X126700000Y-60000000D02*
X127033032Y-60000000D01*
X126700000Y-91600000D02*
X127033032Y-91600000D01*
X136199999Y-69000000D02*
X136533031Y-69000000D01*
X142366969Y-59999999D02*
X142699999Y-60000000D01*
X73392939Y-103549382D02*
G75*
G03*
X71333031Y-101599999I-3892939J-2050618D01*
G01*
X94433034Y-109600005D02*
G75*
G03*
X96954781Y-104970767I-1833034J4000005D01*
G01*
X145699999Y-110600000D02*
X149200000Y-110600000D01*
X107245221Y-104970757D02*
G75*
G03*
X107707058Y-103549379I170079J730457D01*
G01*
X136533033Y-69000004D02*
G75*
G03*
X139054780Y-64370767I-1833033J4000004D01*
G01*
X127033034Y-91600005D02*
G75*
G03*
X129554781Y-86970767I-1833034J4000005D01*
G01*
X123366970Y-100599999D02*
X123700000Y-100600000D01*
X120845227Y-64370769D02*
G75*
G03*
X123366970Y-68999998I4354773J-629231D01*
G01*
X100266967Y-101599998D02*
G75*
G03*
X98207060Y-103549380I1833033J-4000002D01*
G01*
X120200000Y-110600000D02*
X123700000Y-110600000D01*
X109321033Y-122070086D02*
G75*
G03*
X108675328Y-121182615I-353433J421486D01*
G01*
X88245227Y-86970769D02*
G75*
G03*
X90766970Y-91599998I4354773J-629231D01*
G01*
X55645222Y-55370757D02*
G75*
G03*
X56107059Y-53949380I170078J730457D01*
G01*
X67666967Y-101599998D02*
G75*
G03*
X65607060Y-103549380I1833033J-4000002D01*
G01*
X103933033Y-91600004D02*
G75*
G03*
X106454780Y-86970767I-1833033J4000004D01*
G01*
X142366967Y-51999998D02*
G75*
G03*
X140307060Y-53949380I1833033J-4000002D01*
G01*
X102000000Y-115485667D02*
X102000000Y-114200000D01*
X103933033Y-78000004D02*
G75*
G03*
X106454780Y-73370767I-1833033J4000004D01*
G01*
X88245227Y-55370769D02*
G75*
G03*
X90766970Y-59999998I4354773J-629231D01*
G01*
X129092939Y-53949382D02*
G75*
G03*
X127033032Y-52000000I-3892939J-2050618D01*
G01*
X106733775Y-121182646D02*
G75*
G03*
X106089338Y-122070890I-291575J-466354D01*
G01*
X77166967Y-60999998D02*
G75*
G03*
X75107060Y-62949380I1833033J-4000002D01*
G01*
X137963872Y-118743888D02*
G75*
G03*
X135202461Y-115479611I-3961772J-551312D01*
G01*
X103599999Y-83599999D02*
X103933031Y-83599999D01*
X127033034Y-100600005D02*
G75*
G03*
X129554781Y-95970767I-1833034J4000005D01*
G01*
X84000000Y-53000000D02*
X84000000Y-77000000D01*
X58166970Y-77999999D02*
X58500000Y-78000000D01*
X71333033Y-60000004D02*
G75*
G03*
X73854780Y-55370767I-1833033J4000004D01*
G01*
X109766969Y-77999999D02*
X110099999Y-78000000D01*
X120200000Y-79000000D02*
X123700000Y-79000000D01*
X115492939Y-94549382D02*
G75*
G03*
X113433031Y-92599999I-3892939J-2050618D01*
G01*
X55645222Y-95970757D02*
G75*
G03*
X56107059Y-94549380I170078J730457D01*
G01*
X100266969Y-109599999D02*
X100599999Y-109600000D01*
X67666969Y-101599998D02*
X67999999Y-101599999D01*
X63892939Y-71949382D02*
G75*
G03*
X61833032Y-70000000I-3892939J-2050618D01*
G01*
X100266969Y-91599999D02*
X100599999Y-91600000D01*
X65721033Y-122070086D02*
G75*
G03*
X65075328Y-121182615I-353433J421486D01*
G01*
X94363872Y-118743888D02*
G75*
G03*
X91602461Y-115479611I-3961772J-551312D01*
G01*
X86872769Y-117412654D02*
G75*
G03*
X87517240Y-116524355I291631J466354D01*
G01*
X100266969Y-68999999D02*
X100599999Y-69000000D01*
X61500000Y-60999999D02*
X61833032Y-60999999D01*
X100266969Y-51999998D02*
X100599999Y-51999999D01*
X130472798Y-117412605D02*
G75*
G03*
X130186432Y-118094836I3529202J-1882595D01*
G01*
X73200000Y-122400000D02*
X73200000Y-116200000D01*
X80499999Y-109600000D02*
X80833031Y-109600000D01*
X107245221Y-64370757D02*
G75*
G03*
X107707058Y-62949379I170079J730457D01*
G01*
X139845221Y-104970757D02*
G75*
G03*
X140307058Y-103549379I170079J730457D01*
G01*
X94100000Y-79000000D02*
X100599999Y-79000000D01*
X120845222Y-55370757D02*
G75*
G03*
X121307059Y-53949380I170078J730457D01*
G01*
X138592937Y-94549373D02*
G75*
G03*
X139054779Y-95970765I291763J-690927D01*
G01*
X138592937Y-85549373D02*
G75*
G03*
X139054779Y-86970765I291763J-690927D01*
G01*
X74645226Y-73370769D02*
G75*
G03*
X77166969Y-77999999I4354774J-629231D01*
G01*
X70999999Y-100600000D02*
X71333031Y-100600000D01*
X55000000Y-77000000D02*
X55000000Y-53000000D01*
X107245221Y-73370757D02*
G75*
G03*
X107707058Y-71949379I170079J730457D01*
G01*
X55642686Y-119851359D02*
G75*
G03*
X58404118Y-123115633I3961814J551359D01*
G01*
X94100000Y-69000000D02*
X94433032Y-69000000D01*
X113402461Y-114200000D02*
X116800000Y-114200000D01*
X120845222Y-95970757D02*
G75*
G03*
X121307059Y-94549380I170078J730457D01*
G01*
X67666967Y-69999998D02*
G75*
G03*
X65607060Y-71949380I1833033J-4000002D01*
G01*
X132866969Y-51999998D02*
X133199999Y-51999999D01*
X96492937Y-103549372D02*
G75*
G03*
X96954780Y-104970766I291763J-690928D01*
G01*
X70999999Y-83599999D02*
X71333031Y-83599999D01*
X61500000Y-100600000D02*
X61833032Y-100600000D01*
X94100000Y-78000000D02*
X94433032Y-78000000D01*
X96492937Y-53949372D02*
G75*
G03*
X96954780Y-55370766I291763J-690928D01*
G01*
X73392937Y-62949373D02*
G75*
G03*
X73854779Y-64370765I291763J-690927D01*
G01*
X126700000Y-82600000D02*
X133199999Y-82600000D01*
X77499999Y-101600000D02*
G75*
G03*
X77499999Y-100600000I0J500000D01*
G01*
X80499999Y-100600000D02*
G75*
G03*
X80499999Y-101600000I0J-500000D01*
G01*
X100599999Y-110600000D02*
G75*
G03*
X100599999Y-109600000I0J500000D01*
G01*
X103599999Y-109600000D02*
G75*
G03*
X103599999Y-110600000I0J-500000D01*
G01*
X123700000Y-110600000D02*
G75*
G03*
X123700000Y-109600000I0J500000D01*
G01*
X126700000Y-109600000D02*
G75*
G03*
X126700000Y-110600000I0J-500000D01*
G01*
X95000000Y-124400000D02*
G75*
G03*
X95000000Y-122400000I0J1000000D01*
G01*
X98600000Y-122400000D02*
G75*
G03*
X98600000Y-124400000I-2J-1000000D01*
G01*
X110099999Y-61000000D02*
G75*
G03*
X110099999Y-60000000I0J500000D01*
G01*
X113099999Y-60000000D02*
G75*
G03*
X113099999Y-61000000I0J-500000D01*
G01*
X67999999Y-52000000D02*
G75*
G03*
X67999999Y-51000000I0J500000D01*
G01*
X70999999Y-51000000D02*
G75*
G03*
X70999999Y-52000000I0J-500000D01*
G01*
X61500000Y-82600000D02*
G75*
G03*
X61500000Y-83600000I0J-500000D01*
G01*
X58500000Y-83600000D02*
G75*
G03*
X58500000Y-82600000I0J500000D01*
G01*
X80499999Y-109600000D02*
G75*
G03*
X80499999Y-110600000I0J-500000D01*
G01*
X77499999Y-110600000D02*
G75*
G03*
X77499999Y-109600000I0J500000D01*
G01*
X67999999Y-61000000D02*
G75*
G03*
X67999999Y-60000000I0J500000D01*
G01*
X70999999Y-60000000D02*
G75*
G03*
X70999999Y-61000000I0J-500000D01*
G01*
X73200000Y-116200000D02*
G75*
G03*
X73200000Y-114200000I0J1000000D01*
G01*
X76800000Y-114200000D02*
G75*
G03*
X76800000Y-116200000I-2J-1000000D01*
G01*
X136199999Y-91600000D02*
G75*
G03*
X136199999Y-92600000I0J-500000D01*
G01*
X133199999Y-92600000D02*
G75*
G03*
X133199999Y-91600000I0J500000D01*
G01*
X145699999Y-69000000D02*
G75*
G03*
X145699999Y-70000000I0J-500000D01*
G01*
X142699999Y-70000000D02*
G75*
G03*
X142699999Y-69000000I0J500000D01*
G01*
X126700000Y-100600000D02*
G75*
G03*
X126700000Y-101600000I0J-500000D01*
G01*
X123700000Y-101600000D02*
G75*
G03*
X123700000Y-100600000I0J500000D01*
G01*
X110099999Y-70000000D02*
G75*
G03*
X110099999Y-69000000I0J500000D01*
G01*
X113099999Y-69000000D02*
G75*
G03*
X113099999Y-70000000I0J-500000D01*
G01*
X142699999Y-92600000D02*
G75*
G03*
X142699999Y-91600000I0J500000D01*
G01*
X145699999Y-91600000D02*
G75*
G03*
X145699999Y-92600000I0J-500000D01*
G01*
X133199999Y-79000000D02*
G75*
G03*
X133199999Y-78000000I0J500000D01*
G01*
X136199999Y-78000000D02*
G75*
G03*
X136199999Y-79000000I0J-500000D01*
G01*
X80499999Y-60000000D02*
G75*
G03*
X80499999Y-61000000I0J-500000D01*
G01*
X77499999Y-61000000D02*
G75*
G03*
X77499999Y-60000000I0J500000D01*
G01*
X70999999Y-91600000D02*
G75*
G03*
X70999999Y-92600000I0J-500000D01*
G01*
X67999999Y-92600000D02*
G75*
G03*
X67999999Y-91600000I0J500000D01*
G01*
X145699999Y-51000000D02*
G75*
G03*
X145699999Y-52000000I0J-500000D01*
G01*
X142699999Y-52000000D02*
G75*
G03*
X142699999Y-51000000I0J500000D01*
G01*
X61500000Y-91600000D02*
G75*
G03*
X61500000Y-92600000I0J-500000D01*
G01*
X58500000Y-92600000D02*
G75*
G03*
X58500000Y-91600000I0J500000D01*
G01*
X136199999Y-100600000D02*
G75*
G03*
X136199999Y-101600000I0J-500000D01*
G01*
X133199999Y-101600000D02*
G75*
G03*
X133199999Y-100600000I0J500000D01*
G01*
X91100000Y-79000000D02*
G75*
G03*
X91100000Y-78000000I0J500000D01*
G01*
X94100000Y-78000000D02*
G75*
G03*
X94100000Y-79000000I0J-500000D01*
G01*
X80499999Y-91600000D02*
G75*
G03*
X80499999Y-92600000I0J-500000D01*
G01*
X77499999Y-92600000D02*
G75*
G03*
X77499999Y-91600000I0J500000D01*
G01*
X67999999Y-101600000D02*
G75*
G03*
X67999999Y-100600000I0J500000D01*
G01*
X70999999Y-100600000D02*
G75*
G03*
X70999999Y-101600000I0J-500000D01*
G01*
X103599999Y-78000000D02*
G75*
G03*
X103599999Y-79000000I0J-500000D01*
G01*
X100599999Y-79000000D02*
G75*
G03*
X100599999Y-78000000I0J500000D01*
G01*
X70999999Y-69000000D02*
G75*
G03*
X70999999Y-70000000I0J-500000D01*
G01*
X67999999Y-70000000D02*
G75*
G03*
X67999999Y-69000000I0J500000D01*
G01*
X110099999Y-83600000D02*
G75*
G03*
X110099999Y-82600000I0J500000D01*
G01*
X113099999Y-82600000D02*
G75*
G03*
X113099999Y-83600000I0J-500000D01*
G01*
X110099999Y-92600000D02*
G75*
G03*
X110099999Y-91600000I0J500000D01*
G01*
X113099999Y-91600000D02*
G75*
G03*
X113099999Y-92600000I0J-500000D01*
G01*
X91100000Y-61000000D02*
G75*
G03*
X91100000Y-60000000I0J500000D01*
G01*
X94100000Y-60000000D02*
G75*
G03*
X94100000Y-61000000I0J-500000D01*
G01*
X94100000Y-100600000D02*
G75*
G03*
X94100000Y-101600000I0J-500000D01*
G01*
X91100000Y-101600000D02*
G75*
G03*
X91100000Y-100600000I0J500000D01*
G01*
X142699999Y-83600000D02*
G75*
G03*
X142699999Y-82600000I0J500000D01*
G01*
X145699999Y-82600000D02*
G75*
G03*
X145699999Y-83600000I0J-500000D01*
G01*
X116600000Y-53000000D02*
G75*
G03*
X116600000Y-51000000I0J1000000D01*
G01*
X120200000Y-51000000D02*
G75*
G03*
X120200000Y-53000000I-2J-1000000D01*
G01*
X126700000Y-91600000D02*
G75*
G03*
X126700000Y-92600000I0J-500000D01*
G01*
X123700000Y-92600000D02*
G75*
G03*
X123700000Y-91600000I0J500000D01*
G01*
X120400000Y-114200000D02*
G75*
G03*
X120400000Y-116200000I-2J-1000000D01*
G01*
X116800000Y-116200000D02*
G75*
G03*
X116800000Y-114200000I0J1000000D01*
G01*
X61500000Y-100600000D02*
G75*
G03*
X61500000Y-101600000I0J-500000D01*
G01*
X58500000Y-101600000D02*
G75*
G03*
X58500000Y-100600000I0J500000D01*
G01*
X80499999Y-78000000D02*
G75*
G03*
X80499999Y-79000000I0J-500000D01*
G01*
X77499999Y-79000000D02*
G75*
G03*
X77499999Y-78000000I0J500000D01*
G01*
X58500000Y-70000000D02*
G75*
G03*
X58500000Y-69000000I0J500000D01*
G01*
X61500000Y-69000000D02*
G75*
G03*
X61500000Y-70000000I0J-500000D01*
G01*
X80499999Y-69000000D02*
G75*
G03*
X80499999Y-70000000I0J-500000D01*
G01*
X77499999Y-70000000D02*
G75*
G03*
X77499999Y-69000000I0J500000D01*
G01*
X126700000Y-60000000D02*
G75*
G03*
X126700000Y-61000000I0J-500000D01*
G01*
X123700000Y-61000000D02*
G75*
G03*
X123700000Y-60000000I0J500000D01*
G01*
X55000000Y-82600000D02*
G75*
G03*
X55000000Y-84600000I-2J-1000000D01*
G01*
X51400000Y-84600000D02*
G75*
G03*
X51400000Y-82600000I0J1000000D01*
G01*
X149200000Y-53000000D02*
G75*
G03*
X149200000Y-51000000I0J1000000D01*
G01*
X152800000Y-51000000D02*
G75*
G03*
X152800000Y-53000000I-2J-1000000D01*
G01*
X136199999Y-69000000D02*
G75*
G03*
X136199999Y-70000000I0J-500000D01*
G01*
X133199999Y-70000000D02*
G75*
G03*
X133199999Y-69000000I0J500000D01*
G01*
X103599999Y-82600000D02*
G75*
G03*
X103599999Y-83600000I0J-500000D01*
G01*
X100599999Y-83600000D02*
G75*
G03*
X100599999Y-82600000I0J500000D01*
G01*
X136199999Y-82600000D02*
G75*
G03*
X136199999Y-83600000I0J-500000D01*
G01*
X133199999Y-83600000D02*
G75*
G03*
X133199999Y-82600000I0J500000D01*
G01*
X51400000Y-79000000D02*
G75*
G03*
X51400000Y-77000000I0J1000000D01*
G01*
X55000000Y-77000000D02*
G75*
G03*
X55000000Y-79000000I-2J-1000000D01*
G01*
X113099999Y-51000000D02*
G75*
G03*
X113099999Y-52000000I0J-500000D01*
G01*
X110099999Y-52000000D02*
G75*
G03*
X110099999Y-51000000I0J500000D01*
G01*
X94100000Y-69000000D02*
G75*
G03*
X94100000Y-70000000I0J-500000D01*
G01*
X91100000Y-70000000D02*
G75*
G03*
X91100000Y-69000000I0J500000D01*
G01*
X70999999Y-109600000D02*
G75*
G03*
X70999999Y-110600000I0J-500000D01*
G01*
X67999999Y-110600000D02*
G75*
G03*
X67999999Y-109600000I0J500000D01*
G01*
X58500000Y-79000000D02*
G75*
G03*
X58500000Y-78000000I0J500000D01*
G01*
X61500000Y-78000000D02*
G75*
G03*
X61500000Y-79000000I0J-500000D01*
G01*
X113099999Y-109600000D02*
G75*
G03*
X113099999Y-110600000I0J-500000D01*
G01*
X110099999Y-110600000D02*
G75*
G03*
X110099999Y-109600000I0J500000D01*
G01*
X70999999Y-78000000D02*
G75*
G03*
X70999999Y-79000000I0J-500000D01*
G01*
X67999999Y-79000000D02*
G75*
G03*
X67999999Y-78000000I0J500000D01*
G01*
X136199999Y-109600000D02*
G75*
G03*
X136199999Y-110600000I0J-500000D01*
G01*
X133199999Y-110600000D02*
G75*
G03*
X133199999Y-109600000I0J500000D01*
G01*
X145699999Y-100600000D02*
G75*
G03*
X145699999Y-101600000I0J-500000D01*
G01*
X142699999Y-101600000D02*
G75*
G03*
X142699999Y-100600000I0J500000D01*
G01*
X149200000Y-84600000D02*
G75*
G03*
X149200000Y-82600000I0J1000000D01*
G01*
X152800000Y-82600000D02*
G75*
G03*
X152800000Y-84600000I-2J-1000000D01*
G01*
X58500000Y-52000000D02*
G75*
G03*
X58500000Y-51000000I0J500000D01*
G01*
X61500000Y-51000000D02*
G75*
G03*
X61500000Y-52000000I0J-500000D01*
G01*
X149200000Y-116200000D02*
G75*
G03*
X149200000Y-114200000I0J1000000D01*
G01*
X152800000Y-114200000D02*
G75*
G03*
X152800000Y-116200000I-2J-1000000D01*
G01*
X103599999Y-91600000D02*
G75*
G03*
X103599999Y-92600000I0J-500000D01*
G01*
X100599999Y-92600000D02*
G75*
G03*
X100599999Y-91600000I0J500000D01*
G01*
X87600000Y-51000000D02*
G75*
G03*
X87600000Y-53000000I-2J-1000000D01*
G01*
X84000000Y-53000000D02*
G75*
G03*
X84000000Y-51000000I0J1000000D01*
G01*
X126700000Y-69000000D02*
G75*
G03*
X126700000Y-70000000I0J-500000D01*
G01*
X123700000Y-70000000D02*
G75*
G03*
X123700000Y-69000000I0J500000D01*
G01*
X103599999Y-51000000D02*
G75*
G03*
X103599999Y-52000000I0J-500000D01*
G01*
X100599999Y-52000000D02*
G75*
G03*
X100599999Y-51000000I0J500000D01*
G01*
X87600000Y-108600000D02*
G75*
G03*
X87600000Y-110600000I-2J-1000000D01*
G01*
X84000000Y-110600000D02*
G75*
G03*
X84000000Y-108600000I0J1000000D01*
G01*
X152800000Y-108600000D02*
G75*
G03*
X152800000Y-110600000I-2J-1000000D01*
G01*
X149200000Y-110600000D02*
G75*
G03*
X149200000Y-108600000I0J1000000D01*
G01*
X133199999Y-52000000D02*
G75*
G03*
X133199999Y-51000000I0J500000D01*
G01*
X136199999Y-51000000D02*
G75*
G03*
X136199999Y-52000000I0J-500000D01*
G01*
X152800000Y-122400000D02*
G75*
G03*
X152800000Y-124400000I-2J-1000000D01*
G01*
X149200000Y-124400000D02*
G75*
G03*
X149200000Y-122400000I0J1000000D01*
G01*
X51400000Y-124400000D02*
G75*
G03*
X51400000Y-122400000I0J1000000D01*
G01*
X55000000Y-122400000D02*
G75*
G03*
X55000000Y-124400000I-2J-1000000D01*
G01*
X142699999Y-61000000D02*
G75*
G03*
X142699999Y-60000000I0J500000D01*
G01*
X145699999Y-60000000D02*
G75*
G03*
X145699999Y-61000000I0J-500000D01*
G01*
X136199999Y-60000000D02*
G75*
G03*
X136199999Y-61000000I0J-500000D01*
G01*
X133199999Y-61000000D02*
G75*
G03*
X133199999Y-60000000I0J500000D01*
G01*
X84000000Y-84600000D02*
G75*
G03*
X84000000Y-82600000I0J1000000D01*
G01*
X87600000Y-82600000D02*
G75*
G03*
X87600000Y-84600000I-2J-1000000D01*
G01*
X142200000Y-122400000D02*
G75*
G03*
X142200000Y-124400000I-2J-1000000D01*
G01*
X138600000Y-124400000D02*
G75*
G03*
X138600000Y-122400000I0J1000000D01*
G01*
X110099999Y-79000000D02*
G75*
G03*
X110099999Y-78000000I0J500000D01*
G01*
X113099999Y-78000000D02*
G75*
G03*
X113099999Y-79000000I0J-500000D01*
G01*
X126700000Y-78000000D02*
G75*
G03*
X126700000Y-79000000I0J-500000D01*
G01*
X123700000Y-79000000D02*
G75*
G03*
X123700000Y-78000000I0J500000D01*
G01*
X113099999Y-100600000D02*
G75*
G03*
X113099999Y-101600000I0J-500000D01*
G01*
X110099999Y-101600000D02*
G75*
G03*
X110099999Y-100600000I0J500000D01*
G01*
X70999999Y-82600000D02*
G75*
G03*
X70999999Y-83600000I0J-500000D01*
G01*
X67999999Y-83600000D02*
G75*
G03*
X67999999Y-82600000I0J500000D01*
G01*
X116600000Y-79000000D02*
G75*
G03*
X116600000Y-77000000I0J1000000D01*
G01*
X120200000Y-77000000D02*
G75*
G03*
X120200000Y-79000000I-2J-1000000D01*
G01*
X103599999Y-100600000D02*
G75*
G03*
X103599999Y-101600000I0J-500000D01*
G01*
X100599999Y-101600000D02*
G75*
G03*
X100599999Y-100600000I0J500000D01*
G01*
X149200000Y-79000000D02*
G75*
G03*
X149200000Y-77000000I0J1000000D01*
G01*
X152800000Y-77000000D02*
G75*
G03*
X152800000Y-79000000I-2J-1000000D01*
G01*
X142200000Y-114200000D02*
G75*
G03*
X142200000Y-116200000I-2J-1000000D01*
G01*
X138600000Y-116200000D02*
G75*
G03*
X138600000Y-114200000I0J1000000D01*
G01*
X87600000Y-77000000D02*
G75*
G03*
X87600000Y-79000000I-2J-1000000D01*
G01*
X84000000Y-79000000D02*
G75*
G03*
X84000000Y-77000000I0J1000000D01*
G01*
X142699999Y-110600000D02*
G75*
G03*
X142699999Y-109600000I0J500000D01*
G01*
X145699999Y-109600000D02*
G75*
G03*
X145699999Y-110600000I0J-500000D01*
G01*
X91100000Y-110600000D02*
G75*
G03*
X91100000Y-109600000I0J500000D01*
G01*
X94100000Y-109600000D02*
G75*
G03*
X94100000Y-110600000I0J-500000D01*
G01*
X100599999Y-70000000D02*
G75*
G03*
X100599999Y-69000000I0J500000D01*
G01*
X103599999Y-69000000D02*
G75*
G03*
X103599999Y-70000000I0J-500000D01*
G01*
X120200000Y-82600000D02*
G75*
G03*
X120200000Y-84600000I-2J-1000000D01*
G01*
X116600000Y-84600000D02*
G75*
G03*
X116600000Y-82600000I0J1000000D01*
G01*
X55000000Y-51000000D02*
G75*
G03*
X55000000Y-53000000I-2J-1000000D01*
G01*
X51400000Y-53000000D02*
G75*
G03*
X51400000Y-51000000I0J1000000D01*
G01*
X116800000Y-124400000D02*
G75*
G03*
X116800000Y-122400000I0J1000000D01*
G01*
X120400000Y-122400000D02*
G75*
G03*
X120400000Y-124400000I-2J-1000000D01*
G01*
X103599999Y-60000000D02*
G75*
G03*
X103599999Y-61000000I0J-500000D01*
G01*
X100599999Y-61000000D02*
G75*
G03*
X100599999Y-60000000I0J500000D01*
G01*
X94100000Y-51000000D02*
G75*
G03*
X94100000Y-52000000I0J-500000D01*
G01*
X91100000Y-52000000D02*
G75*
G03*
X91100000Y-51000000I0J500000D01*
G01*
X61500000Y-109600000D02*
G75*
G03*
X61500000Y-110600000I0J-500000D01*
G01*
X58500000Y-110600000D02*
G75*
G03*
X58500000Y-109600000I0J500000D01*
G01*
X55000000Y-108600000D02*
G75*
G03*
X55000000Y-110600000I-2J-1000000D01*
G01*
X51400000Y-110600000D02*
G75*
G03*
X51400000Y-108600000I0J1000000D01*
G01*
X55000000Y-114200000D02*
G75*
G03*
X55000000Y-116200000I-2J-1000000D01*
G01*
X51400000Y-116200000D02*
G75*
G03*
X51400000Y-114200000I0J1000000D01*
G01*
X123700000Y-52000000D02*
G75*
G03*
X123700000Y-51000000I0J500000D01*
G01*
X126700000Y-51000000D02*
G75*
G03*
X126700000Y-52000000I0J-500000D01*
G01*
X91100000Y-83600000D02*
G75*
G03*
X91100000Y-82600000I0J500000D01*
G01*
X94100000Y-82600000D02*
G75*
G03*
X94100000Y-83600000I0J-500000D01*
G01*
X95000000Y-116200000D02*
G75*
G03*
X95000000Y-114200000I0J1000000D01*
G01*
X98600000Y-114200000D02*
G75*
G03*
X98600000Y-116200000I-2J-1000000D01*
G01*
X80499999Y-82600000D02*
G75*
G03*
X80499999Y-83600000I0J-500000D01*
G01*
X77499999Y-83600000D02*
G75*
G03*
X77499999Y-82600000I0J500000D01*
G01*
X94100000Y-91600000D02*
G75*
G03*
X94100000Y-92600000I0J-500000D01*
G01*
X91100000Y-92600000D02*
G75*
G03*
X91100000Y-91600000I0J500000D01*
G01*
X58500000Y-61000000D02*
G75*
G03*
X58500000Y-60000000I0J500000D01*
G01*
X61500000Y-60000000D02*
G75*
G03*
X61500000Y-61000000I0J-500000D01*
G01*
X73200000Y-124400000D02*
G75*
G03*
X73200000Y-122400000I0J1000000D01*
G01*
X76800000Y-122400000D02*
G75*
G03*
X76800000Y-124400000I-2J-1000000D01*
G01*
X116600000Y-110600000D02*
G75*
G03*
X116600000Y-108600000I0J1000000D01*
G01*
X120200000Y-108600000D02*
G75*
G03*
X120200000Y-110600000I-2J-1000000D01*
G01*
X80499999Y-51000000D02*
G75*
G03*
X80499999Y-52000000I0J-500000D01*
G01*
X77499999Y-52000000D02*
G75*
G03*
X77499999Y-51000000I0J500000D01*
G01*
X126700000Y-82600000D02*
G75*
G03*
X126700000Y-83600000I0J-500000D01*
G01*
X123700000Y-83600000D02*
G75*
G03*
X123700000Y-82600000I0J500000D01*
G01*
X145699999Y-78000000D02*
G75*
G03*
X145699999Y-79000000I0J-500000D01*
G01*
X142699999Y-79000000D02*
G75*
G03*
X142699999Y-78000000I0J500000D01*
G01*
M02*
