G04 #@! TF.GenerationSoftware,KiCad,Pcbnew,7.0.11*
G04 #@! TF.CreationDate,2024-05-30T18:22:34+10:00*
G04 #@! TF.ProjectId,PercPlugPanel_v1.02,50657263-506c-4756-9750-616e656c5f76,rev?*
G04 #@! TF.SameCoordinates,Original*
G04 #@! TF.FileFunction,Paste,Bot*
G04 #@! TF.FilePolarity,Positive*
%FSLAX46Y46*%
G04 Gerber Fmt 4.6, Leading zero omitted, Abs format (unit mm)*
G04 Created by KiCad (PCBNEW 7.0.11) date 2024-05-30 18:22:34*
%MOMM*%
%LPD*%
G01*
G04 APERTURE LIST*
%ADD10R,0.406400X2.540000*%
G04 APERTURE END LIST*
D10*
X99220000Y-87600000D03*
X99860000Y-87600000D03*
X100500000Y-87600000D03*
X101140000Y-87600000D03*
X101780000Y-87600000D03*
X102420000Y-87600000D03*
X103060000Y-87600000D03*
X103700000Y-87600000D03*
X104340000Y-87600000D03*
X104980000Y-87600000D03*
X66620000Y-105600000D03*
X67260000Y-105600000D03*
X67900000Y-105600000D03*
X68540000Y-105600000D03*
X69180000Y-105600000D03*
X69820000Y-105600000D03*
X70460000Y-105600000D03*
X71100000Y-105600000D03*
X71740000Y-105600000D03*
X72380000Y-105600000D03*
X141320000Y-74000000D03*
X141960000Y-74000000D03*
X142600000Y-74000000D03*
X143240000Y-74000000D03*
X143880000Y-74000000D03*
X144520000Y-74000000D03*
X145160000Y-74000000D03*
X145800000Y-74000000D03*
X146440000Y-74000000D03*
X147080000Y-74000000D03*
X76120000Y-65000000D03*
X76760000Y-65000000D03*
X77400000Y-65000000D03*
X78040000Y-65000000D03*
X78680000Y-65000000D03*
X79320000Y-65000000D03*
X79960000Y-65000000D03*
X80600000Y-65000000D03*
X81240000Y-65000000D03*
X81880000Y-65000000D03*
X141320000Y-96600000D03*
X141960000Y-96600000D03*
X142600000Y-96600000D03*
X143240000Y-96600000D03*
X143880000Y-96600000D03*
X144520000Y-96600000D03*
X145160000Y-96600000D03*
X145800000Y-96600000D03*
X146440000Y-96600000D03*
X147080000Y-96600000D03*
X89720001Y-65000000D03*
X90360001Y-65000000D03*
X91000001Y-65000000D03*
X91640001Y-65000000D03*
X92280001Y-65000000D03*
X92920001Y-65000000D03*
X93560001Y-65000000D03*
X94200001Y-65000000D03*
X94840001Y-65000000D03*
X95480001Y-65000000D03*
X108720000Y-96600000D03*
X109360000Y-96600000D03*
X110000000Y-96600000D03*
X110640000Y-96600000D03*
X111280000Y-96600000D03*
X111920000Y-96600000D03*
X112560000Y-96600000D03*
X113200000Y-96600000D03*
X113840000Y-96600000D03*
X114480000Y-96600000D03*
X122320001Y-65000000D03*
X122960001Y-65000000D03*
X123600001Y-65000000D03*
X124240001Y-65000000D03*
X124880001Y-65000000D03*
X125520001Y-65000000D03*
X126160001Y-65000000D03*
X126800001Y-65000000D03*
X127440001Y-65000000D03*
X128080001Y-65000000D03*
X76120000Y-74000000D03*
X76760000Y-74000000D03*
X77400000Y-74000000D03*
X78040000Y-74000000D03*
X78680000Y-74000000D03*
X79320000Y-74000000D03*
X79960000Y-74000000D03*
X80600000Y-74000000D03*
X81240000Y-74000000D03*
X81880000Y-74000000D03*
X131820000Y-96600000D03*
X132460000Y-96600000D03*
X133100000Y-96600000D03*
X133740000Y-96600000D03*
X134380000Y-96600000D03*
X135020000Y-96600000D03*
X135660000Y-96600000D03*
X136300000Y-96600000D03*
X136940000Y-96600000D03*
X137580000Y-96600000D03*
X89720001Y-74000000D03*
X90360001Y-74000000D03*
X91000001Y-74000000D03*
X91640001Y-74000000D03*
X92280001Y-74000000D03*
X92920001Y-74000000D03*
X93560001Y-74000000D03*
X94200001Y-74000000D03*
X94840001Y-74000000D03*
X95480001Y-74000000D03*
X76120000Y-56000000D03*
X76760000Y-56000000D03*
X77400000Y-56000000D03*
X78040000Y-56000000D03*
X78680000Y-56000000D03*
X79320000Y-56000000D03*
X79960000Y-56000000D03*
X80600000Y-56000000D03*
X81240000Y-56000000D03*
X81880000Y-56000000D03*
X122320001Y-96600000D03*
X122960001Y-96600000D03*
X123600001Y-96600000D03*
X124240001Y-96600000D03*
X124880001Y-96600000D03*
X125520001Y-96600000D03*
X126160001Y-96600000D03*
X126800001Y-96600000D03*
X127440001Y-96600000D03*
X128080001Y-96600000D03*
X131820000Y-74000000D03*
X132460000Y-74000000D03*
X133100000Y-74000000D03*
X133740000Y-74000000D03*
X134380000Y-74000000D03*
X135020000Y-74000000D03*
X135660000Y-74000000D03*
X136300000Y-74000000D03*
X136940000Y-74000000D03*
X137580000Y-74000000D03*
X108720000Y-105600000D03*
X109360000Y-105600000D03*
X110000000Y-105600000D03*
X110640000Y-105600000D03*
X111280000Y-105600000D03*
X111920000Y-105600000D03*
X112560000Y-105600000D03*
X113200000Y-105600000D03*
X113840000Y-105600000D03*
X114480000Y-105600000D03*
X122320001Y-87600000D03*
X122960001Y-87600000D03*
X123600001Y-87600000D03*
X124240001Y-87600000D03*
X124880001Y-87600000D03*
X125520001Y-87600000D03*
X126160001Y-87600000D03*
X126800001Y-87600000D03*
X127440001Y-87600000D03*
X128080001Y-87600000D03*
X131820000Y-87600000D03*
X132460000Y-87600000D03*
X133100000Y-87600000D03*
X133740000Y-87600000D03*
X134380000Y-87600000D03*
X135020000Y-87600000D03*
X135660000Y-87600000D03*
X136300000Y-87600000D03*
X136940000Y-87600000D03*
X137580000Y-87600000D03*
X66620000Y-96600000D03*
X67260000Y-96600000D03*
X67900000Y-96600000D03*
X68540000Y-96600000D03*
X69180000Y-96600000D03*
X69820000Y-96600000D03*
X70460000Y-96600000D03*
X71100000Y-96600000D03*
X71740000Y-96600000D03*
X72380000Y-96600000D03*
X89720001Y-105600000D03*
X90360001Y-105600000D03*
X91000001Y-105600000D03*
X91640001Y-105600000D03*
X92280001Y-105600000D03*
X92920001Y-105600000D03*
X93560001Y-105600000D03*
X94200001Y-105600000D03*
X94840001Y-105600000D03*
X95480001Y-105600000D03*
X122320001Y-56000000D03*
X122960001Y-56000000D03*
X123600001Y-56000000D03*
X124240001Y-56000000D03*
X124880001Y-56000000D03*
X125520001Y-56000000D03*
X126160001Y-56000000D03*
X126800001Y-56000000D03*
X127440001Y-56000000D03*
X128080001Y-56000000D03*
X76120000Y-87600000D03*
X76760000Y-87600000D03*
X77400000Y-87600000D03*
X78040000Y-87600000D03*
X78680000Y-87600000D03*
X79320000Y-87600000D03*
X79960000Y-87600000D03*
X80600000Y-87600000D03*
X81240000Y-87600000D03*
X81880000Y-87600000D03*
X141320000Y-56000000D03*
X141960000Y-56000000D03*
X142600000Y-56000000D03*
X143240000Y-56000000D03*
X143880000Y-56000000D03*
X144520000Y-56000000D03*
X145160000Y-56000000D03*
X145800000Y-56000000D03*
X146440000Y-56000000D03*
X147080000Y-56000000D03*
X108720000Y-74000000D03*
X109360000Y-74000000D03*
X110000000Y-74000000D03*
X110640000Y-74000000D03*
X111280000Y-74000000D03*
X111920000Y-74000000D03*
X112560000Y-74000000D03*
X113200000Y-74000000D03*
X113840000Y-74000000D03*
X114480000Y-74000000D03*
X99220000Y-96600000D03*
X99860000Y-96600000D03*
X100500000Y-96600000D03*
X101140000Y-96600000D03*
X101780000Y-96600000D03*
X102420000Y-96600000D03*
X103060000Y-96600000D03*
X103700000Y-96600000D03*
X104340000Y-96600000D03*
X104980000Y-96600000D03*
X76120000Y-96600000D03*
X76760000Y-96600000D03*
X77400000Y-96600000D03*
X78040000Y-96600000D03*
X78680000Y-96600000D03*
X79320000Y-96600000D03*
X79960000Y-96600000D03*
X80600000Y-96600000D03*
X81240000Y-96600000D03*
X81880000Y-96600000D03*
X108720000Y-87600000D03*
X109360000Y-87600000D03*
X110000000Y-87600000D03*
X110640000Y-87600000D03*
X111280000Y-87600000D03*
X111920000Y-87600000D03*
X112560000Y-87600000D03*
X113200000Y-87600000D03*
X113840000Y-87600000D03*
X114480000Y-87600000D03*
X66620000Y-87600000D03*
X67260000Y-87600000D03*
X67900000Y-87600000D03*
X68540000Y-87600000D03*
X69180000Y-87600000D03*
X69820000Y-87600000D03*
X70460000Y-87600000D03*
X71100000Y-87600000D03*
X71740000Y-87600000D03*
X72380000Y-87600000D03*
X141320000Y-105600000D03*
X141960000Y-105600000D03*
X142600000Y-105600000D03*
X143240000Y-105600000D03*
X143880000Y-105600000D03*
X144520000Y-105600000D03*
X145160000Y-105600000D03*
X145800000Y-105600000D03*
X146440000Y-105600000D03*
X147080000Y-105600000D03*
X141320000Y-65000000D03*
X141960000Y-65000000D03*
X142600000Y-65000000D03*
X143240000Y-65000000D03*
X143880000Y-65000000D03*
X144520000Y-65000000D03*
X145160000Y-65000000D03*
X145800000Y-65000000D03*
X146440000Y-65000000D03*
X147080000Y-65000000D03*
X89720001Y-87600000D03*
X90360001Y-87600000D03*
X91000001Y-87600000D03*
X91640001Y-87600000D03*
X92280001Y-87600000D03*
X92920001Y-87600000D03*
X93560001Y-87600000D03*
X94200001Y-87600000D03*
X94840001Y-87600000D03*
X95480001Y-87600000D03*
X57120001Y-65000000D03*
X57760001Y-65000000D03*
X58400001Y-65000000D03*
X59040001Y-65000000D03*
X59680001Y-65000000D03*
X60320001Y-65000000D03*
X60960001Y-65000000D03*
X61600001Y-65000000D03*
X62240001Y-65000000D03*
X62880001Y-65000000D03*
X89720001Y-96600000D03*
X90360001Y-96600000D03*
X91000001Y-96600000D03*
X91640001Y-96600000D03*
X92280001Y-96600000D03*
X92920001Y-96600000D03*
X93560001Y-96600000D03*
X94200001Y-96600000D03*
X94840001Y-96600000D03*
X95480001Y-96600000D03*
X131820000Y-65000000D03*
X132460000Y-65000000D03*
X133100000Y-65000000D03*
X133740000Y-65000000D03*
X134380000Y-65000000D03*
X135020000Y-65000000D03*
X135660000Y-65000000D03*
X136300000Y-65000000D03*
X136940000Y-65000000D03*
X137580000Y-65000000D03*
X57120001Y-56000000D03*
X57760001Y-56000000D03*
X58400001Y-56000000D03*
X59040001Y-56000000D03*
X59680001Y-56000000D03*
X60320001Y-56000000D03*
X60960001Y-56000000D03*
X61600001Y-56000000D03*
X62240001Y-56000000D03*
X62880001Y-56000000D03*
X57120001Y-87600000D03*
X57760001Y-87600000D03*
X58400001Y-87600000D03*
X59040001Y-87600000D03*
X59680001Y-87600000D03*
X60320001Y-87600000D03*
X60960001Y-87600000D03*
X61600001Y-87600000D03*
X62240001Y-87600000D03*
X62880001Y-87600000D03*
X99220000Y-65000000D03*
X99860000Y-65000000D03*
X100500000Y-65000000D03*
X101140000Y-65000000D03*
X101780000Y-65000000D03*
X102420000Y-65000000D03*
X103060000Y-65000000D03*
X103700000Y-65000000D03*
X104340000Y-65000000D03*
X104980000Y-65000000D03*
X131820000Y-56000000D03*
X132460000Y-56000000D03*
X133100000Y-56000000D03*
X133740000Y-56000000D03*
X134380000Y-56000000D03*
X135020000Y-56000000D03*
X135660000Y-56000000D03*
X136300000Y-56000000D03*
X136940000Y-56000000D03*
X137580000Y-56000000D03*
X99220000Y-56000000D03*
X99860000Y-56000000D03*
X100500000Y-56000000D03*
X101140000Y-56000000D03*
X101780000Y-56000000D03*
X102420000Y-56000000D03*
X103060000Y-56000000D03*
X103700000Y-56000000D03*
X104340000Y-56000000D03*
X104980000Y-56000000D03*
X76120000Y-105600000D03*
X76760000Y-105600000D03*
X77400000Y-105600000D03*
X78040000Y-105600000D03*
X78680000Y-105600000D03*
X79320000Y-105600000D03*
X79960000Y-105600000D03*
X80600000Y-105600000D03*
X81240000Y-105600000D03*
X81880000Y-105600000D03*
X108720000Y-56000000D03*
X109360000Y-56000000D03*
X110000000Y-56000000D03*
X110640000Y-56000000D03*
X111280000Y-56000000D03*
X111920000Y-56000000D03*
X112560000Y-56000000D03*
X113200000Y-56000000D03*
X113840000Y-56000000D03*
X114480000Y-56000000D03*
X122320001Y-74000000D03*
X122960001Y-74000000D03*
X123600001Y-74000000D03*
X124240001Y-74000000D03*
X124880001Y-74000000D03*
X125520001Y-74000000D03*
X126160001Y-74000000D03*
X126800001Y-74000000D03*
X127440001Y-74000000D03*
X128080001Y-74000000D03*
X122320001Y-105600000D03*
X122960001Y-105600000D03*
X123600001Y-105600000D03*
X124240001Y-105600000D03*
X124880001Y-105600000D03*
X125520001Y-105600000D03*
X126160001Y-105600000D03*
X126800001Y-105600000D03*
X127440001Y-105600000D03*
X128080001Y-105600000D03*
X66620000Y-65000000D03*
X67260000Y-65000000D03*
X67900000Y-65000000D03*
X68540000Y-65000000D03*
X69180000Y-65000000D03*
X69820000Y-65000000D03*
X70460000Y-65000000D03*
X71100000Y-65000000D03*
X71740000Y-65000000D03*
X72380000Y-65000000D03*
X57120001Y-74000000D03*
X57760001Y-74000000D03*
X58400001Y-74000000D03*
X59040001Y-74000000D03*
X59680001Y-74000000D03*
X60320001Y-74000000D03*
X60960001Y-74000000D03*
X61600001Y-74000000D03*
X62240001Y-74000000D03*
X62880001Y-74000000D03*
X141320000Y-87600000D03*
X141960000Y-87600000D03*
X142600000Y-87600000D03*
X143240000Y-87600000D03*
X143880000Y-87600000D03*
X144520000Y-87600000D03*
X145160000Y-87600000D03*
X145800000Y-87600000D03*
X146440000Y-87600000D03*
X147080000Y-87600000D03*
X89720001Y-56000000D03*
X90360001Y-56000000D03*
X91000001Y-56000000D03*
X91640001Y-56000000D03*
X92280001Y-56000000D03*
X92920001Y-56000000D03*
X93560001Y-56000000D03*
X94200001Y-56000000D03*
X94840001Y-56000000D03*
X95480001Y-56000000D03*
X57120001Y-105600000D03*
X57760001Y-105600000D03*
X58400001Y-105600000D03*
X59040001Y-105600000D03*
X59680001Y-105600000D03*
X60320001Y-105600000D03*
X60960001Y-105600000D03*
X61600001Y-105600000D03*
X62240001Y-105600000D03*
X62880001Y-105600000D03*
X66620000Y-56000000D03*
X67260000Y-56000000D03*
X67900000Y-56000000D03*
X68540000Y-56000000D03*
X69180000Y-56000000D03*
X69820000Y-56000000D03*
X70460000Y-56000000D03*
X71100000Y-56000000D03*
X71740000Y-56000000D03*
X72380000Y-56000000D03*
X131820000Y-105600000D03*
X132460000Y-105600000D03*
X133100000Y-105600000D03*
X133740000Y-105600000D03*
X134380000Y-105600000D03*
X135020000Y-105600000D03*
X135660000Y-105600000D03*
X136300000Y-105600000D03*
X136940000Y-105600000D03*
X137580000Y-105600000D03*
X99220000Y-105600000D03*
X99860000Y-105600000D03*
X100500000Y-105600000D03*
X101140000Y-105600000D03*
X101780000Y-105600000D03*
X102420000Y-105600000D03*
X103060000Y-105600000D03*
X103700000Y-105600000D03*
X104340000Y-105600000D03*
X104980000Y-105600000D03*
X57120001Y-96600000D03*
X57760001Y-96600000D03*
X58400001Y-96600000D03*
X59040001Y-96600000D03*
X59680001Y-96600000D03*
X60320001Y-96600000D03*
X60960001Y-96600000D03*
X61600001Y-96600000D03*
X62240001Y-96600000D03*
X62880001Y-96600000D03*
X99220000Y-74000000D03*
X99860000Y-74000000D03*
X100500000Y-74000000D03*
X101140000Y-74000000D03*
X101780000Y-74000000D03*
X102420000Y-74000000D03*
X103060000Y-74000000D03*
X103700000Y-74000000D03*
X104340000Y-74000000D03*
X104980000Y-74000000D03*
X66620000Y-74000000D03*
X67260000Y-74000000D03*
X67900000Y-74000000D03*
X68540000Y-74000000D03*
X69180000Y-74000000D03*
X69820000Y-74000000D03*
X70460000Y-74000000D03*
X71100000Y-74000000D03*
X71740000Y-74000000D03*
X72380000Y-74000000D03*
X108720000Y-65000000D03*
X109360000Y-65000000D03*
X110000000Y-65000000D03*
X110640000Y-65000000D03*
X111280000Y-65000000D03*
X111920000Y-65000000D03*
X112560000Y-65000000D03*
X113200000Y-65000000D03*
X113840000Y-65000000D03*
X114480000Y-65000000D03*
M02*
