G04 #@! TF.GenerationSoftware,KiCad,Pcbnew,7.0.11*
G04 #@! TF.CreationDate,2024-05-30T18:22:34+10:00*
G04 #@! TF.ProjectId,PercPlugPanel_v1.02,50657263-506c-4756-9750-616e656c5f76,rev?*
G04 #@! TF.SameCoordinates,Original*
G04 #@! TF.FileFunction,Legend,Top*
G04 #@! TF.FilePolarity,Positive*
%FSLAX46Y46*%
G04 Gerber Fmt 4.6, Leading zero omitted, Abs format (unit mm)*
G04 Created by KiCad (PCBNEW 7.0.11) date 2024-05-30 18:22:34*
%MOMM*%
%LPD*%
G01*
G04 APERTURE LIST*
%ADD10C,0.150000*%
%ADD11C,0.125000*%
%ADD12C,0.020320*%
G04 APERTURE END LIST*
D10*
X141155826Y-117855247D02*
X141270112Y-117893342D01*
X141270112Y-117893342D02*
X141308207Y-117931438D01*
X141308207Y-117931438D02*
X141346303Y-118007628D01*
X141346303Y-118007628D02*
X141346303Y-118121914D01*
X141346303Y-118121914D02*
X141308207Y-118198104D01*
X141308207Y-118198104D02*
X141270112Y-118236200D01*
X141270112Y-118236200D02*
X141193922Y-118274295D01*
X141193922Y-118274295D02*
X140889160Y-118274295D01*
X140889160Y-118274295D02*
X140889160Y-117474295D01*
X140889160Y-117474295D02*
X141155826Y-117474295D01*
X141155826Y-117474295D02*
X141232017Y-117512390D01*
X141232017Y-117512390D02*
X141270112Y-117550485D01*
X141270112Y-117550485D02*
X141308207Y-117626676D01*
X141308207Y-117626676D02*
X141308207Y-117702866D01*
X141308207Y-117702866D02*
X141270112Y-117779057D01*
X141270112Y-117779057D02*
X141232017Y-117817152D01*
X141232017Y-117817152D02*
X141155826Y-117855247D01*
X141155826Y-117855247D02*
X140889160Y-117855247D01*
X141689160Y-118274295D02*
X141689160Y-117740961D01*
X141689160Y-117474295D02*
X141651064Y-117512390D01*
X141651064Y-117512390D02*
X141689160Y-117550485D01*
X141689160Y-117550485D02*
X141727255Y-117512390D01*
X141727255Y-117512390D02*
X141689160Y-117474295D01*
X141689160Y-117474295D02*
X141689160Y-117550485D01*
X142184397Y-118274295D02*
X142108207Y-118236200D01*
X142108207Y-118236200D02*
X142070112Y-118198104D01*
X142070112Y-118198104D02*
X142032016Y-118121914D01*
X142032016Y-118121914D02*
X142032016Y-117893342D01*
X142032016Y-117893342D02*
X142070112Y-117817152D01*
X142070112Y-117817152D02*
X142108207Y-117779057D01*
X142108207Y-117779057D02*
X142184397Y-117740961D01*
X142184397Y-117740961D02*
X142298683Y-117740961D01*
X142298683Y-117740961D02*
X142374874Y-117779057D01*
X142374874Y-117779057D02*
X142412969Y-117817152D01*
X142412969Y-117817152D02*
X142451064Y-117893342D01*
X142451064Y-117893342D02*
X142451064Y-118121914D01*
X142451064Y-118121914D02*
X142412969Y-118198104D01*
X142412969Y-118198104D02*
X142374874Y-118236200D01*
X142374874Y-118236200D02*
X142298683Y-118274295D01*
X142298683Y-118274295D02*
X142184397Y-118274295D01*
X142793922Y-117740961D02*
X142793922Y-118274295D01*
X142793922Y-117817152D02*
X142832017Y-117779057D01*
X142832017Y-117779057D02*
X142908207Y-117740961D01*
X142908207Y-117740961D02*
X143022493Y-117740961D01*
X143022493Y-117740961D02*
X143098684Y-117779057D01*
X143098684Y-117779057D02*
X143136779Y-117855247D01*
X143136779Y-117855247D02*
X143136779Y-118274295D01*
X143517732Y-118274295D02*
X143517732Y-117740961D01*
X143517732Y-117474295D02*
X143479636Y-117512390D01*
X143479636Y-117512390D02*
X143517732Y-117550485D01*
X143517732Y-117550485D02*
X143555827Y-117512390D01*
X143555827Y-117512390D02*
X143517732Y-117474295D01*
X143517732Y-117474295D02*
X143517732Y-117550485D01*
X144241541Y-118236200D02*
X144165350Y-118274295D01*
X144165350Y-118274295D02*
X144012969Y-118274295D01*
X144012969Y-118274295D02*
X143936779Y-118236200D01*
X143936779Y-118236200D02*
X143898684Y-118198104D01*
X143898684Y-118198104D02*
X143860588Y-118121914D01*
X143860588Y-118121914D02*
X143860588Y-117893342D01*
X143860588Y-117893342D02*
X143898684Y-117817152D01*
X143898684Y-117817152D02*
X143936779Y-117779057D01*
X143936779Y-117779057D02*
X144012969Y-117740961D01*
X144012969Y-117740961D02*
X144165350Y-117740961D01*
X144165350Y-117740961D02*
X144241541Y-117779057D01*
X144546302Y-118236200D02*
X144622493Y-118274295D01*
X144622493Y-118274295D02*
X144774874Y-118274295D01*
X144774874Y-118274295D02*
X144851064Y-118236200D01*
X144851064Y-118236200D02*
X144889160Y-118160009D01*
X144889160Y-118160009D02*
X144889160Y-118121914D01*
X144889160Y-118121914D02*
X144851064Y-118045723D01*
X144851064Y-118045723D02*
X144774874Y-118007628D01*
X144774874Y-118007628D02*
X144660588Y-118007628D01*
X144660588Y-118007628D02*
X144584398Y-117969533D01*
X144584398Y-117969533D02*
X144546302Y-117893342D01*
X144546302Y-117893342D02*
X144546302Y-117855247D01*
X144546302Y-117855247D02*
X144584398Y-117779057D01*
X144584398Y-117779057D02*
X144660588Y-117740961D01*
X144660588Y-117740961D02*
X144774874Y-117740961D01*
X144774874Y-117740961D02*
X144851064Y-117779057D01*
X145841541Y-118274295D02*
X145841541Y-117474295D01*
X146222493Y-117740961D02*
X146222493Y-118274295D01*
X146222493Y-117817152D02*
X146260588Y-117779057D01*
X146260588Y-117779057D02*
X146336778Y-117740961D01*
X146336778Y-117740961D02*
X146451064Y-117740961D01*
X146451064Y-117740961D02*
X146527255Y-117779057D01*
X146527255Y-117779057D02*
X146565350Y-117855247D01*
X146565350Y-117855247D02*
X146565350Y-118274295D01*
X146908207Y-118236200D02*
X146984398Y-118274295D01*
X146984398Y-118274295D02*
X147136779Y-118274295D01*
X147136779Y-118274295D02*
X147212969Y-118236200D01*
X147212969Y-118236200D02*
X147251065Y-118160009D01*
X147251065Y-118160009D02*
X147251065Y-118121914D01*
X147251065Y-118121914D02*
X147212969Y-118045723D01*
X147212969Y-118045723D02*
X147136779Y-118007628D01*
X147136779Y-118007628D02*
X147022493Y-118007628D01*
X147022493Y-118007628D02*
X146946303Y-117969533D01*
X146946303Y-117969533D02*
X146908207Y-117893342D01*
X146908207Y-117893342D02*
X146908207Y-117855247D01*
X146908207Y-117855247D02*
X146946303Y-117779057D01*
X146946303Y-117779057D02*
X147022493Y-117740961D01*
X147022493Y-117740961D02*
X147136779Y-117740961D01*
X147136779Y-117740961D02*
X147212969Y-117779057D01*
X147479636Y-117740961D02*
X147784398Y-117740961D01*
X147593922Y-117474295D02*
X147593922Y-118160009D01*
X147593922Y-118160009D02*
X147632017Y-118236200D01*
X147632017Y-118236200D02*
X147708207Y-118274295D01*
X147708207Y-118274295D02*
X147784398Y-118274295D01*
X148051065Y-118274295D02*
X148051065Y-117740961D01*
X148051065Y-117474295D02*
X148012969Y-117512390D01*
X148012969Y-117512390D02*
X148051065Y-117550485D01*
X148051065Y-117550485D02*
X148089160Y-117512390D01*
X148089160Y-117512390D02*
X148051065Y-117474295D01*
X148051065Y-117474295D02*
X148051065Y-117550485D01*
X148317731Y-117740961D02*
X148622493Y-117740961D01*
X148432017Y-117474295D02*
X148432017Y-118160009D01*
X148432017Y-118160009D02*
X148470112Y-118236200D01*
X148470112Y-118236200D02*
X148546302Y-118274295D01*
X148546302Y-118274295D02*
X148622493Y-118274295D01*
X149232017Y-117740961D02*
X149232017Y-118274295D01*
X148889160Y-117740961D02*
X148889160Y-118160009D01*
X148889160Y-118160009D02*
X148927255Y-118236200D01*
X148927255Y-118236200D02*
X149003445Y-118274295D01*
X149003445Y-118274295D02*
X149117731Y-118274295D01*
X149117731Y-118274295D02*
X149193922Y-118236200D01*
X149193922Y-118236200D02*
X149232017Y-118198104D01*
X149498684Y-117740961D02*
X149803446Y-117740961D01*
X149612970Y-117474295D02*
X149612970Y-118160009D01*
X149612970Y-118160009D02*
X149651065Y-118236200D01*
X149651065Y-118236200D02*
X149727255Y-118274295D01*
X149727255Y-118274295D02*
X149803446Y-118274295D01*
X150374875Y-118236200D02*
X150298684Y-118274295D01*
X150298684Y-118274295D02*
X150146303Y-118274295D01*
X150146303Y-118274295D02*
X150070113Y-118236200D01*
X150070113Y-118236200D02*
X150032017Y-118160009D01*
X150032017Y-118160009D02*
X150032017Y-117855247D01*
X150032017Y-117855247D02*
X150070113Y-117779057D01*
X150070113Y-117779057D02*
X150146303Y-117740961D01*
X150146303Y-117740961D02*
X150298684Y-117740961D01*
X150298684Y-117740961D02*
X150374875Y-117779057D01*
X150374875Y-117779057D02*
X150412970Y-117855247D01*
X150412970Y-117855247D02*
X150412970Y-117931438D01*
X150412970Y-117931438D02*
X150032017Y-118007628D01*
X141117731Y-118762295D02*
X141117731Y-119333723D01*
X141117731Y-119333723D02*
X141079636Y-119448009D01*
X141079636Y-119448009D02*
X141003445Y-119524200D01*
X141003445Y-119524200D02*
X140889160Y-119562295D01*
X140889160Y-119562295D02*
X140812969Y-119562295D01*
X141384398Y-118762295D02*
X141651065Y-119562295D01*
X141651065Y-119562295D02*
X141917731Y-118762295D01*
X142793922Y-119562295D02*
X142793922Y-118762295D01*
X142793922Y-118762295D02*
X143060588Y-119333723D01*
X143060588Y-119333723D02*
X143327255Y-118762295D01*
X143327255Y-118762295D02*
X143327255Y-119562295D01*
X144051065Y-119562295D02*
X144051065Y-119143247D01*
X144051065Y-119143247D02*
X144012970Y-119067057D01*
X144012970Y-119067057D02*
X143936779Y-119028961D01*
X143936779Y-119028961D02*
X143784398Y-119028961D01*
X143784398Y-119028961D02*
X143708208Y-119067057D01*
X144051065Y-119524200D02*
X143974874Y-119562295D01*
X143974874Y-119562295D02*
X143784398Y-119562295D01*
X143784398Y-119562295D02*
X143708208Y-119524200D01*
X143708208Y-119524200D02*
X143670112Y-119448009D01*
X143670112Y-119448009D02*
X143670112Y-119371819D01*
X143670112Y-119371819D02*
X143708208Y-119295628D01*
X143708208Y-119295628D02*
X143784398Y-119257533D01*
X143784398Y-119257533D02*
X143974874Y-119257533D01*
X143974874Y-119257533D02*
X144051065Y-119219438D01*
X144317732Y-119028961D02*
X144622494Y-119028961D01*
X144432018Y-118762295D02*
X144432018Y-119448009D01*
X144432018Y-119448009D02*
X144470113Y-119524200D01*
X144470113Y-119524200D02*
X144546303Y-119562295D01*
X144546303Y-119562295D02*
X144622494Y-119562295D01*
X145232018Y-119562295D02*
X145232018Y-119143247D01*
X145232018Y-119143247D02*
X145193923Y-119067057D01*
X145193923Y-119067057D02*
X145117732Y-119028961D01*
X145117732Y-119028961D02*
X144965351Y-119028961D01*
X144965351Y-119028961D02*
X144889161Y-119067057D01*
X145232018Y-119524200D02*
X145155827Y-119562295D01*
X145155827Y-119562295D02*
X144965351Y-119562295D01*
X144965351Y-119562295D02*
X144889161Y-119524200D01*
X144889161Y-119524200D02*
X144851065Y-119448009D01*
X144851065Y-119448009D02*
X144851065Y-119371819D01*
X144851065Y-119371819D02*
X144889161Y-119295628D01*
X144889161Y-119295628D02*
X144965351Y-119257533D01*
X144965351Y-119257533D02*
X145155827Y-119257533D01*
X145155827Y-119257533D02*
X145232018Y-119219438D01*
X145612971Y-119562295D02*
X145612971Y-119028961D01*
X145612971Y-119181342D02*
X145651066Y-119105152D01*
X145651066Y-119105152D02*
X145689161Y-119067057D01*
X145689161Y-119067057D02*
X145765352Y-119028961D01*
X145765352Y-119028961D02*
X145841542Y-119028961D01*
X146451066Y-119562295D02*
X146451066Y-119143247D01*
X146451066Y-119143247D02*
X146412971Y-119067057D01*
X146412971Y-119067057D02*
X146336780Y-119028961D01*
X146336780Y-119028961D02*
X146184399Y-119028961D01*
X146184399Y-119028961D02*
X146108209Y-119067057D01*
X146451066Y-119524200D02*
X146374875Y-119562295D01*
X146374875Y-119562295D02*
X146184399Y-119562295D01*
X146184399Y-119562295D02*
X146108209Y-119524200D01*
X146108209Y-119524200D02*
X146070113Y-119448009D01*
X146070113Y-119448009D02*
X146070113Y-119371819D01*
X146070113Y-119371819D02*
X146108209Y-119295628D01*
X146108209Y-119295628D02*
X146184399Y-119257533D01*
X146184399Y-119257533D02*
X146374875Y-119257533D01*
X146374875Y-119257533D02*
X146451066Y-119219438D01*
X146755828Y-119028961D02*
X147174876Y-119028961D01*
X147174876Y-119028961D02*
X146755828Y-119562295D01*
X146755828Y-119562295D02*
X147174876Y-119562295D01*
X147403447Y-119028961D02*
X147822495Y-119028961D01*
X147822495Y-119028961D02*
X147403447Y-119562295D01*
X147403447Y-119562295D02*
X147822495Y-119562295D01*
X148241542Y-119562295D02*
X148165352Y-119524200D01*
X148165352Y-119524200D02*
X148127257Y-119486104D01*
X148127257Y-119486104D02*
X148089161Y-119409914D01*
X148089161Y-119409914D02*
X148089161Y-119181342D01*
X148089161Y-119181342D02*
X148127257Y-119105152D01*
X148127257Y-119105152D02*
X148165352Y-119067057D01*
X148165352Y-119067057D02*
X148241542Y-119028961D01*
X148241542Y-119028961D02*
X148355828Y-119028961D01*
X148355828Y-119028961D02*
X148432019Y-119067057D01*
X148432019Y-119067057D02*
X148470114Y-119105152D01*
X148470114Y-119105152D02*
X148508209Y-119181342D01*
X148508209Y-119181342D02*
X148508209Y-119409914D01*
X148508209Y-119409914D02*
X148470114Y-119486104D01*
X148470114Y-119486104D02*
X148432019Y-119524200D01*
X148432019Y-119524200D02*
X148355828Y-119562295D01*
X148355828Y-119562295D02*
X148241542Y-119562295D01*
X140889160Y-120850295D02*
X140889160Y-120050295D01*
X140889160Y-120050295D02*
X141193922Y-120050295D01*
X141193922Y-120050295D02*
X141270112Y-120088390D01*
X141270112Y-120088390D02*
X141308207Y-120126485D01*
X141308207Y-120126485D02*
X141346303Y-120202676D01*
X141346303Y-120202676D02*
X141346303Y-120316961D01*
X141346303Y-120316961D02*
X141308207Y-120393152D01*
X141308207Y-120393152D02*
X141270112Y-120431247D01*
X141270112Y-120431247D02*
X141193922Y-120469342D01*
X141193922Y-120469342D02*
X140889160Y-120469342D01*
X141993922Y-120812200D02*
X141917731Y-120850295D01*
X141917731Y-120850295D02*
X141765350Y-120850295D01*
X141765350Y-120850295D02*
X141689160Y-120812200D01*
X141689160Y-120812200D02*
X141651064Y-120736009D01*
X141651064Y-120736009D02*
X141651064Y-120431247D01*
X141651064Y-120431247D02*
X141689160Y-120355057D01*
X141689160Y-120355057D02*
X141765350Y-120316961D01*
X141765350Y-120316961D02*
X141917731Y-120316961D01*
X141917731Y-120316961D02*
X141993922Y-120355057D01*
X141993922Y-120355057D02*
X142032017Y-120431247D01*
X142032017Y-120431247D02*
X142032017Y-120507438D01*
X142032017Y-120507438D02*
X141651064Y-120583628D01*
X142374874Y-120850295D02*
X142374874Y-120316961D01*
X142374874Y-120469342D02*
X142412969Y-120393152D01*
X142412969Y-120393152D02*
X142451064Y-120355057D01*
X142451064Y-120355057D02*
X142527255Y-120316961D01*
X142527255Y-120316961D02*
X142603445Y-120316961D01*
X143212969Y-120812200D02*
X143136778Y-120850295D01*
X143136778Y-120850295D02*
X142984397Y-120850295D01*
X142984397Y-120850295D02*
X142908207Y-120812200D01*
X142908207Y-120812200D02*
X142870112Y-120774104D01*
X142870112Y-120774104D02*
X142832016Y-120697914D01*
X142832016Y-120697914D02*
X142832016Y-120469342D01*
X142832016Y-120469342D02*
X142870112Y-120393152D01*
X142870112Y-120393152D02*
X142908207Y-120355057D01*
X142908207Y-120355057D02*
X142984397Y-120316961D01*
X142984397Y-120316961D02*
X143136778Y-120316961D01*
X143136778Y-120316961D02*
X143212969Y-120355057D01*
X143365350Y-120926485D02*
X143974873Y-120926485D01*
X144165350Y-120850295D02*
X144165350Y-120050295D01*
X144165350Y-120050295D02*
X144470112Y-120050295D01*
X144470112Y-120050295D02*
X144546302Y-120088390D01*
X144546302Y-120088390D02*
X144584397Y-120126485D01*
X144584397Y-120126485D02*
X144622493Y-120202676D01*
X144622493Y-120202676D02*
X144622493Y-120316961D01*
X144622493Y-120316961D02*
X144584397Y-120393152D01*
X144584397Y-120393152D02*
X144546302Y-120431247D01*
X144546302Y-120431247D02*
X144470112Y-120469342D01*
X144470112Y-120469342D02*
X144165350Y-120469342D01*
X145079635Y-120850295D02*
X145003445Y-120812200D01*
X145003445Y-120812200D02*
X144965350Y-120736009D01*
X144965350Y-120736009D02*
X144965350Y-120050295D01*
X145727255Y-120316961D02*
X145727255Y-120850295D01*
X145384398Y-120316961D02*
X145384398Y-120736009D01*
X145384398Y-120736009D02*
X145422493Y-120812200D01*
X145422493Y-120812200D02*
X145498683Y-120850295D01*
X145498683Y-120850295D02*
X145612969Y-120850295D01*
X145612969Y-120850295D02*
X145689160Y-120812200D01*
X145689160Y-120812200D02*
X145727255Y-120774104D01*
X146451065Y-120316961D02*
X146451065Y-120964580D01*
X146451065Y-120964580D02*
X146412970Y-121040771D01*
X146412970Y-121040771D02*
X146374874Y-121078866D01*
X146374874Y-121078866D02*
X146298684Y-121116961D01*
X146298684Y-121116961D02*
X146184398Y-121116961D01*
X146184398Y-121116961D02*
X146108208Y-121078866D01*
X146451065Y-120812200D02*
X146374874Y-120850295D01*
X146374874Y-120850295D02*
X146222493Y-120850295D01*
X146222493Y-120850295D02*
X146146303Y-120812200D01*
X146146303Y-120812200D02*
X146108208Y-120774104D01*
X146108208Y-120774104D02*
X146070112Y-120697914D01*
X146070112Y-120697914D02*
X146070112Y-120469342D01*
X146070112Y-120469342D02*
X146108208Y-120393152D01*
X146108208Y-120393152D02*
X146146303Y-120355057D01*
X146146303Y-120355057D02*
X146222493Y-120316961D01*
X146222493Y-120316961D02*
X146374874Y-120316961D01*
X146374874Y-120316961D02*
X146451065Y-120355057D01*
X147365351Y-120316961D02*
X147555827Y-120850295D01*
X147555827Y-120850295D02*
X147746304Y-120316961D01*
X148470113Y-120850295D02*
X148012970Y-120850295D01*
X148241542Y-120850295D02*
X148241542Y-120050295D01*
X148241542Y-120050295D02*
X148165351Y-120164580D01*
X148165351Y-120164580D02*
X148089161Y-120240771D01*
X148089161Y-120240771D02*
X148012970Y-120278866D01*
X148812971Y-120774104D02*
X148851066Y-120812200D01*
X148851066Y-120812200D02*
X148812971Y-120850295D01*
X148812971Y-120850295D02*
X148774875Y-120812200D01*
X148774875Y-120812200D02*
X148812971Y-120774104D01*
X148812971Y-120774104D02*
X148812971Y-120850295D01*
X149346304Y-120050295D02*
X149422494Y-120050295D01*
X149422494Y-120050295D02*
X149498685Y-120088390D01*
X149498685Y-120088390D02*
X149536780Y-120126485D01*
X149536780Y-120126485D02*
X149574875Y-120202676D01*
X149574875Y-120202676D02*
X149612970Y-120355057D01*
X149612970Y-120355057D02*
X149612970Y-120545533D01*
X149612970Y-120545533D02*
X149574875Y-120697914D01*
X149574875Y-120697914D02*
X149536780Y-120774104D01*
X149536780Y-120774104D02*
X149498685Y-120812200D01*
X149498685Y-120812200D02*
X149422494Y-120850295D01*
X149422494Y-120850295D02*
X149346304Y-120850295D01*
X149346304Y-120850295D02*
X149270113Y-120812200D01*
X149270113Y-120812200D02*
X149232018Y-120774104D01*
X149232018Y-120774104D02*
X149193923Y-120697914D01*
X149193923Y-120697914D02*
X149155827Y-120545533D01*
X149155827Y-120545533D02*
X149155827Y-120355057D01*
X149155827Y-120355057D02*
X149193923Y-120202676D01*
X149193923Y-120202676D02*
X149232018Y-120126485D01*
X149232018Y-120126485D02*
X149270113Y-120088390D01*
X149270113Y-120088390D02*
X149346304Y-120050295D01*
X149917732Y-120126485D02*
X149955828Y-120088390D01*
X149955828Y-120088390D02*
X150032018Y-120050295D01*
X150032018Y-120050295D02*
X150222494Y-120050295D01*
X150222494Y-120050295D02*
X150298685Y-120088390D01*
X150298685Y-120088390D02*
X150336780Y-120126485D01*
X150336780Y-120126485D02*
X150374875Y-120202676D01*
X150374875Y-120202676D02*
X150374875Y-120278866D01*
X150374875Y-120278866D02*
X150336780Y-120393152D01*
X150336780Y-120393152D02*
X149879637Y-120850295D01*
X149879637Y-120850295D02*
X150374875Y-120850295D01*
D11*
D12*
X66991381Y-118726146D02*
X67032423Y-118599078D01*
X67011902Y-118662612D02*
X67234271Y-118734435D01*
X67234271Y-118734435D02*
X67209344Y-118702997D01*
X67209344Y-118702997D02*
X67195006Y-118674978D01*
X67195006Y-118674978D02*
X67191258Y-118650380D01*
X67169288Y-118935625D02*
X67162448Y-118956803D01*
X67162448Y-118956803D02*
X67145018Y-118974561D01*
X67145018Y-118974561D02*
X67131009Y-118981730D01*
X67131009Y-118981730D02*
X67106411Y-118985479D01*
X67106411Y-118985479D02*
X67060635Y-118982387D01*
X67060635Y-118982387D02*
X67007690Y-118965286D01*
X67007690Y-118965286D02*
X66968754Y-118941017D01*
X66968754Y-118941017D02*
X66950997Y-118923587D01*
X66950997Y-118923587D02*
X66943828Y-118909578D01*
X66943828Y-118909578D02*
X66940079Y-118884980D01*
X66940079Y-118884980D02*
X66946919Y-118863802D01*
X66946919Y-118863802D02*
X66964349Y-118846044D01*
X66964349Y-118846044D02*
X66978358Y-118838876D01*
X66978358Y-118838876D02*
X67002956Y-118835127D01*
X67002956Y-118835127D02*
X67048732Y-118838218D01*
X67048732Y-118838218D02*
X67101677Y-118855319D01*
X67101677Y-118855319D02*
X67140613Y-118879589D01*
X67140613Y-118879589D02*
X67158370Y-118897018D01*
X67158370Y-118897018D02*
X67165539Y-118911027D01*
X67165539Y-118911027D02*
X67169288Y-118935625D01*
X67600666Y-117902050D02*
X67574503Y-117938060D01*
X67574503Y-117938060D02*
X67570424Y-117962606D01*
X67570424Y-117962606D02*
X67572886Y-117978149D01*
X67572886Y-117978149D02*
X67586812Y-118015775D01*
X67586812Y-118015775D02*
X67616281Y-118050941D01*
X67616281Y-118050941D02*
X67688301Y-118103266D01*
X67688301Y-118103266D02*
X67712846Y-118107345D01*
X67712846Y-118107345D02*
X67728389Y-118104883D01*
X67728389Y-118104883D02*
X67750473Y-118093419D01*
X67750473Y-118093419D02*
X67776636Y-118057409D01*
X67776636Y-118057409D02*
X67780714Y-118032863D01*
X67780714Y-118032863D02*
X67778253Y-118017320D01*
X67778253Y-118017320D02*
X67766788Y-117995237D01*
X67766788Y-117995237D02*
X67721776Y-117962533D01*
X67721776Y-117962533D02*
X67697231Y-117958454D01*
X67697231Y-117958454D02*
X67681688Y-117960916D01*
X67681688Y-117960916D02*
X67659604Y-117972380D01*
X67659604Y-117972380D02*
X67633441Y-118008390D01*
X67633441Y-118008390D02*
X67629363Y-118032936D01*
X67629363Y-118032936D02*
X67631824Y-118048479D01*
X67631824Y-118048479D02*
X67643289Y-118070562D01*
X69486105Y-118138331D02*
X69394756Y-118012138D01*
X69394756Y-118012138D02*
X69642771Y-117956239D01*
X68579802Y-117668764D02*
X68557547Y-117657636D01*
X68557547Y-117657636D02*
X68546420Y-117646508D01*
X68546420Y-117646508D02*
X68535292Y-117624253D01*
X68535292Y-117624253D02*
X68535292Y-117613126D01*
X68535292Y-117613126D02*
X68546420Y-117590870D01*
X68546420Y-117590870D02*
X68557547Y-117579743D01*
X68557547Y-117579743D02*
X68579802Y-117568615D01*
X68579802Y-117568615D02*
X68624313Y-117568615D01*
X68624313Y-117568615D02*
X68646568Y-117579743D01*
X68646568Y-117579743D02*
X68657696Y-117590870D01*
X68657696Y-117590870D02*
X68668823Y-117613126D01*
X68668823Y-117613126D02*
X68668823Y-117624253D01*
X68668823Y-117624253D02*
X68657696Y-117646508D01*
X68657696Y-117646508D02*
X68646568Y-117657636D01*
X68646568Y-117657636D02*
X68624313Y-117668764D01*
X68624313Y-117668764D02*
X68579802Y-117668764D01*
X68579802Y-117668764D02*
X68557547Y-117679891D01*
X68557547Y-117679891D02*
X68546420Y-117691019D01*
X68546420Y-117691019D02*
X68535292Y-117713274D01*
X68535292Y-117713274D02*
X68535292Y-117757785D01*
X68535292Y-117757785D02*
X68546420Y-117780040D01*
X68546420Y-117780040D02*
X68557547Y-117791168D01*
X68557547Y-117791168D02*
X68579802Y-117802295D01*
X68579802Y-117802295D02*
X68624313Y-117802295D01*
X68624313Y-117802295D02*
X68646568Y-117791168D01*
X68646568Y-117791168D02*
X68657696Y-117780040D01*
X68657696Y-117780040D02*
X68668823Y-117757785D01*
X68668823Y-117757785D02*
X68668823Y-117713274D01*
X68668823Y-117713274D02*
X68657696Y-117691019D01*
X68657696Y-117691019D02*
X68646568Y-117679891D01*
X68646568Y-117679891D02*
X68624313Y-117668764D01*
X68524164Y-120770302D02*
X68668823Y-120770302D01*
X68668823Y-120770302D02*
X68590930Y-120859323D01*
X68590930Y-120859323D02*
X68624313Y-120859323D01*
X68624313Y-120859323D02*
X68646568Y-120870451D01*
X68646568Y-120870451D02*
X68657696Y-120881578D01*
X68657696Y-120881578D02*
X68668823Y-120903834D01*
X68668823Y-120903834D02*
X68668823Y-120959472D01*
X68668823Y-120959472D02*
X68657696Y-120981727D01*
X68657696Y-120981727D02*
X68646568Y-120992855D01*
X68646568Y-120992855D02*
X68624313Y-121003982D01*
X68624313Y-121003982D02*
X68557547Y-121003982D01*
X68557547Y-121003982D02*
X68535292Y-120992855D01*
X68535292Y-120992855D02*
X68524164Y-120981727D01*
X67668444Y-120467514D02*
X67683987Y-120465052D01*
X67683987Y-120465052D02*
X67708532Y-120469131D01*
X67708532Y-120469131D02*
X67753545Y-120501834D01*
X67753545Y-120501834D02*
X67765009Y-120523918D01*
X67765009Y-120523918D02*
X67767471Y-120539461D01*
X67767471Y-120539461D02*
X67763392Y-120564006D01*
X67763392Y-120564006D02*
X67750310Y-120582011D01*
X67750310Y-120582011D02*
X67721686Y-120602478D01*
X67721686Y-120602478D02*
X67535169Y-120632019D01*
X67535169Y-120632019D02*
X67652201Y-120717048D01*
X69550484Y-120525620D02*
X69641833Y-120651814D01*
X69453216Y-120486134D02*
X69506020Y-120653966D01*
X69506020Y-120653966D02*
X69623200Y-120569142D01*
X69990365Y-118797968D02*
X70004046Y-118840324D01*
X70004046Y-118840324D02*
X70021475Y-118858082D01*
X70021475Y-118858082D02*
X70035484Y-118865251D01*
X70035484Y-118865251D02*
X70074091Y-118876168D01*
X70074091Y-118876168D02*
X70119867Y-118873077D01*
X70119867Y-118873077D02*
X70204579Y-118845716D01*
X70204579Y-118845716D02*
X70222337Y-118828286D01*
X70222337Y-118828286D02*
X70229506Y-118814277D01*
X70229506Y-118814277D02*
X70233255Y-118789679D01*
X70233255Y-118789679D02*
X70219574Y-118747323D01*
X70219574Y-118747323D02*
X70202145Y-118729565D01*
X70202145Y-118729565D02*
X70188136Y-118722397D01*
X70188136Y-118722397D02*
X70163538Y-118718648D01*
X70163538Y-118718648D02*
X70110593Y-118735749D01*
X70110593Y-118735749D02*
X70092835Y-118753178D01*
X70092835Y-118753178D02*
X70085666Y-118767187D01*
X70085666Y-118767187D02*
X70081917Y-118791785D01*
X70081917Y-118791785D02*
X70095598Y-118834141D01*
X70095598Y-118834141D02*
X70113027Y-118851899D01*
X70113027Y-118851899D02*
X70127036Y-118859068D01*
X70127036Y-118859068D02*
X70151634Y-118862816D01*
X66998222Y-119887214D02*
X66957180Y-119760146D01*
X66977701Y-119823680D02*
X67200069Y-119751857D01*
X67200069Y-119751857D02*
X67161462Y-119740939D01*
X67161462Y-119740939D02*
X67133444Y-119726602D01*
X67133444Y-119726602D02*
X67116015Y-119708844D01*
X70021307Y-119698731D02*
X69986921Y-119804561D01*
X69986921Y-119804561D02*
X70089312Y-119849530D01*
X70089312Y-119849530D02*
X70082168Y-119835509D01*
X70082168Y-119835509D02*
X70078462Y-119810904D01*
X70078462Y-119810904D02*
X70095655Y-119757989D01*
X70095655Y-119757989D02*
X70113115Y-119740262D01*
X70113115Y-119740262D02*
X70127137Y-119733117D01*
X70127137Y-119733117D02*
X70151742Y-119729412D01*
X70151742Y-119729412D02*
X70204657Y-119746605D01*
X70204657Y-119746605D02*
X70222384Y-119764065D01*
X70222384Y-119764065D02*
X70229528Y-119778087D01*
X70229528Y-119778087D02*
X70233234Y-119802691D01*
X70233234Y-119802691D02*
X70216041Y-119855606D01*
X70216041Y-119855606D02*
X70198581Y-119873334D01*
X70198581Y-119873334D02*
X70184559Y-119880478D01*
D11*
M02*
